{
.appVersion = "1342";
DisplayStrings = (
"/iiMatra-malayalam"
);
classes = (
{
automatic = 1;

glyphs = (
{
glyphname = A;
layers = (
{
anchors = (
{
name = bottom;
position = "{574, 0}";
},
{
name = ogonek;
position = "{1042, -8}";
},
{
name = top;
position = "{560, 1376}";
}
);
layerId = "60CFBDE8-BC08-4808-BF41-F011F3E03A54";
paths = (
{
closed = 1;
nodes = (
"550 1400 OFFCURVE",
"536 1396 OFFCURVE",
"520 1384 CURVE",
"66 68 LINE SMOOTH",
"62 54 OFFCURVE",
"54 34 OFFCURVE",
"54 20 CURVE SMOOTH",
"52 -2 OFFCURVE",
"68 -16 OFFCURVE",
"90 -16 CURVE SMOOTH",
"102 -16 OFFCURVE",
"110 -16 OFFCURVE",
"122 -12 CURVE",
"118 -4 OFFCURVE",
"118 8 OFFCURVE",
"118 16 CURVE SMOOTH",
"118 28 OFFCURVE",
"124 48 OFFCURVE",
"128 58 CURVE SMOOTH",
"574 1372 LINE",
"550 1372 LINE",
"1016 12 LINE SMOOTH",
"1022 -6 OFFCURVE",
"1040 -16 OFFCURVE",
"1060 -16 CURVE SMOOTH",
"1072 -16 OFFCURVE",
"1082 -12 OFFCURVE",
"1094 2 CURVE",
"1084 14 OFFCURVE",
"1072 36 OFFCURVE",
"1062 62 CURVE SMOOTH",
"614 1366 LINE SMOOTH",
"606 1388 OFFCURVE",
"588 1400 OFFCURVE",
"564 1400 CURVE SMOOTH"
);
},
{
closed = 1;
nodes = (
"260 468 LINE",
"870 468 LINE",
"870 520 LINE",
"260 520 LINE"
);
}
);
width = 1124;
},
{
anchors = (
{
name = bottom;
position = "{670, 0}";
},
{
name = ogonek;
position = "{1142, -26}";
},
{
name = top;
position = "{680, 1396}";
}
);
layerId = "EBFFFCD3-BAE4-48A5-9442-B72A90AD34A8";
paths = (
{
closed = 1;
nodes = (
"648 1426 OFFCURVE",
"570 1414 OFFCURVE",
"490 1388 CURVE",
"102 230 LINE SMOOTH",
"84 174 OFFCURVE",
"74 122 OFFCURVE",
"74 88 CURVE SMOOTH",
"74 6 OFFCURVE",
"122 -28 OFFCURVE",
"230 -28 CURVE SMOOTH",
"300 -28 OFFCURVE",
"342 -14 OFFCURVE",
"382 2 CURVE",
"368 16 OFFCURVE",
"360 36 OFFCURVE",
"360 68 CURVE SMOOTH",
"360 98 OFFCURVE",
"366 128 OFFCURVE",
"374 160 CURVE SMOOTH",
"662 1314 LINE",
"634 1320 LINE",
"958 80 LINE SMOOTH",
"974 8 OFFCURVE",
"1040 -28 OFFCURVE",
"1126 -28 CURVE SMOOTH",
"1218 -28 OFFCURVE",
"1266 6 OFFCURVE",
"1290 34 CURVE",
"1256 70 OFFCURVE",
"1234 130 OFFCURVE",
"1224 164 CURVE SMOOTH",
"876 1336 LINE SMOOTH",
"856 1408 OFFCURVE",
"792 1426 OFFCURVE",
"726 1426 CURVE SMOOTH"
);
},
{
closed = 1;
nodes = (
"362 406 LINE",
"1026 406 LINE",
"1026 554 LINE",
"362 554 LINE"
);
}
);
width = 1296;
}
);
leftKerningGroup = A;
rightKerningGroup = A;
unicode = 0041;
},
{
glyphname = AE;
layers = (
{
anchors = (
{
name = bottom;
position = "{388, 0}";
},
{
name = ogonek;
position = "{806, -8}";
},
{
name = top;
position = "{388, 1376}";
},
{
name = topleft;
position = "{928, 1376}";
}
);
layerId = "60CFBDE8-BC08-4808-BF41-F011F3E03A54";
paths = (
{
closed = 1;
nodes = (
"100 -16 OFFCURVE",
"108 -16 OFFCURVE",
"118 -12 CURVE",
"114 -4 OFFCURVE",
"114 8 OFFCURVE",
"114 16 CURVE SMOOTH",
"114 28 OFFCURVE",
"118 48 OFFCURVE",
"124 58 CURVE",
"772 1268 LINE",
"774 1248 OFFCURVE",
"774 1226 OFFCURVE",
"774 1200 CURVE SMOOTH",
"778 44 LINE SMOOTH",
"778 16 OFFCURVE",
"790 0 OFFCURVE",
"812 0 CURVE SMOOTH",
"1446 0 LINE SMOOTH",
"1470 0 OFFCURVE",
"1466 44 OFFCURVE",
"1446 52 CURVE",
"1242 52 OFFCURVE",
"1040 50 OFFCURVE",
"836 50 CURVE",
"832 1324 LINE",
"1028 1324 OFFCURVE",
"1224 1324 OFFCURVE",
"1420 1324 CURVE",
"1442 1330 OFFCURVE",
"1454 1376 OFFCURVE",
"1426 1376 CURVE SMOOTH",
"870 1376 LINE",
"838 1376 OFFCURVE",
"806 1376 OFFCURVE",
"774 1376 CURVE",
"66 68 LINE SMOOTH",
"58 54 OFFCURVE",
"54 34 OFFCURVE",
"54 20 CURVE",
"52 -2 OFFCURVE",
"68 -16 OFFCURVE",
"90 -16 CURVE SMOOTH"
);
},
{
closed = 1;
nodes = (
"798 468 LINE",
"798 520 LINE",
"332 520 LINE",
"332 468 LINE"
);
},
{
closed = 1;
nodes = (
"1382 708 LINE",
"1388 726 OFFCURVE",
"1388 742 OFFCURVE",
"1382 760 CURVE",
"822 760 LINE",
"822 708 LINE"
);
}
);
width = 1606;
},
{
anchors = (
{
name = bottom;
position = "{134, 0}";
},
{
name = ogonek;
position = "{632, -26}";
},
{
name = top;
position = "{134, 1396}";
},
{
name = topleft;
position = "{780, 1396}";
}
);
layerId = "EBFFFCD3-BAE4-48A5-9442-B72A90AD34A8";
paths = (
{
closed = 1;
nodes = (
"310 -28 OFFCURVE",
"350 -14 OFFCURVE",
"390 2 CURVE",
"378 16 OFFCURVE",
"370 36 OFFCURVE",
"370 68 CURVE SMOOTH",
"370 98 OFFCURVE",
"370 128 OFFCURVE",
"384 160 CURVE",
"838 1206 LINE",
"848 1154 OFFCURVE",
"848 1108 OFFCURVE",
"848 1066 CURVE SMOOTH",
"850 142 LINE SMOOTH",
"850 52 OFFCURVE",
"918 0 OFFCURVE",
"1008 0 CURVE SMOOTH",
"1644 0 LINE SMOOTH",
"1734 0 OFFCURVE",
"1730 206 OFFCURVE",
"1660 250 CURVE",
"1554 196 OFFCURVE",
"1306 138 OFFCURVE",
"1128 132 CURVE",
"1128 1264 LINE",
"1298 1258 OFFCURVE",
"1474 1216 OFFCURVE",
"1610 1152 CURVE",
"1684 1186 OFFCURVE",
"1716 1396 OFFCURVE",
"1640 1396 CURVE SMOOTH",
"1076 1396 LINE",
"972 1396 OFFCURVE",
"784 1376 OFFCURVE",
"696 1350 CURVE",
"112 230 LINE SMOOTH",
"86 180 OFFCURVE",
"74 142 OFFCURVE",
"74 106 CURVE",
"74 24 OFFCURVE",
"132 -28 OFFCURVE",
"240 -28 CURVE SMOOTH"
);
},
{
closed = 1;
nodes = (
"918 406 LINE",
"918 554 LINE",
"460 554 LINE",
"460 406 LINE"
);
},
{
closed = 1;
nodes = (
"1550 648 LINE",
"1560 690 OFFCURVE",
"1564 746 OFFCURVE",
"1550 796 CURVE",
"1076 796 LINE",
"1076 648 LINE"
);
}
);
width = 1790;
}
);
leftKerningGroup = AE;
leftMetricsKey = A;
rightKerningGroup = E;
rightMetricsKey = E;
unicode = 00C6;
},
{
glyphname = B;
layers = (
{
anchors = (
{
name = bottom;
position = "{550, 0}";
},
{
name = top;
position = "{550, 1376}";
}
);
layerId = "60CFBDE8-BC08-4808-BF41-F011F3E03A54";
paths = (
{
closed = 1;
nodes = (
"418 0 LINE SMOOTH",
"770 0 OFFCURVE",
"968 62 OFFCURVE",
"968 356 CURVE SMOOTH",
"968 562 OFFCURVE",
"870 680 OFFCURVE",
"658 716 CURVE",
"820 770 OFFCURVE",
"898 894 OFFCURVE",
"898 1060 CURVE SMOOTH",
"898 1302 OFFCURVE",
"738 1400 OFFCURVE",
"410 1400 CURVE SMOOTH",
"248 1400 OFFCURVE",
"208 1378 OFFCURVE",
"202 1374 CURVE",
"212 1340 OFFCURVE",
"216 1218 OFFCURVE",
"216 1200 CURVE SMOOTH",
"216 44 LINE",
"218 16 OFFCURVE",
"230 0 OFFCURVE",
"254 0 CURVE SMOOTH"
);
},
{
closed = 1;
nodes = (
"276 1344 LINE",
"296 1350 OFFCURVE",
"336 1352 OFFCURVE",
"390 1352 CURVE SMOOTH",
"700 1352 OFFCURVE",
"834 1278 OFFCURVE",
"834 1062 CURVE SMOOTH",
"834 830 OFFCURVE",
"670 740 OFFCURVE",
"508 740 CURVE SMOOTH",
"246 740 LINE",
"260 688 LINE",
"438 688 LINE SMOOTH",
"726 688 OFFCURVE",
"904 616 OFFCURVE",
"904 360 CURVE SMOOTH",
"904 96 OFFCURVE",
"718 56 OFFCURVE",
"440 56 CURVE SMOOTH",
"276 56 LINE"
);
}
);
width = 1098;
},
{
anchors = (
{
name = bottom;
position = "{602, 0}";
},
{
name = top;
position = "{602, 1396}";
}
);
layerId = "EBFFFCD3-BAE4-48A5-9442-B72A90AD34A8";
paths = (
{
closed = 1;
nodes = (
"552 0 LINE SMOOTH",
"914 0 OFFCURVE",
"1124 132 OFFCURVE",
"1124 398 CURVE SMOOTH",
"1124 606 OFFCURVE",
"990 728 OFFCURVE",
"800 754 CURVE",
"960 796 OFFCURVE",
"1056 924 OFFCURVE",
"1056 1088 CURVE SMOOTH",
"1056 1330 OFFCURVE",
"848 1424 OFFCURVE",
"502 1424 CURVE SMOOTH",
"330 1424 OFFCURVE",
"210 1402 OFFCURVE",
"126 1362 CURVE",
"160 1272 OFFCURVE",
"166 1166 OFFCURVE",
"166 1102 CURVE SMOOTH",
"166 142 LINE",
"166 52 OFFCURVE",
"234 0 OFFCURVE",
"326 0 CURVE SMOOTH"
);
},
{
closed = 1;
nodes = (
"446 1328 LINE",
"464 1328 OFFCURVE",
"484 1328 OFFCURVE",
"506 1328 CURVE SMOOTH",
"698 1328 OFFCURVE",
"760 1220 OFFCURVE",
"760 1064 CURVE SMOOTH",
"760 902 OFFCURVE",
"698 786 OFFCURVE",
"538 790 CURVE SMOOTH",
"400 790 LINE",
"414 694 LINE",
"544 694 LINE SMOOTH",
"702 694 OFFCURVE",
"820 634 OFFCURVE",
"820 392 CURVE SMOOTH",
"820 226 OFFCURVE",
"746 96 OFFCURVE",
"540 96 CURVE SMOOTH",
"446 96 LINE"
);
}
);
width = 1206;
}
);
leftKerningGroup = H;
leftMetricsKey = H;
rightKerningGroup = B;
unicode = 0042;
},
{
glyphname = C;
layers = (
{
anchors = (
{
name = bottom;
position = "{632, 0}";
},
{
name = top;
position = "{638, 1376}";
}
);
layerId = "60CFBDE8-BC08-4808-BF41-F011F3E03A54";
paths = (
{
closed = 1;
nodes = (
"1032 110 OFFCURVE",
"1032 198 CURVE SMOOTH",
"1032 224 OFFCURVE",
"1010 228 OFFCURVE",
"984 228 CURVE",
"948 106 OFFCURVE",
"784 32 OFFCURVE",
"638 32 CURVE SMOOTH",
"366 32 OFFCURVE",
"204 256 OFFCURVE",
"204 688 CURVE SMOOTH",
"204 1120 OFFCURVE",
"366 1344 OFFCURVE",
"638 1344 CURVE SMOOTH",
"804 1344 OFFCURVE",
"916 1286 OFFCURVE",
"940 1206 CURVE",
"964 1196 OFFCURVE",
"990 1212 OFFCURVE",
"990 1234 CURVE SMOOTH",
"990 1308 OFFCURVE",
"850 1400 OFFCURVE",
"638 1400 CURVE SMOOTH",
"324 1400 OFFCURVE",
"140 1156 OFFCURVE",
"140 688 CURVE SMOOTH",
"140 220 OFFCURVE",
"324 -24 OFFCURVE",
"638 -24 CURVE SMOOTH",
"858 -24 OFFCURVE"
);
}
);
width = 1152;
},
{
anchors = (
{
name = bottom;
position = "{628, 0}";
},
{
name = top;
position = "{674, 1396}";
}
);
layerId = "EBFFFCD3-BAE4-48A5-9442-B72A90AD34A8";
paths = (
{
closed = 1;
nodes = (
"1168 66 OFFCURVE",
"1168 258 CURVE SMOOTH",
"1168 368 OFFCURVE",
"1044 414 OFFCURVE",
"934 398 CURVE",
"906 172 OFFCURVE",
"816 66 OFFCURVE",
"676 66 CURVE SMOOTH",
"486 66 OFFCURVE",
"402 276 OFFCURVE",
"402 698 CURVE SMOOTH",
"402 1120 OFFCURVE",
"488 1330 OFFCURVE",
"684 1330 CURVE SMOOTH",
"814 1330 OFFCURVE",
"890 1234 OFFCURVE",
"910 1022 CURVE",
"1058 1020 OFFCURVE",
"1134 1102 OFFCURVE",
"1134 1182 CURVE SMOOTH",
"1134 1340 OFFCURVE",
"896 1424 OFFCURVE",
"680 1424 CURVE SMOOTH",
"312 1424 OFFCURVE",
"94 1160 OFFCURVE",
"94 698 CURVE SMOOTH",
"94 236 OFFCURVE",
"304 -28 OFFCURVE",
"660 -28 CURVE SMOOTH",
"906 -28 OFFCURVE"
);
}
);
width = 1238;
}
);
leftKerningGroup = O;
leftMetricsKey = O;
rightKerningGroup = C;
unicode = 0043;
},
{
glyphname = D;
layers = (
{
anchors = (
{
name = bottom;
position = "{570, 0}";
},
{
name = center;
position = "{620, 688}";
},
{
name = top;
position = "{606, 1376}";
}
);
layerId = "60CFBDE8-BC08-4808-BF41-F011F3E03A54";
paths = (
{
closed = 1;
nodes = (
"590 0 LINE",
"926 0 OFFCURVE",
"1118 200 OFFCURVE",
"1118 688 CURVE SMOOTH",
"1118 1176 OFFCURVE",
"926 1400 OFFCURVE",
"590 1400 CURVE SMOOTH",
"494 1400 OFFCURVE",
"306 1396 OFFCURVE",
"202 1390 CURVE",
"210 1358 OFFCURVE",
"214 1280 OFFCURVE",
"214 1200 CURVE SMOOTH",
"218 44 LINE SMOOTH",
"218 16 OFFCURVE",
"230 0 OFFCURVE",
"252 0 CURVE"
);
},
{
closed = 1;
nodes = (
"272 1344 LINE",
"590 1344 LINE SMOOTH",
"880 1344 OFFCURVE",
"1054 1140 OFFCURVE",
"1054 688 CURVE SMOOTH",
"1054 236 OFFCURVE",
"880 56 OFFCURVE",
"590 56 CURVE SMOOTH",
"276 56 LINE"
);
}
);
width = 1258;
},
{
anchors = (
{
name = bottom;
position = "{586, 0}";
},
{
name = center;
position = "{646, 698}";
},
{
name = top;
position = "{632, 1396}";
}
);
layerId = "EBFFFCD3-BAE4-48A5-9442-B72A90AD34A8";
paths = (
{
closed = 1;
nodes = (
"590 0 LINE",
"982 0 OFFCURVE",
"1214 216 OFFCURVE",
"1214 718 CURVE SMOOTH",
"1214 1180 OFFCURVE",
"982 1416 OFFCURVE",
"574 1416 CURVE SMOOTH",
"436 1416 OFFCURVE",
"236 1414 OFFCURVE",
"126 1398 CURVE",
"160 1308 OFFCURVE",
"154 1178 OFFCURVE",
"154 1102 CURVE SMOOTH",
"156 140 LINE SMOOTH",
"156 54 OFFCURVE",
"218 0 OFFCURVE",
"318 0 CURVE"
);
},
{
closed = 1;
nodes = (
"434 1320 LINE",
"574 1320 LINE SMOOTH",
"804 1320 OFFCURVE",
"906 1132 OFFCURVE",
"906 698 CURVE SMOOTH",
"906 256 OFFCURVE",
"804 96 OFFCURVE",
"574 96 CURVE SMOOTH",
"434 96 LINE"
);
}
);
width = 1308;
}
);
leftKerningGroup = H;
leftMetricsKey = H;
rightKerningGroup = O;
rightMetricsKey = O;
unicode = 0044;
},
{
glyphname = Eth;
layers = (
{
anchors = (
{
name = bottom;
position = "{570, 0}";
},
{
name = top;
position = "{606, 1376}";
}
);
layerId = "60CFBDE8-BC08-4808-BF41-F011F3E03A54";
paths = (
{
closed = 1;
nodes = (
"46 706 OFFCURVE",
"46 688 OFFCURVE",
"54 672 CURVE",
"620 672 LINE",
"628 688 OFFCURVE",
"628 706 OFFCURVE",
"620 722 CURVE",
"54 722 LINE"
);
},
{
closed = 1;
nodes = (
"590 0 LINE",
"926 0 OFFCURVE",
"1118 200 OFFCURVE",
"1118 688 CURVE SMOOTH",
"1118 1176 OFFCURVE",
"926 1400 OFFCURVE",
"590 1400 CURVE SMOOTH",
"494 1400 OFFCURVE",
"306 1396 OFFCURVE",
"202 1390 CURVE",
"210 1358 OFFCURVE",
"214 1280 OFFCURVE",
"214 1200 CURVE SMOOTH",
"218 44 LINE SMOOTH",
"218 16 OFFCURVE",
"230 0 OFFCURVE",
"252 0 CURVE"
);
},
{
closed = 1;
nodes = (
"272 1344 LINE",
"590 1344 LINE SMOOTH",
"880 1344 OFFCURVE",
"1054 1140 OFFCURVE",
"1054 688 CURVE SMOOTH",
"1054 236 OFFCURVE",
"880 56 OFFCURVE",
"590 56 CURVE SMOOTH",
"276 56 LINE"
);
}
);
width = 1238;
},
{
anchors = (
{
name = bottom;
position = "{586, 0}";
},
{
name = top;
position = "{632, 1396}";
}
);
layerId = "EBFFFCD3-BAE4-48A5-9442-B72A90AD34A8";
paths = (
{
closed = 1;
nodes = (
"30 716 OFFCURVE",
"30 684 OFFCURVE",
"42 648 CURVE",
"682 648 LINE",
"692 684 OFFCURVE",
"692 716 OFFCURVE",
"682 750 CURVE",
"42 750 LINE"
);
},
{
closed = 1;
nodes = (
"590 0 LINE",
"982 0 OFFCURVE",
"1214 216 OFFCURVE",
"1214 718 CURVE SMOOTH",
"1214 1180 OFFCURVE",
"982 1416 OFFCURVE",
"574 1416 CURVE SMOOTH",
"436 1416 OFFCURVE",
"236 1414 OFFCURVE",
"126 1398 CURVE",
"160 1308 OFFCURVE",
"154 1178 OFFCURVE",
"154 1102 CURVE SMOOTH",
"156 140 LINE SMOOTH",
"156 54 OFFCURVE",
"218 0 OFFCURVE",
"318 0 CURVE"
);
},
{
closed = 1;
nodes = (
"434 1320 LINE",
"574 1320 LINE SMOOTH",
"804 1320 OFFCURVE",
"906 1132 OFFCURVE",
"906 698 CURVE SMOOTH",
"906 256 OFFCURVE",
"804 96 OFFCURVE",
"574 96 CURVE SMOOTH",
"434 96 LINE"
);
}
);
width = 1316;
}
);
leftKerningGroup = Eth;
rightKerningGroup = O;
unicode = 00D0;
},
{
glyphname = E;
layers = (
{
anchors = (
{
name = bottom;
position = "{524, 0}";
},
{
name = ogonek;
position = "{756, 4}";
},
{
name = top;
position = "{552, 1376}";
},
{
name = topleft;
position = "{40, 1376}";
}
);
layerId = "60CFBDE8-BC08-4808-BF41-F011F3E03A54";
paths = (
{
closed = 1;
nodes = (
"886 0 LINE",
"910 0 OFFCURVE",
"906 44 OFFCURVE",
"886 52 CURVE",
"682 52 OFFCURVE",
"480 50 OFFCURVE",
"276 50 CURVE",
"272 1324 LINE",
"476 1324 OFFCURVE",
"656 1324 OFFCURVE",
"860 1324 CURVE",
"882 1330 OFFCURVE",
"894 1376 OFFCURVE",
"866 1376 CURVE",
"238 1376 LINE SMOOTH",
"220 1376 OFFCURVE",
"210 1370 OFFCURVE",
"202 1360 CURVE",
"210 1328 OFFCURVE",
"214 1280 OFFCURVE",
"214 1200 CURVE SMOOTH",
"218 44 LINE SMOOTH",
"218 16 OFFCURVE",
"230 0 OFFCURVE",
"252 0 CURVE SMOOTH"
);
},
{
closed = 1;
nodes = (
"822 708 LINE",
"828 726 OFFCURVE",
"828 742 OFFCURVE",
"822 760 CURVE",
"262 760 LINE",
"262 708 LINE"
);
}
);
width = 1046;
},
{
anchors = (
{
name = bottom;
position = "{556, 0}";
},
{
name = ogonek;
position = "{846, -20}";
},
{
name = top;
position = "{560, 1396}";
},
{
name = topleft;
position = "{40, 1396}";
}
);
layerId = "EBFFFCD3-BAE4-48A5-9442-B72A90AD34A8";
paths = (
{
closed = 1;
nodes = (
"962 0 LINE",
"1052 0 OFFCURVE",
"1048 206 OFFCURVE",
"978 250 CURVE",
"872 196 OFFCURVE",
"622 138 OFFCURVE",
"446 132 CURVE",
"444 1264 LINE",
"618 1258 OFFCURVE",
"790 1216 OFFCURVE",
"928 1152 CURVE",
"1002 1186 OFFCURVE",
"1034 1396 OFFCURVE",
"958 1396 CURVE",
"380 1396 LINE SMOOTH",
"254 1396 OFFCURVE",
"196 1386 OFFCURVE",
"126 1326 CURVE",
"160 1236 OFFCURVE",
"166 1144 OFFCURVE",
"166 1066 CURVE SMOOTH",
"166 142 LINE SMOOTH",
"166 52 OFFCURVE",
"234 0 OFFCURVE",
"326 0 CURVE SMOOTH"
);
},
{
closed = 1;
nodes = (
"868 648 LINE",
"878 690 OFFCURVE",
"882 746 OFFCURVE",
"868 796 CURVE",
"394 796 LINE",
"394 648 LINE"
);
}
);
width = 1108;
}
);
leftKerningGroup = H;
leftMetricsKey = H;
rightKerningGroup = E;
unicode = 0045;
},
{
glyphname = F;
layers = (
{
anchors = (
{
name = bottom;
position = "{506, 0}";
},
{
name = top;
position = "{506, 1376}";
}
);
layerId = "60CFBDE8-BC08-4808-BF41-F011F3E03A54";
paths = (
{
closed = 1;
nodes = (
"270 -16 OFFCURVE",
"280 -8 OFFCURVE",
"288 0 CURVE",
"280 32 OFFCURVE",
"276 94 OFFCURVE",
"276 174 CURVE SMOOTH",
"272 1324 LINE",
"476 1324 OFFCURVE",
"656 1324 OFFCURVE",
"860 1324 CURVE",
"882 1330 OFFCURVE",
"894 1376 OFFCURVE",
"866 1376 CURVE",
"238 1376 LINE SMOOTH",
"220 1376 OFFCURVE",
"210 1370 OFFCURVE",
"202 1360 CURVE",
"210 1328 OFFCURVE",
"214 1280 OFFCURVE",
"214 1200 CURVE SMOOTH",
"218 28 LINE SMOOTH",
"218 0 OFFCURVE",
"230 -16 OFFCURVE",
"252 -16 CURVE SMOOTH"
);
},
{
closed = 1;
nodes = (
"818 692 LINE",
"824 710 OFFCURVE",
"824 726 OFFCURVE",
"818 744 CURVE",
"262 744 LINE",
"262 692 LINE"
);
}
);
width = 1010;
},
{
anchors = (
{
name = bottom;
position = "{534, 0}";
},
{
name = top;
position = "{534, 1396}";
}
);
layerId = "EBFFFCD3-BAE4-48A5-9442-B72A90AD34A8";
paths = (
{
closed = 1;
nodes = (
"404 -30 OFFCURVE",
"462 10 OFFCURVE",
"486 32 CURVE",
"450 120 OFFCURVE",
"446 216 OFFCURVE",
"446 292 CURVE SMOOTH",
"444 1264 LINE",
"618 1258 OFFCURVE",
"790 1216 OFFCURVE",
"928 1152 CURVE",
"1002 1186 OFFCURVE",
"1034 1396 OFFCURVE",
"958 1396 CURVE",
"380 1396 LINE SMOOTH",
"254 1396 OFFCURVE",
"196 1386 OFFCURVE",
"126 1326 CURVE",
"160 1236 OFFCURVE",
"166 1144 OFFCURVE",
"166 1066 CURVE SMOOTH",
"166 112 LINE SMOOTH",
"166 24 OFFCURVE",
"234 -30 OFFCURVE",
"326 -30 CURVE SMOOTH"
);
},
{
closed = 1;
nodes = (
"868 644 LINE",
"876 686 OFFCURVE",
"882 742 OFFCURVE",
"868 794 CURVE",
"394 794 LINE",
"394 644 LINE"
);
}
);
width = 1068;
}
);
leftKerningGroup = H;
leftMetricsKey = H;
rightKerningGroup = F;
unicode = 0046;
},
{
glyphname = G;
layers = (
{
anchors = (
{
name = bottom;
position = "{644, 0}";
},
{
name = top;
position = "{644, 1376}";
}
);
layerId = "60CFBDE8-BC08-4808-BF41-F011F3E03A54";
paths = (
{
closed = 1;
nodes = (
"1034 -24 OFFCURVE",
"1068 288 OFFCURVE",
"1068 436 CURVE SMOOTH",
"1068 690 OFFCURVE",
"968 760 OFFCURVE",
"886 760 CURVE SMOOTH",
"850 760 OFFCURVE",
"830 746 OFFCURVE",
"832 718 CURVE",
"934 718 OFFCURVE",
"1006 642 OFFCURVE",
"1006 440 CURVE SMOOTH",
"1006 292 OFFCURVE",
"968 32 OFFCURVE",
"652 32 CURVE SMOOTH",
"360 32 OFFCURVE",
"204 256 OFFCURVE",
"204 688 CURVE SMOOTH",
"204 1120 OFFCURVE",
"360 1344 OFFCURVE",
"648 1344 CURVE SMOOTH",
"796 1344 OFFCURVE",
"918 1286 OFFCURVE",
"940 1206 CURVE",
"968 1196 OFFCURVE",
"990 1212 OFFCURVE",
"990 1238 CURVE SMOOTH",
"990 1306 OFFCURVE",
"846 1400 OFFCURVE",
"644 1400 CURVE SMOOTH",
"320 1400 OFFCURVE",
"140 1156 OFFCURVE",
"140 686 CURVE SMOOTH",
"140 220 OFFCURVE",
"318 -24 OFFCURVE",
"654 -24 CURVE SMOOTH"
);
}
);
width = 1198;
},
{
anchors = (
{
name = bottom;
position = "{690, 0}";
},
{
name = top;
position = "{688, 1396}";
}
);
layerId = "EBFFFCD3-BAE4-48A5-9442-B72A90AD34A8";
paths = (
{
closed = 1;
nodes = (
"966 -28 OFFCURVE",
"1220 140 OFFCURVE",
"1220 514 CURVE SMOOTH",
"1220 704 OFFCURVE",
"1122 796 OFFCURVE",
"984 796 CURVE SMOOTH",
"914 796 OFFCURVE",
"844 770 OFFCURVE",
"818 714 CURVE",
"920 664 OFFCURVE",
"936 546 OFFCURVE",
"936 444 CURVE SMOOTH",
"936 288 OFFCURVE",
"898 66 OFFCURVE",
"708 66 CURVE SMOOTH",
"494 66 OFFCURVE",
"402 276 OFFCURVE",
"402 698 CURVE SMOOTH",
"402 1120 OFFCURVE",
"496 1330 OFFCURVE",
"716 1330 CURVE SMOOTH",
"838 1330 OFFCURVE",
"910 1234 OFFCURVE",
"930 1022 CURVE",
"1078 1020 OFFCURVE",
"1154 1102 OFFCURVE",
"1154 1184 CURVE SMOOTH",
"1154 1338 OFFCURVE",
"920 1424 OFFCURVE",
"712 1424 CURVE SMOOTH",
"324 1424 OFFCURVE",
"94 1160 OFFCURVE",
"94 698 CURVE SMOOTH",
"94 236 OFFCURVE",
"314 -28 OFFCURVE",
"692 -28 CURVE SMOOTH"
);
}
);
width = 1312;
}
);
leftKerningGroup = O;
leftMetricsKey = O;
rightKerningGroup = G;
unicode = 0047;
},
{
glyphname = H;
layers = (
{
anchors = (
{
name = bottom;
position = "{684, 0}";
},
{
name = center;
position = "{662, 688}";
},
{
name = top;
position = "{662, 1376}";
},
{
name = topleft;
position = "{40, 1376}";
}
);
layerId = "60CFBDE8-BC08-4808-BF41-F011F3E03A54";
paths = (
{
closed = 1;
nodes = (
"276 1346 LINE SMOOTH",
"276 1374 OFFCURVE",
"260 1390 OFFCURVE",
"238 1390 CURVE SMOOTH",
"220 1390 OFFCURVE",
"210 1382 OFFCURVE",
"202 1374 CURVE",
"210 1342 OFFCURVE",
"214 1280 OFFCURVE",
"214 1200 CURVE SMOOTH",
"218 28 LINE SMOOTH",
"218 0 OFFCURVE",
"230 -16 OFFCURVE",
"252 -16 CURVE SMOOTH",
"270 -16 OFFCURVE",
"280 -8 OFFCURVE",
"288 0 CURVE",
"280 32 OFFCURVE",
"276 94 OFFCURVE",
"276 174 CURVE SMOOTH"
);
},
{
closed = 1;
nodes = (
"1110 1346 LINE SMOOTH",
"1110 1374 OFFCURVE",
"1094 1390 OFFCURVE",
"1072 1390 CURVE SMOOTH",
"1054 1390 OFFCURVE",
"1044 1382 OFFCURVE",
"1036 1374 CURVE",
"1044 1342 OFFCURVE",
"1048 1280 OFFCURVE",
"1048 1200 CURVE SMOOTH",
"1052 28 LINE SMOOTH",
"1052 0 OFFCURVE",
"1064 -16 OFFCURVE",
"1086 -16 CURVE SMOOTH",
"1104 -16 OFFCURVE",
"1114 -8 OFFCURVE",
"1122 0 CURVE",
"1114 32 OFFCURVE",
"1110 94 OFFCURVE",
"1110 174 CURVE SMOOTH"
);
},
{
closed = 1;
nodes = (
"260 708 LINE",
"1082 708 LINE",
"1082 760 LINE",
"260 760 LINE"
);
}
);
width = 1324;
},
{
anchors = (
{
name = bottom;
position = "{702, 0}";
},
{
name = center;
position = "{702, 698}";
},
{
name = top;
position = "{702, 1396}";
},
{
name = topleft;
position = "{40, 1396}";
}
);
layerId = "EBFFFCD3-BAE4-48A5-9442-B72A90AD34A8";
paths = (
{
closed = 1;
nodes = (
"446 1282 LINE SMOOTH",
"446 1370 OFFCURVE",
"376 1422 OFFCURVE",
"286 1422 CURVE SMOOTH",
"208 1422 OFFCURVE",
"150 1384 OFFCURVE",
"126 1362 CURVE",
"160 1272 OFFCURVE",
"166 1178 OFFCURVE",
"166 1102 CURVE SMOOTH",
"166 112 LINE SMOOTH",
"166 24 OFFCURVE",
"234 -30 OFFCURVE",
"326 -30 CURVE SMOOTH",
"404 -30 OFFCURVE",
"462 10 OFFCURVE",
"486 32 CURVE",
"450 120 OFFCURVE",
"446 216 OFFCURVE",
"446 292 CURVE SMOOTH"
);
},
{
closed = 1;
nodes = (
"1236 1282 LINE SMOOTH",
"1236 1370 OFFCURVE",
"1166 1422 OFFCURVE",
"1076 1422 CURVE SMOOTH",
"998 1422 OFFCURVE",
"940 1384 OFFCURVE",
"916 1362 CURVE",
"950 1272 OFFCURVE",
"956 1178 OFFCURVE",
"956 1102 CURVE SMOOTH",
"956 112 LINE SMOOTH",
"956 24 OFFCURVE",
"1024 -30 OFFCURVE",
"1116 -30 CURVE SMOOTH",
"1194 -30 OFFCURVE",
"1252 10 OFFCURVE",
"1276 32 CURVE",
"1240 120 OFFCURVE",
"1236 216 OFFCURVE",
"1236 292 CURVE SMOOTH"
);
},
{
closed = 1;
nodes = (
"338 654 LINE",
"1040 654 LINE",
"1040 802 LINE",
"338 802 LINE"
);
}
);
width = 1402;
}
);
leftKerningGroup = H;
rightKerningGroup = H;
unicode = 0048;
},
{
glyphname = Hbar;
layers = (
{
components = (
{
name = H;
}
);
layerId = "60CFBDE8-BC08-4808-BF41-F011F3E03A54";
paths = (
{
closed = 1;
nodes = (
"104 1140 OFFCURVE",
"104 1122 OFFCURVE",
"112 1106 CURVE",
"1210 1106 LINE",
"1218 1122 OFFCURVE",
"1218 1140 OFFCURVE",
"1210 1156 CURVE",
"112 1156 LINE"
);
}
);
width = 1324;
},
{
components = (
{
name = H;
}
);
layerId = "EBFFFCD3-BAE4-48A5-9442-B72A90AD34A8";
paths = (
{
closed = 1;
nodes = (
"52 1098 OFFCURVE",
"52 1064 OFFCURVE",
"64 1030 CURVE",
"1322 1030 LINE",
"1334 1064 OFFCURVE",
"1334 1098 OFFCURVE",
"1322 1132 CURVE",
"64 1132 LINE"
);
}
);
width = 1402;
}
);
leftKerningGroup = H;
rightKerningGroup = H;
unicode = 0126;
},
{
glyphname = I;
layers = (
{
anchors = (
{
name = bottom;
position = "{246, 0}";
},
{
name = ogonek;
position = "{248, -2}";
},
{
name = top;
position = "{238, 1376}";
},
{
name = topleft;
position = "{40, 1376}";
}
);
layerId = "60CFBDE8-BC08-4808-BF41-F011F3E03A54";
paths = (
{
closed = 1;
nodes = (
"270 -16 OFFCURVE",
"280 -8 OFFCURVE",
"288 0 CURVE",
"280 32 OFFCURVE",
"276 94 OFFCURVE",
"276 174 CURVE SMOOTH",
"276 1346 LINE SMOOTH",
"276 1374 OFFCURVE",
"260 1390 OFFCURVE",
"238 1390 CURVE SMOOTH",
"220 1390 OFFCURVE",
"210 1382 OFFCURVE",
"202 1374 CURVE",
"210 1342 OFFCURVE",
"214 1280 OFFCURVE",
"214 1200 CURVE SMOOTH",
"218 28 LINE SMOOTH",
"218 0 OFFCURVE",
"230 -16 OFFCURVE",
"252 -16 CURVE SMOOTH"
);
}
);
width = 490;
},
{
anchors = (
{
name = bottom;
position = "{334, 0}";
},
{
name = ogonek;
position = "{346, -16}";
},
{
name = top;
position = "{278, 1396}";
},
{
name = topleft;
position = "{40, 1396}";
}
);
layerId = "EBFFFCD3-BAE4-48A5-9442-B72A90AD34A8";
paths = (
{
closed = 1;
nodes = (
"404 -30 OFFCURVE",
"462 10 OFFCURVE",
"486 32 CURVE",
"450 120 OFFCURVE",
"446 216 OFFCURVE",
"446 292 CURVE SMOOTH",
"446 1282 LINE SMOOTH",
"446 1370 OFFCURVE",
"376 1422 OFFCURVE",
"286 1422 CURVE SMOOTH",
"208 1422 OFFCURVE",
"150 1384 OFFCURVE",
"126 1362 CURVE",
"160 1272 OFFCURVE",
"166 1178 OFFCURVE",
"166 1102 CURVE SMOOTH",
"166 112 LINE SMOOTH",
"166 24 OFFCURVE",
"234 -30 OFFCURVE",
"326 -30 CURVE SMOOTH"
);
}
);
width = 612;
}
);
leftKerningGroup = H;
leftMetricsKey = H;
rightKerningGroup = H;
rightMetricsKey = H;
unicode = 0049;
},
{
glyphname = J;
layers = (
{
anchors = (
{
name = bottom;
position = "{424, 0}";
},
{
name = top;
position = "{424, 1376}";
}
);
layerId = "60CFBDE8-BC08-4808-BF41-F011F3E03A54";
paths = (
{
closed = 1;
nodes = (
"606 -24 OFFCURVE",
"634 182 OFFCURVE",
"634 322 CURVE SMOOTH",
"634 1262 LINE SMOOTH",
"634 1306 OFFCURVE",
"634 1352 OFFCURVE",
"640 1396 CURVE",
"610 1392 OFFCURVE",
"574 1386 OFFCURVE",
"516 1388 CURVE SMOOTH",
"446 1390 OFFCURVE",
"324 1400 OFFCURVE",
"290 1400 CURVE SMOOTH",
"208 1400 OFFCURVE",
"168 1344 OFFCURVE",
"168 1292 CURVE SMOOTH",
"168 1230 OFFCURVE",
"204 1188 OFFCURVE",
"242 1188 CURVE SMOOTH",
"250 1188 OFFCURVE",
"266 1188 OFFCURVE",
"278 1198 CURVE",
"244 1214 OFFCURVE",
"224 1236 OFFCURVE",
"224 1280 CURVE SMOOTH",
"224 1352 OFFCURVE",
"284 1358 OFFCURVE",
"326 1354 CURVE SMOOTH",
"426 1348 OFFCURVE",
"492 1342 OFFCURVE",
"574 1344 CURVE",
"574 1318 OFFCURVE",
"574 1292 OFFCURVE",
"574 1266 CURVE",
"574 328 LINE SMOOTH",
"574 144 OFFCURVE",
"530 32 OFFCURVE",
"344 32 CURVE SMOOTH",
"270 32 OFFCURVE",
"160 70 OFFCURVE",
"160 200 CURVE SMOOTH",
"160 214 OFFCURVE",
"160 228 OFFCURVE",
"164 244 CURVE",
"162 244 OFFCURVE",
"160 244 OFFCURVE",
"158 244 CURVE SMOOTH",
"120 244 OFFCURVE",
"106 208 OFFCURVE",
"106 180 CURVE SMOOTH",
"106 74 OFFCURVE",
"190 -24 OFFCURVE",
"348 -24 CURVE SMOOTH"
);
}
);
width = 838;
},
{
anchors = (
{
name = bottom;
position = "{504, 0}";
},
{
name = top;
position = "{504, 1396}";
}
);
layerId = "EBFFFCD3-BAE4-48A5-9442-B72A90AD34A8";
paths = (
{
closed = 1;
nodes = (
"736 -28 OFFCURVE",
"840 152 OFFCURVE",
"840 398 CURVE SMOOTH",
"840 1266 LINE SMOOTH",
"840 1354 OFFCURVE",
"846 1394 OFFCURVE",
"852 1424 CURVE",
"796 1418 OFFCURVE",
"720 1412 OFFCURVE",
"642 1412 CURVE SMOOTH",
"518 1414 OFFCURVE",
"422 1424 OFFCURVE",
"344 1424 CURVE SMOOTH",
"190 1424 OFFCURVE",
"108 1358 OFFCURVE",
"108 1250 CURVE SMOOTH",
"108 1140 OFFCURVE",
"192 1084 OFFCURVE",
"272 1084 CURVE SMOOTH",
"316 1084 OFFCURVE",
"356 1094 OFFCURVE",
"384 1116 CURVE",
"352 1136 OFFCURVE",
"320 1174 OFFCURVE",
"320 1236 CURVE SMOOTH",
"320 1300 OFFCURVE",
"372 1318 OFFCURVE",
"420 1318 CURVE SMOOTH",
"454 1316 OFFCURVE",
"536 1314 OFFCURVE",
"578 1312 CURVE",
"560 1284 OFFCURVE",
"560 1236 OFFCURVE",
"560 1182 CURVE",
"560 364 LINE SMOOTH",
"560 206 OFFCURVE",
"544 66 OFFCURVE",
"428 66 CURVE SMOOTH",
"362 66 OFFCURVE",
"318 130 OFFCURVE",
"318 198 CURVE SMOOTH",
"318 242 OFFCURVE",
"328 282 OFFCURVE",
"350 324 CURVE",
"326 366 OFFCURVE",
"290 384 OFFCURVE",
"232 384 CURVE SMOOTH",
"122 384 OFFCURVE",
"74 296 OFFCURVE",
"74 206 CURVE SMOOTH",
"74 90 OFFCURVE",
"164 -28 OFFCURVE",
"428 -28 CURVE SMOOTH"
);
}
);
width = 998;
}
);
leftKerningGroup = J;
rightKerningGroup = J;
unicode = 004A;
},
{
glyphname = K;
layers = (
{
anchors = (
{
name = bottom;
position = "{562, 0}";
},
{
name = top;
position = "{562, 1376}";
}
);
layerId = "60CFBDE8-BC08-4808-BF41-F011F3E03A54";
paths = (
{
closed = 1;
nodes = (
"1018 -16 OFFCURVE",
"1072 2 OFFCURVE",
"1072 44 CURVE SMOOTH",
"1072 54 OFFCURVE",
"1070 64 OFFCURVE",
"1062 74 CURVE",
"1044 44 OFFCURVE",
"1010 40 OFFCURVE",
"996 40 CURVE SMOOTH",
"966 40 OFFCURVE",
"940 58 OFFCURVE",
"920 122 CURVE SMOOTH",
"820 446 LINE SMOOTH",
"776 584 OFFCURVE",
"694 690 OFFCURVE",
"494 710 CURVE",
"482 688 LINE",
"788 774 OFFCURVE",
"904 1032 OFFCURVE",
"904 1242 CURVE SMOOTH",
"904 1354 OFFCURVE",
"874 1398 OFFCURVE",
"844 1398 CURVE SMOOTH",
"830 1398 OFFCURVE",
"816 1388 OFFCURVE",
"804 1374 CURVE",
"818 1352 OFFCURVE",
"840 1310 OFFCURVE",
"840 1228 CURVE SMOOTH",
"840 1006 OFFCURVE",
"664 722 OFFCURVE",
"342 722 CURVE SMOOTH",
"318 722 OFFCURVE",
"284 722 OFFCURVE",
"260 722 CURVE",
"262 670 LINE",
"342 670 LINE SMOOTH",
"662 670 OFFCURVE",
"710 566 OFFCURVE",
"758 442 CURVE SMOOTH",
"868 90 LINE SMOOTH",
"888 24 OFFCURVE",
"942 -16 OFFCURVE",
"988 -16 CURVE SMOOTH"
);
},
{
closed = 1;
nodes = (
"270 -16 OFFCURVE",
"280 -8 OFFCURVE",
"288 0 CURVE",
"280 32 OFFCURVE",
"276 94 OFFCURVE",
"276 174 CURVE",
"272 1346 LINE",
"272 1374 OFFCURVE",
"260 1390 OFFCURVE",
"238 1390 CURVE SMOOTH",
"220 1390 OFFCURVE",
"210 1382 OFFCURVE",
"202 1374 CURVE",
"210 1342 OFFCURVE",
"214 1280 OFFCURVE",
"214 1200 CURVE SMOOTH",
"218 28 LINE SMOOTH",
"218 0 OFFCURVE",
"230 -16 OFFCURVE",
"252 -16 CURVE SMOOTH"
);
}
);
width = 1108;
},
{
anchors = (
{
name = bottom;
position = "{670, 0}";
},
{
name = top;
position = "{624, 1396}";
}
);
layerId = "EBFFFCD3-BAE4-48A5-9442-B72A90AD34A8";
paths = (
{
closed = 1;
nodes = (
"1142 -32 OFFCURVE",
"1210 36 OFFCURVE",
"1210 120 CURVE SMOOTH",
"1210 142 OFFCURVE",
"1204 168 OFFCURVE",
"1194 196 CURVE",
"1176 184 OFFCURVE",
"1162 180 OFFCURVE",
"1146 182 CURVE SMOOTH",
"1100 186 OFFCURVE",
"1078 218 OFFCURVE",
"1030 312 CURVE SMOOTH",
"942 516 LINE SMOOTH",
"890 634 OFFCURVE",
"808 698 OFFCURVE",
"618 706 CURVE",
"614 684 LINE",
"950 794 OFFCURVE",
"1088 1018 OFFCURVE",
"1088 1210 CURVE SMOOTH",
"1088 1382 OFFCURVE",
"980 1412 OFFCURVE",
"896 1412 CURVE SMOOTH",
"852 1412 OFFCURVE",
"822 1404 OFFCURVE",
"782 1388 CURVE",
"796 1366 OFFCURVE",
"818 1310 OFFCURVE",
"818 1228 CURVE SMOOTH",
"818 1062 OFFCURVE",
"714 810 OFFCURVE",
"490 740 CURVE SMOOTH",
"468 732 OFFCURVE",
"442 726 OFFCURVE",
"416 722 CURVE",
"418 626 LINE",
"476 626 LINE SMOOTH",
"616 626 OFFCURVE",
"666 514 OFFCURVE",
"696 428 CURVE SMOOTH",
"750 264 LINE SMOOTH",
"798 136 OFFCURVE",
"860 -32 OFFCURVE",
"1032 -32 CURVE SMOOTH"
);
},
{
closed = 1;
nodes = (
"404 -30 OFFCURVE",
"462 10 OFFCURVE",
"486 32 CURVE",
"450 120 OFFCURVE",
"446 216 OFFCURVE",
"446 292 CURVE",
"444 1282 LINE",
"444 1370 OFFCURVE",
"376 1422 OFFCURVE",
"286 1422 CURVE SMOOTH",
"208 1422 OFFCURVE",
"150 1384 OFFCURVE",
"126 1362 CURVE",
"160 1272 OFFCURVE",
"166 1178 OFFCURVE",
"166 1102 CURVE SMOOTH",
"166 112 LINE SMOOTH",
"166 24 OFFCURVE",
"234 -30 OFFCURVE",
"326 -30 CURVE SMOOTH"
);
}
);
width = 1242;
}
);
leftKerningGroup = H;
leftMetricsKey = H;
rightKerningGroup = K;
unicode = 004B;
},
{
glyphname = L;
layers = (
{
anchors = (
{
name = bottom;
position = "{522, 0}";
},
{
name = center;
position = "{456, 688}";
},
{
name = top;
position = "{272, 1374}";
},
{
name = topright;
position = "{872, 1376}";
}
);
layerId = "60CFBDE8-BC08-4808-BF41-F011F3E03A54";
paths = (
{
closed = 1;
nodes = (
"272 1374 OFFCURVE",
"260 1390 OFFCURVE",
"238 1390 CURVE SMOOTH",
"220 1390 OFFCURVE",
"210 1382 OFFCURVE",
"202 1374 CURVE",
"210 1342 OFFCURVE",
"214 1280 OFFCURVE",
"214 1200 CURVE SMOOTH",
"218 44 LINE SMOOTH",
"218 16 OFFCURVE",
"230 0 OFFCURVE",
"252 0 CURVE SMOOTH",
"826 0 LINE",
"850 0 OFFCURVE",
"846 44 OFFCURVE",
"826 52 CURVE",
"642 52 OFFCURVE",
"460 50 OFFCURVE",
"276 50 CURVE",
"272 1346 LINE SMOOTH"
);
}
);
width = 912;
},
{
anchors = (
{
name = bottom;
position = "{564, 0}";
},
{
name = center;
position = "{508, 698}";
},
{
name = top;
position = "{330, 1396}";
},
{
name = topright;
position = "{594, 1396}";
}
);
layerId = "EBFFFCD3-BAE4-48A5-9442-B72A90AD34A8";
paths = (
{
closed = 1;
nodes = (
"444 1370 OFFCURVE",
"376 1422 OFFCURVE",
"286 1422 CURVE SMOOTH",
"208 1422 OFFCURVE",
"150 1384 OFFCURVE",
"126 1362 CURVE",
"160 1272 OFFCURVE",
"166 1178 OFFCURVE",
"166 1102 CURVE SMOOTH",
"166 142 LINE SMOOTH",
"166 52 OFFCURVE",
"234 0 OFFCURVE",
"326 0 CURVE SMOOTH",
"918 0 LINE",
"1008 0 OFFCURVE",
"1004 220 OFFCURVE",
"934 266 CURVE",
"832 206 OFFCURVE",
"620 152 OFFCURVE",
"446 148 CURVE",
"444 1282 LINE SMOOTH"
);
}
);
width = 1016;
}
);
leftKerningGroup = H;
leftMetricsKey = H;
rightKerningGroup = L;
unicode = 004C;
},
{
glyphname = Lslash;
layers = (
{
components = (
{
name = L;
}
);
layerId = "60CFBDE8-BC08-4808-BF41-F011F3E03A54";
paths = (
{
closed = 1;
nodes = (
"78 352 OFFCURVE",
"90 342 OFFCURVE",
"110 338 CURVE",
"554 778 LINE",
"548 796 OFFCURVE",
"536 808 OFFCURVE",
"518 814 CURVE",
"74 372 LINE"
);
}
);
width = 912;
},
{
components = (
{
name = L;
}
);
layerId = "EBFFFCD3-BAE4-48A5-9442-B72A90AD34A8";
paths = (
{
closed = 1;
nodes = (
"10 292 OFFCURVE",
"34 266 OFFCURVE",
"68 258 CURVE",
"708 900 LINE",
"700 936 OFFCURVE",
"674 962 OFFCURVE",
"636 972 CURVE",
"-2 330 LINE"
);
}
);
width = 1016;
}
);
leftKerningGroup = H;
rightKerningGroup = L;
unicode = 0141;
},
{
glyphname = M;
layers = (
{
anchors = (
{
name = bottom;
position = "{850, 0}";
},
{
name = top;
position = "{850, 1376}";
}
);
layerId = "60CFBDE8-BC08-4808-BF41-F011F3E03A54";
paths = (
{
closed = 1;
nodes = (
"1482 1346 LINE",
"1482 1374 OFFCURVE",
"1470 1390 OFFCURVE",
"1448 1390 CURVE SMOOTH",
"1438 1390 OFFCURVE",
"1426 1388 OFFCURVE",
"1418 1382 CURVE",
"1230 1030 OFFCURVE",
"1040 664 OFFCURVE",
"852 312 CURVE",
"868 322 LINE",
"668 672 OFFCURVE",
"464 1022 OFFCURVE",
"264 1372 CURVE",
"258 1384 OFFCURVE",
"248 1390 OFFCURVE",
"234 1390 CURVE SMOOTH",
"218 1390 OFFCURVE",
"210 1382 OFFCURVE",
"202 1374 CURVE",
"210 1342 OFFCURVE",
"214 1280 OFFCURVE",
"214 1200 CURVE SMOOTH",
"218 28 LINE SMOOTH",
"218 0 OFFCURVE",
"228 -16 OFFCURVE",
"248 -16 CURVE SMOOTH",
"266 -16 OFFCURVE",
"276 -8 OFFCURVE",
"284 0 CURVE",
"276 32 OFFCURVE",
"272 94 OFFCURVE",
"272 174 CURVE",
"268 1270 LINE",
"260 1258 LINE",
"450 932 OFFCURVE",
"640 598 OFFCURVE",
"830 272 CURVE",
"850 258 OFFCURVE",
"872 258 OFFCURVE",
"892 272 CURVE",
"1436 1290 LINE",
"1424 1294 LINE",
"1428 28 LINE SMOOTH",
"1428 0 OFFCURVE",
"1440 -16 OFFCURVE",
"1462 -16 CURVE SMOOTH",
"1480 -16 OFFCURVE",
"1490 -8 OFFCURVE",
"1498 0 CURVE",
"1490 32 OFFCURVE",
"1486 94 OFFCURVE",
"1486 174 CURVE SMOOTH"
);
}
);
width = 1700;
},
{
anchors = (
{
name = bottom;
position = "{852, 0}";
},
{
name = top;
position = "{852, 1396}";
}
);
layerId = "EBFFFCD3-BAE4-48A5-9442-B72A90AD34A8";
paths = (
{
closed = 1;
nodes = (
"1536 1366 LINE",
"1526 1394 OFFCURVE",
"1446 1422 OFFCURVE",
"1362 1422 CURVE SMOOTH",
"1324 1422 OFFCURVE",
"1252 1420 OFFCURVE",
"1184 1396 CURVE",
"1096 1108 OFFCURVE",
"934 638 OFFCURVE",
"830 336 CURVE",
"872 330 LINE",
"746 660 OFFCURVE",
"618 1016 OFFCURVE",
"488 1372 CURVE",
"454 1406 OFFCURVE",
"412 1422 OFFCURVE",
"342 1422 CURVE SMOOTH",
"232 1422 OFFCURVE",
"172 1410 OFFCURVE",
"148 1388 CURVE",
"160 1306 OFFCURVE",
"162 1228 OFFCURVE",
"162 1108 CURVE SMOOTH",
"162 80 LINE SMOOTH",
"162 14 OFFCURVE",
"186 -30 OFFCURVE",
"254 -30 CURVE SMOOTH",
"290 -30 OFFCURVE",
"328 -18 OFFCURVE",
"352 4 CURVE",
"318 94 OFFCURVE",
"312 216 OFFCURVE",
"312 290 CURVE",
"310 1146 LINE",
"276 1202 LINE",
"382 850 OFFCURVE",
"540 440 OFFCURVE",
"678 146 CURVE",
"756 116 OFFCURVE",
"832 122 OFFCURVE",
"934 156 CURVE",
"1306 1202 LINE",
"1264 1104 LINE",
"1266 112 LINE SMOOTH",
"1266 24 OFFCURVE",
"1330 -30 OFFCURVE",
"1416 -30 CURVE SMOOTH",
"1494 -30 OFFCURVE",
"1552 10 OFFCURVE",
"1576 32 CURVE",
"1542 120 OFFCURVE",
"1536 216 OFFCURVE",
"1536 292 CURVE SMOOTH"
);
}
);
width = 1702;
}
);
leftKerningGroup = H;
rightKerningGroup = H;
rightMetricsKey = H;
unicode = 004D;
},
{
glyphname = N;
layers = (
{
anchors = (
{
name = bottom;
position = "{668, 0}";
},
{
name = top;
position = "{664, 1376}";
}
);
layerId = "60CFBDE8-BC08-4808-BF41-F011F3E03A54";
paths = (
{
closed = 1;
nodes = (
"264 -16 OFFCURVE",
"276 0 OFFCURVE",
"276 28 CURVE SMOOTH",
"272 1258 LINE",
"486 920 OFFCURVE",
"946 180 OFFCURVE",
"1084 -10 CURVE",
"1096 -14 OFFCURVE",
"1122 -12 OFFCURVE",
"1132 0 CURVE",
"1128 32 OFFCURVE",
"1128 94 OFFCURVE",
"1128 174 CURVE SMOOTH",
"1124 1346 LINE SMOOTH",
"1124 1374 OFFCURVE",
"1112 1390 OFFCURVE",
"1090 1390 CURVE SMOOTH",
"1072 1390 OFFCURVE",
"1062 1382 OFFCURVE",
"1054 1374 CURVE",
"1062 1342 OFFCURVE",
"1066 1280 OFFCURVE",
"1066 1200 CURVE SMOOTH",
"1070 106 LINE",
"846 442 OFFCURVE",
"456 1094 OFFCURVE",
"266 1376 CURVE",
"260 1382 OFFCURVE",
"226 1392 OFFCURVE",
"202 1374 CURVE",
"210 1342 OFFCURVE",
"214 1260 OFFCURVE",
"214 1180 CURVE SMOOTH",
"218 174 LINE SMOOTH",
"218 94 OFFCURVE",
"214 32 OFFCURVE",
"206 0 CURVE",
"214 -8 OFFCURVE",
"224 -16 OFFCURVE",
"242 -16 CURVE SMOOTH"
);
}
);
width = 1334;
},
{
anchors = (
{
name = bottom;
position = "{704, 0}";
},
{
name = top;
position = "{704, 1396}";
}
);
layerId = "EBFFFCD3-BAE4-48A5-9442-B72A90AD34A8";
paths = (
{
closed = 1;
nodes = (
"308 -30 OFFCURVE",
"386 34 OFFCURVE",
"378 130 CURVE SMOOTH",
"318 994 LINE",
"416 802 OFFCURVE",
"592 534 OFFCURVE",
"1064 -16 CURVE",
"1110 -40 OFFCURVE",
"1224 -26 OFFCURVE",
"1252 6 CURVE",
"1240 88 OFFCURVE",
"1238 166 OFFCURVE",
"1238 286 CURVE SMOOTH",
"1240 1128 LINE SMOOTH",
"1240 1192 OFFCURVE",
"1242 1306 OFFCURVE",
"1272 1390 CURVE SMOOTH",
"1240 1412 OFFCURVE",
"1196 1422 OFFCURVE",
"1158 1420 CURVE",
"1062 1414 OFFCURVE",
"1016 1342 OFFCURVE",
"1026 1238 CURVE SMOOTH",
"1098 358 LINE",
"1008 568 OFFCURVE",
"586 1066 OFFCURVE",
"344 1408 CURVE",
"320 1432 OFFCURVE",
"182 1424 OFFCURVE",
"152 1388 CURVE",
"162 1306 OFFCURVE",
"166 1224 OFFCURVE",
"166 1104 CURVE SMOOTH",
"166 292 LINE SMOOTH",
"166 218 OFFCURVE",
"160 96 OFFCURVE",
"126 6 CURVE",
"158 -16 OFFCURVE",
"200 -30 OFFCURVE",
"240 -30 CURVE SMOOTH"
);
}
);
width = 1398;
}
);
leftKerningGroup = H;
leftMetricsKey = H;
rightKerningGroup = H;
rightMetricsKey = H;
unicode = 004E;
},
{
glyphname = O;
layers = (
{
anchors = (
{
name = bottom;
position = "{638, 0}";
},
{
name = center;
position = "{638, 688}";
},
{
name = ogonek;
position = "{1132, 20}";
},
{
name = top;
position = "{638, 1376}";
},
{
name = topleft;
position = "{60, 1376}";
},
{
name = topright;
position = "{1026, 1246}";
}
);
layerId = "60CFBDE8-BC08-4808-BF41-F011F3E03A54";
paths = (
{
closed = 1;
nodes = (
"952 -24 OFFCURVE",
"1136 200 OFFCURVE",
"1136 688 CURVE SMOOTH",
"1136 1176 OFFCURVE",
"952 1400 OFFCURVE",
"638 1400 CURVE SMOOTH",
"324 1400 OFFCURVE",
"140 1176 OFFCURVE",
"140 688 CURVE SMOOTH",
"140 200 OFFCURVE",
"324 -24 OFFCURVE",
"638 -24 CURVE SMOOTH"
);
},
{
closed = 1;
nodes = (
"366 32 OFFCURVE",
"204 236 OFFCURVE",
"204 688 CURVE SMOOTH",
"204 1140 OFFCURVE",
"366 1344 OFFCURVE",
"638 1344 CURVE SMOOTH",
"910 1344 OFFCURVE",
"1072 1140 OFFCURVE",
"1072 688 CURVE SMOOTH",
"1072 236 OFFCURVE",
"910 32 OFFCURVE",
"638 32 CURVE SMOOTH"
);
}
);
width = 1276;
},
{
anchors = (
{
name = bottom;
position = "{666, 0}";
},
{
name = center;
position = "{666, 698}";
},
{
name = ogonek;
position = "{1196, 20}";
},
{
name = top;
position = "{666, 1396}";
},
{
name = topleft;
position = "{44, 1396}";
},
{
name = topright;
position = "{1022, 1306}";
}
);
layerId = "EBFFFCD3-BAE4-48A5-9442-B72A90AD34A8";
paths = (
{
closed = 1;
nodes = (
"1042 -28 OFFCURVE",
"1238 216 OFFCURVE",
"1238 698 CURVE SMOOTH",
"1238 1180 OFFCURVE",
"1042 1424 OFFCURVE",
"666 1424 CURVE SMOOTH",
"290 1424 OFFCURVE",
"94 1180 OFFCURVE",
"94 698 CURVE SMOOTH",
"94 216 OFFCURVE",
"290 -28 OFFCURVE",
"666 -28 CURVE SMOOTH"
);
},
{
closed = 1;
nodes = (
"482 66 OFFCURVE",
"402 256 OFFCURVE",
"402 698 CURVE SMOOTH",
"402 1140 OFFCURVE",
"482 1330 OFFCURVE",
"666 1330 CURVE SMOOTH",
"852 1330 OFFCURVE",
"930 1140 OFFCURVE",
"930 698 CURVE SMOOTH",
"930 256 OFFCURVE",
"852 66 OFFCURVE",
"666 66 CURVE SMOOTH"
);
}
);
width = 1332;
}
);
leftKerningGroup = O;
rightKerningGroup = O;
unicode = 004F;
},
{
glyphname = Ohorn;
layers = (
{
anchors = (
{
name = bottom;
position = "{600, 0}";
},
{
name = center;
position = "{638, 688}";
},
{
name = ogonek;
position = "{1132, 20}";
},
{
name = top;
position = "{600, 1376}";
},
{
name = topleft;
position = "{60, 1376}";
},
{
name = topright;
position = "{1024, 1246}";
}
);
layerId = "60CFBDE8-BC08-4808-BF41-F011F3E03A54";
paths = (
{
closed = 1;
nodes = (
"952 -24 OFFCURVE",
"1136 200 OFFCURVE",
"1136 688 CURVE SMOOTH",
"1136 1176 OFFCURVE",
"952 1400 OFFCURVE",
"638 1400 CURVE SMOOTH",
"324 1400 OFFCURVE",
"140 1176 OFFCURVE",
"140 688 CURVE SMOOTH",
"140 200 OFFCURVE",
"324 -24 OFFCURVE",
"638 -24 CURVE SMOOTH"
);
},
{
closed = 1;
nodes = (
"366 32 OFFCURVE",
"204 236 OFFCURVE",
"204 688 CURVE SMOOTH",
"204 1140 OFFCURVE",
"366 1344 OFFCURVE",
"638 1344 CURVE SMOOTH",
"910 1344 OFFCURVE",
"1072 1140 OFFCURVE",
"1072 688 CURVE SMOOTH",
"1072 236 OFFCURVE",
"910 32 OFFCURVE",
"638 32 CURVE SMOOTH"
);
},
{
closed = 1;
nodes = (
"1090 1236 OFFCURVE",
"1148 1286 OFFCURVE",
"1148 1372 CURVE SMOOTH",
"1148 1406 OFFCURVE",
"1136 1456 OFFCURVE",
"1102 1492 CURVE",
"1076 1482 OFFCURVE",
"1052 1464 OFFCURVE",
"1036 1450 CURVE",
"1068 1412 OFFCURVE",
"1072 1378 OFFCURVE",
"1072 1360 CURVE SMOOTH",
"1072 1310 OFFCURVE",
"1042 1278 OFFCURVE",
"970 1252 CURVE",
"988 1206 LINE"
);
}
);
width = 1276;
},
{
anchors = (
{
name = bottom;
position = "{656, 0}";
},
{
name = center;
position = "{666, 698}";
},
{
name = ogonek;
position = "{1196, 20}";
},
{
name = top;
position = "{662, 1396}";
},
{
name = topleft;
position = "{44, 1396}";
},
{
name = topright;
position = "{1032, 1306}";
}
);
layerId = "EBFFFCD3-BAE4-48A5-9442-B72A90AD34A8";
paths = (
{
closed = 1;
nodes = (
"1042 -28 OFFCURVE",
"1238 216 OFFCURVE",
"1238 698 CURVE SMOOTH",
"1238 1180 OFFCURVE",
"1042 1424 OFFCURVE",
"666 1424 CURVE SMOOTH",
"290 1424 OFFCURVE",
"94 1180 OFFCURVE",
"94 698 CURVE SMOOTH",
"94 216 OFFCURVE",
"290 -28 OFFCURVE",
"666 -28 CURVE SMOOTH"
);
},
{
closed = 1;
nodes = (
"482 66 OFFCURVE",
"402 256 OFFCURVE",
"402 698 CURVE SMOOTH",
"402 1140 OFFCURVE",
"482 1330 OFFCURVE",
"666 1330 CURVE SMOOTH",
"852 1330 OFFCURVE",
"930 1140 OFFCURVE",
"930 698 CURVE SMOOTH",
"930 256 OFFCURVE",
"852 66 OFFCURVE",
"666 66 CURVE SMOOTH"
);
},
{
closed = 1;
nodes = (
"1134 1290 OFFCURVE",
"1264 1374 OFFCURVE",
"1264 1484 CURVE SMOOTH",
"1264 1552 OFFCURVE",
"1232 1624 OFFCURVE",
"1208 1650 CURVE",
"1158 1644 OFFCURVE",
"1060 1600 OFFCURVE",
"1024 1574 CURVE",
"1046 1550 OFFCURVE",
"1070 1504 OFFCURVE",
"1070 1458 CURVE SMOOTH",
"1070 1408 OFFCURVE",
"1044 1358 OFFCURVE",
"954 1326 CURVE",
"988 1240 LINE"
);
}
);
width = 1332;
}
);
leftKerningGroup = O;
rightKerningGroup = O;
unicode = 01A0;
},
{
glyphname = Oslash;
layers = (
{
anchors = (
{
name = bottom;
position = "{618, 0}";
},
{
name = center;
position = "{638, 688}";
},
{
name = ogonek;
position = "{1132, 20}";
},
{
name = top;
position = "{618, 1376}";
},
{
name = topleft;
position = "{60, 1376}";
},
{
name = topright;
position = "{1026, 1246}";
}
);
layerId = "60CFBDE8-BC08-4808-BF41-F011F3E03A54";
paths = (
{
closed = 1;
nodes = (
"184 -18 OFFCURVE",
"200 -26 OFFCURVE",
"220 -26 CURVE",
"1034 1376 LINE",
"1026 1392 OFFCURVE",
"1012 1402 OFFCURVE",
"992 1402 CURVE",
"176 -2 LINE"
);
},
{
closed = 1;
nodes = (
"952 -24 OFFCURVE",
"1136 200 OFFCURVE",
"1136 688 CURVE SMOOTH",
"1136 1176 OFFCURVE",
"952 1400 OFFCURVE",
"638 1400 CURVE SMOOTH",
"324 1400 OFFCURVE",
"140 1176 OFFCURVE",
"140 688 CURVE SMOOTH",
"140 200 OFFCURVE",
"324 -24 OFFCURVE",
"638 -24 CURVE SMOOTH"
);
},
{
closed = 1;
nodes = (
"366 32 OFFCURVE",
"204 236 OFFCURVE",
"204 688 CURVE SMOOTH",
"204 1140 OFFCURVE",
"366 1344 OFFCURVE",
"638 1344 CURVE SMOOTH",
"910 1344 OFFCURVE",
"1072 1140 OFFCURVE",
"1072 688 CURVE SMOOTH",
"1072 236 OFFCURVE",
"910 32 OFFCURVE",
"638 32 CURVE SMOOTH"
);
}
);
width = 1236;
},
{
anchors = (
{
name = bottom;
position = "{662, 0}";
},
{
name = center;
position = "{666, 698}";
},
{
name = ogonek;
position = "{1196, 20}";
},
{
name = top;
position = "{662, 1396}";
},
{
name = topleft;
position = "{44, 1396}";
},
{
name = topright;
position = "{1022, 1306}";
}
);
layerId = "EBFFFCD3-BAE4-48A5-9442-B72A90AD34A8";
paths = (
{
closed = 1;
nodes = (
"184 -14 OFFCURVE",
"212 -30 OFFCURVE",
"250 -30 CURVE",
"1116 1412 LINE",
"1098 1446 OFFCURVE",
"1070 1464 OFFCURVE",
"1030 1462 CURVE",
"164 20 LINE"
);
},
{
closed = 1;
nodes = (
"1042 -28 OFFCURVE",
"1238 216 OFFCURVE",
"1238 698 CURVE SMOOTH",
"1238 1180 OFFCURVE",
"1042 1424 OFFCURVE",
"666 1424 CURVE SMOOTH",
"290 1424 OFFCURVE",
"94 1180 OFFCURVE",
"94 698 CURVE SMOOTH",
"94 216 OFFCURVE",
"290 -28 OFFCURVE",
"666 -28 CURVE SMOOTH"
);
},
{
closed = 1;
nodes = (
"482 66 OFFCURVE",
"402 256 OFFCURVE",
"402 698 CURVE SMOOTH",
"402 1140 OFFCURVE",
"482 1330 OFFCURVE",
"666 1330 CURVE SMOOTH",
"852 1330 OFFCURVE",
"930 1140 OFFCURVE",
"930 698 CURVE SMOOTH",
"930 256 OFFCURVE",
"852 66 OFFCURVE",
"666 66 CURVE SMOOTH"
);
}
);
width = 1324;
}
);
leftKerningGroup = O;
rightKerningGroup = O;
unicode = 00D8;
},
{
glyphname = OE;
layers = (
{
anchors = (
{
name = top;
position = "{870, 1376}";
}
);
layerId = "60CFBDE8-BC08-4808-BF41-F011F3E03A54";
paths = (
{
closed = 1;
nodes = (
"942 170 LINE",
"868 76 OFFCURVE",
"766 32 OFFCURVE",
"638 32 CURVE SMOOTH",
"366 32 OFFCURVE",
"204 236 OFFCURVE",
"204 688 CURVE SMOOTH",
"204 1140 OFFCURVE",
"366 1344 OFFCURVE",
"638 1344 CURVE SMOOTH",
"760 1344 OFFCURVE",
"860 1302 OFFCURVE",
"934 1216 CURVE",
"940 1298 LINE",
"862 1366 OFFCURVE",
"760 1400 OFFCURVE",
"638 1400 CURVE SMOOTH",
"324 1400 OFFCURVE",
"140 1176 OFFCURVE",
"140 688 CURVE SMOOTH",
"140 200 OFFCURVE",
"324 -24 OFFCURVE",
"638 -24 CURVE SMOOTH",
"764 -24 OFFCURVE",
"870 12 OFFCURVE",
"950 88 CURVE"
);
},
{
closed = 1;
nodes = (
"1578 0 LINE",
"1602 0 OFFCURVE",
"1598 44 OFFCURVE",
"1578 52 CURVE",
"1374 52 OFFCURVE",
"1172 50 OFFCURVE",
"968 50 CURVE",
"964 1324 LINE",
"1168 1324 OFFCURVE",
"1348 1324 OFFCURVE",
"1552 1324 CURVE",
"1574 1330 OFFCURVE",
"1586 1376 OFFCURVE",
"1558 1376 CURVE",
"930 1376 LINE SMOOTH",
"912 1376 OFFCURVE",
"902 1370 OFFCURVE",
"894 1360 CURVE",
"902 1328 OFFCURVE",
"906 1280 OFFCURVE",
"906 1200 CURVE SMOOTH",
"910 44 LINE SMOOTH",
"910 16 OFFCURVE",
"922 0 OFFCURVE",
"944 0 CURVE SMOOTH"
);
},
{
closed = 1;
nodes = (
"1514 708 LINE",
"1520 726 OFFCURVE",
"1520 742 OFFCURVE",
"1514 760 CURVE",
"954 760 LINE",
"954 708 LINE"
);
}
);
width = 1738;
},
{
anchors = (
{
name = top;
position = "{918, 1396}";
}
);
layerId = "EBFFFCD3-BAE4-48A5-9442-B72A90AD34A8";
paths = (
{
closed = 1;
nodes = (
"934 558 LINE",
"918 202 OFFCURVE",
"822 66 OFFCURVE",
"666 66 CURVE SMOOTH",
"482 66 OFFCURVE",
"402 256 OFFCURVE",
"402 698 CURVE SMOOTH",
"402 1140 OFFCURVE",
"482 1330 OFFCURVE",
"666 1330 CURVE SMOOTH",
"818 1330 OFFCURVE",
"890 1236 OFFCURVE",
"906 922 CURVE",
"1090 912 LINE",
"1044 1238 OFFCURVE",
"972 1424 OFFCURVE",
"666 1424 CURVE SMOOTH",
"290 1424 OFFCURVE",
"94 1180 OFFCURVE",
"94 698 CURVE SMOOTH",
"94 216 OFFCURVE",
"290 -28 OFFCURVE",
"666 -28 CURVE SMOOTH",
"984 -28 OFFCURVE",
"1052 212 OFFCURVE",
"1092 560 CURVE"
);
},
{
closed = 1;
nodes = (
"1696 0 LINE",
"1786 0 OFFCURVE",
"1782 206 OFFCURVE",
"1712 250 CURVE",
"1606 196 OFFCURVE",
"1356 138 OFFCURVE",
"1180 132 CURVE",
"1178 1264 LINE",
"1352 1258 OFFCURVE",
"1524 1216 OFFCURVE",
"1662 1152 CURVE",
"1736 1186 OFFCURVE",
"1768 1396 OFFCURVE",
"1692 1396 CURVE",
"1114 1396 LINE SMOOTH",
"988 1396 OFFCURVE",
"930 1386 OFFCURVE",
"860 1326 CURVE",
"894 1236 OFFCURVE",
"900 1144 OFFCURVE",
"900 1066 CURVE SMOOTH",
"900 142 LINE SMOOTH",
"900 52 OFFCURVE",
"968 0 OFFCURVE",
"1060 0 CURVE SMOOTH"
);
},
{
closed = 1;
nodes = (
"1602 648 LINE",
"1612 690 OFFCURVE",
"1616 746 OFFCURVE",
"1602 796 CURVE",
"1128 796 LINE",
"1128 648 LINE"
);
}
);
width = 1842;
}
);
leftKerningGroup = O;
leftMetricsKey = O;
rightKerningGroup = E;
rightMetricsKey = E;
unicode = 0152;
},
{
glyphname = P;
layers = (
{
anchors = (
{
name = bottom;
position = "{534, 0}";
},
{
name = top;
position = "{534, 1376}";
}
);
layerId = "60CFBDE8-BC08-4808-BF41-F011F3E03A54";
paths = (
{
closed = 1;
nodes = (
"272 -16 OFFCURVE",
"282 -8 OFFCURVE",
"290 0 CURVE",
"280 34 OFFCURVE",
"276 156 OFFCURVE",
"276 174 CURVE SMOOTH",
"276 1340 LINE",
"296 1346 OFFCURVE",
"338 1348 OFFCURVE",
"388 1348 CURVE SMOOTH",
"734 1348 OFFCURVE",
"884 1248 OFFCURVE",
"884 996 CURVE SMOOTH",
"884 728 OFFCURVE",
"712 614 OFFCURVE",
"360 614 CURVE SMOOTH",
"282 614 OFFCURVE",
"258 614 OFFCURVE",
"232 618 CURVE",
"246 566 LINE",
"274 564 OFFCURVE",
"300 564 OFFCURVE",
"338 564 CURVE SMOOTH",
"752 564 OFFCURVE",
"948 696 OFFCURVE",
"948 998 CURVE SMOOTH",
"948 1264 OFFCURVE",
"794 1400 OFFCURVE",
"406 1400 CURVE SMOOTH",
"250 1400 OFFCURVE",
"208 1378 OFFCURVE",
"202 1374 CURVE",
"212 1340 OFFCURVE",
"216 1218 OFFCURVE",
"216 1200 CURVE SMOOTH",
"216 28 LINE SMOOTH",
"218 0 OFFCURVE",
"230 -16 OFFCURVE",
"254 -16 CURVE SMOOTH"
);
}
);
width = 1070;
},
{
anchors = (
{
name = bottom;
position = "{586, 0}";
},
{
name = top;
position = "{586, 1396}";
}
);
layerId = "EBFFFCD3-BAE4-48A5-9442-B72A90AD34A8";
paths = (
{
closed = 1;
nodes = (
"404 -30 OFFCURVE",
"462 10 OFFCURVE",
"486 32 CURVE",
"450 114 OFFCURVE",
"446 210 OFFCURVE",
"446 276 CURVE SMOOTH",
"446 1326 LINE",
"462 1328 OFFCURVE",
"482 1328 OFFCURVE",
"504 1328 CURVE SMOOTH",
"728 1328 OFFCURVE",
"802 1188 OFFCURVE",
"802 990 CURVE SMOOTH",
"802 782 OFFCURVE",
"724 634 OFFCURVE",
"478 634 CURVE SMOOTH",
"446 634 OFFCURVE",
"422 634 OFFCURVE",
"396 638 CURVE",
"410 542 LINE",
"438 540 OFFCURVE",
"464 540 OFFCURVE",
"492 540 CURVE SMOOTH",
"886 540 OFFCURVE",
"1108 710 OFFCURVE",
"1108 1010 CURVE SMOOTH",
"1108 1306 OFFCURVE",
"888 1424 OFFCURVE",
"498 1424 CURVE SMOOTH",
"332 1424 OFFCURVE",
"210 1402 OFFCURVE",
"126 1362 CURVE",
"160 1272 OFFCURVE",
"166 1166 OFFCURVE",
"166 1102 CURVE SMOOTH",
"166 112 LINE SMOOTH",
"166 24 OFFCURVE",
"234 -30 OFFCURVE",
"326 -30 CURVE SMOOTH"
);
}
);
width = 1172;
}
);
leftKerningGroup = H;
leftMetricsKey = H;
unicode = 0050;
},
{
glyphname = Thorn;
layers = (
{
anchors = (
{
name = bottom;
position = "{600, 0}";
},
{
name = top;
position = "{600, 1376}";
}
);
layerId = "60CFBDE8-BC08-4808-BF41-F011F3E03A54";
paths = (
{
closed = 1;
nodes = (
"752 304 OFFCURVE",
"948 436 OFFCURVE",
"948 738 CURVE SMOOTH",
"948 1004 OFFCURVE",
"794 1140 OFFCURVE",
"406 1140 CURVE SMOOTH",
"366 1140 OFFCURVE",
"274 1138 OFFCURVE",
"246 1136 CURVE",
"244 1084 LINE",
"266 1088 OFFCURVE",
"356 1088 OFFCURVE",
"388 1088 CURVE SMOOTH",
"734 1088 OFFCURVE",
"884 988 OFFCURVE",
"884 736 CURVE SMOOTH",
"884 468 OFFCURVE",
"712 354 OFFCURVE",
"360 354 CURVE SMOOTH",
"282 354 OFFCURVE",
"258 354 OFFCURVE",
"232 358 CURVE",
"246 306 LINE",
"274 304 OFFCURVE",
"300 304 OFFCURVE",
"338 304 CURVE SMOOTH"
);
},
{
closed = 1;
nodes = (
"270 -16 OFFCURVE",
"280 -8 OFFCURVE",
"288 0 CURVE",
"280 32 OFFCURVE",
"276 94 OFFCURVE",
"276 174 CURVE SMOOTH",
"272 1346 LINE SMOOTH",
"272 1374 OFFCURVE",
"260 1390 OFFCURVE",
"238 1390 CURVE SMOOTH",
"220 1390 OFFCURVE",
"210 1382 OFFCURVE",
"202 1374 CURVE",
"210 1342 OFFCURVE",
"214 1280 OFFCURVE",
"214 1200 CURVE SMOOTH",
"218 28 LINE SMOOTH",
"218 0 OFFCURVE",
"230 -16 OFFCURVE",
"252 -16 CURVE SMOOTH"
);
}
);
width = 1068;
},
{
anchors = (
{
name = bottom;
position = "{600, 0}";
},
{
name = top;
position = "{600, 1396}";
}
);
layerId = "EBFFFCD3-BAE4-48A5-9442-B72A90AD34A8";
paths = (
{
closed = 1;
nodes = (
"884 280 OFFCURVE",
"1106 450 OFFCURVE",
"1106 750 CURVE SMOOTH",
"1106 1046 OFFCURVE",
"886 1164 OFFCURVE",
"498 1164 CURVE SMOOTH",
"476 1164 OFFCURVE",
"408 1164 OFFCURVE",
"388 1164 CURVE",
"388 1070 LINE",
"406 1072 OFFCURVE",
"486 1068 OFFCURVE",
"504 1068 CURVE SMOOTH",
"726 1068 OFFCURVE",
"800 928 OFFCURVE",
"800 730 CURVE SMOOTH",
"800 522 OFFCURVE",
"724 374 OFFCURVE",
"478 374 CURVE SMOOTH",
"446 374 OFFCURVE",
"422 374 OFFCURVE",
"396 378 CURVE",
"410 282 LINE",
"438 280 OFFCURVE",
"464 280 OFFCURVE",
"492 280 CURVE SMOOTH"
);
},
{
closed = 1;
nodes = (
"404 -30 OFFCURVE",
"462 10 OFFCURVE",
"486 32 CURVE",
"450 120 OFFCURVE",
"446 216 OFFCURVE",
"446 292 CURVE SMOOTH",
"444 1282 LINE SMOOTH",
"444 1370 OFFCURVE",
"376 1422 OFFCURVE",
"286 1422 CURVE SMOOTH",
"208 1422 OFFCURVE",
"150 1384 OFFCURVE",
"126 1362 CURVE",
"160 1272 OFFCURVE",
"166 1178 OFFCURVE",
"166 1102 CURVE SMOOTH",
"166 112 LINE SMOOTH",
"166 24 OFFCURVE",
"234 -30 OFFCURVE",
"326 -30 CURVE SMOOTH"
);
}
);
width = 1172;
}
);
leftKerningGroup = H;
unicode = 00DE;
},
{
glyphname = Q;
layers = (
{
anchors = (
{
name = bottom;
position = "{632, 0}";
},
{
name = top;
position = "{632, 1376}";
}
);
layerId = "60CFBDE8-BC08-4808-BF41-F011F3E03A54";
paths = (
{
closed = 1;
nodes = (
"1114 -268 OFFCURVE",
"1206 -204 OFFCURVE",
"1206 -92 CURVE SMOOTH",
"1206 -66 OFFCURVE",
"1184 -36 OFFCURVE",
"1148 -44 CURVE",
"1164 -148 OFFCURVE",
"1078 -212 OFFCURVE",
"962 -212 CURVE SMOOTH",
"814 -216 OFFCURVE",
"668 -106 OFFCURVE",
"542 -14 CURVE",
"566 -20 OFFCURVE",
"612 -24 OFFCURVE",
"638 -24 CURVE SMOOTH",
"952 -24 OFFCURVE",
"1136 200 OFFCURVE",
"1136 688 CURVE SMOOTH",
"1136 1176 OFFCURVE",
"952 1400 OFFCURVE",
"638 1400 CURVE SMOOTH",
"324 1400 OFFCURVE",
"140 1176 OFFCURVE",
"140 688 CURVE SMOOTH",
"140 368 OFFCURVE",
"226 162 OFFCURVE",
"384 42 CURVE SMOOTH",
"536 -74 OFFCURVE",
"740 -274 OFFCURVE",
"968 -268 CURVE SMOOTH"
);
},
{
closed = 1;
nodes = (
"366 32 OFFCURVE",
"204 236 OFFCURVE",
"204 688 CURVE SMOOTH",
"204 1140 OFFCURVE",
"366 1344 OFFCURVE",
"638 1344 CURVE SMOOTH",
"910 1344 OFFCURVE",
"1072 1140 OFFCURVE",
"1072 688 CURVE SMOOTH",
"1072 236 OFFCURVE",
"910 32 OFFCURVE",
"638 32 CURVE SMOOTH"
);
}
);
width = 1276;
},
{
anchors = (
{
name = bottom;
position = "{670, 0}";
},
{
name = top;
position = "{670, 1396}";
}
);
layerId = "EBFFFCD3-BAE4-48A5-9442-B72A90AD34A8";
paths = (
{
closed = 1;
nodes = (
"1242 -334 OFFCURVE",
"1322 -250 OFFCURVE",
"1322 -158 CURVE SMOOTH",
"1322 -70 OFFCURVE",
"1266 -18 OFFCURVE",
"1178 -4 CURVE",
"1148 -84 OFFCURVE",
"1030 -122 OFFCURVE",
"898 -122 CURVE SMOOTH",
"780 -122 OFFCURVE",
"646 -88 OFFCURVE",
"558 -14 CURVE",
"598 -26 OFFCURVE",
"630 -28 OFFCURVE",
"672 -28 CURVE SMOOTH",
"1022 -28 OFFCURVE",
"1254 240 OFFCURVE",
"1254 698 CURVE SMOOTH",
"1254 1180 OFFCURVE",
"1040 1424 OFFCURVE",
"674 1424 CURVE SMOOTH",
"310 1424 OFFCURVE",
"94 1180 OFFCURVE",
"94 696 CURVE SMOOTH",
"94 288 OFFCURVE",
"266 74 OFFCURVE",
"498 -92 CURVE SMOOTH",
"680 -224 OFFCURVE",
"928 -334 OFFCURVE",
"1100 -334 CURVE SMOOTH"
);
},
{
closed = 1;
nodes = (
"460 66 OFFCURVE",
"416 316 OFFCURVE",
"416 650 CURVE SMOOTH",
"416 1100 OFFCURVE",
"476 1330 OFFCURVE",
"672 1330 CURVE SMOOTH",
"852 1330 OFFCURVE",
"932 1140 OFFCURVE",
"932 700 CURVE SMOOTH",
"932 252 OFFCURVE",
"850 66 OFFCURVE",
"668 66 CURVE SMOOTH"
);
}
);
width = 1352;
}
);
leftKerningGroup = O;
leftMetricsKey = O;
rightKerningGroup = O;
unicode = 0051;
},
{
glyphname = R;
layers = (
{
anchors = (
{
name = bottom;
position = "{572, 0}";
},
{
name = top;
position = "{504, 1376}";
}
);
layerId = "60CFBDE8-BC08-4808-BF41-F011F3E03A54";
paths = (
{
closed = 1;
nodes = (
"272 -16 OFFCURVE",
"282 -8 OFFCURVE",
"290 0 CURVE",
"280 34 OFFCURVE",
"276 156 OFFCURVE",
"276 174 CURVE SMOOTH",
"276 1340 LINE",
"300 1346 OFFCURVE",
"346 1348 OFFCURVE",
"412 1348 CURVE SMOOTH",
"740 1348 OFFCURVE",
"884 1264 OFFCURVE",
"884 1000 CURVE SMOOTH",
"884 776 OFFCURVE",
"698 656 OFFCURVE",
"498 656 CURVE SMOOTH",
"386 656 OFFCURVE",
"308 656 OFFCURVE",
"248 658 CURVE",
"262 604 LINE",
"498 604 LINE SMOOTH",
"710 604 OFFCURVE",
"742 500 OFFCURVE",
"782 400 CURVE SMOOTH",
"906 90 LINE SMOOTH",
"932 24 OFFCURVE",
"980 -16 OFFCURVE",
"1026 -16 CURVE SMOOTH",
"1056 -16 OFFCURVE",
"1110 2 OFFCURVE",
"1110 44 CURVE SMOOTH",
"1110 54 OFFCURVE",
"1108 64 OFFCURVE",
"1100 74 CURVE",
"1082 44 OFFCURVE",
"1048 40 OFFCURVE",
"1034 40 CURVE SMOOTH",
"1004 40 OFFCURVE",
"984 58 OFFCURVE",
"958 122 CURVE SMOOTH",
"844 404 LINE SMOOTH",
"796 524 OFFCURVE",
"744 642 OFFCURVE",
"614 642 CURVE",
"624 624 LINE",
"812 658 OFFCURVE",
"948 802 OFFCURVE",
"948 1010 CURVE SMOOTH",
"948 1288 OFFCURVE",
"792 1400 OFFCURVE",
"418 1400 CURVE SMOOTH",
"260 1400 OFFCURVE",
"208 1378 OFFCURVE",
"202 1374 CURVE",
"212 1340 OFFCURVE",
"216 1218 OFFCURVE",
"216 1200 CURVE SMOOTH",
"216 28 LINE",
"218 0 OFFCURVE",
"230 -16 OFFCURVE",
"254 -16 CURVE SMOOTH"
);
}
);
width = 1144;
},
{
anchors = (
{
name = bottom;
position = "{686, 0}";
},
{
name = top;
position = "{618, 1396}";
}
);
layerId = "EBFFFCD3-BAE4-48A5-9442-B72A90AD34A8";
paths = (
{
closed = 1;
nodes = (
"404 -30 OFFCURVE",
"462 10 OFFCURVE",
"486 32 CURVE",
"450 114 OFFCURVE",
"446 210 OFFCURVE",
"446 276 CURVE SMOOTH",
"446 1328 LINE",
"470 1330 OFFCURVE",
"498 1330 OFFCURVE",
"532 1330 CURVE SMOOTH",
"724 1330 OFFCURVE",
"794 1204 OFFCURVE",
"794 1044 CURVE SMOOTH",
"794 864 OFFCURVE",
"708 720 OFFCURVE",
"522 714 CURVE SMOOTH",
"478 712 OFFCURVE",
"436 716 OFFCURVE",
"394 720 CURVE",
"416 620 LINE",
"508 618 LINE SMOOTH",
"642 616 OFFCURVE",
"680 528 OFFCURVE",
"720 428 CURVE SMOOTH",
"776 276 LINE SMOOTH",
"852 86 OFFCURVE",
"898 -28 OFFCURVE",
"1072 -28 CURVE SMOOTH",
"1134 -28 OFFCURVE",
"1236 18 OFFCURVE",
"1236 124 CURVE SMOOTH",
"1236 146 OFFCURVE",
"1232 170 OFFCURVE",
"1220 200 CURVE",
"1204 188 OFFCURVE",
"1186 184 OFFCURVE",
"1172 184 CURVE SMOOTH",
"1132 186 OFFCURVE",
"1098 228 OFFCURVE",
"1058 324 CURVE SMOOTH",
"976 510 LINE SMOOTH",
"912 622 OFFCURVE",
"836 696 OFFCURVE",
"630 692 CURVE",
"592 654 LINE",
"894 650 OFFCURVE",
"1100 806 OFFCURVE",
"1100 1062 CURVE SMOOTH",
"1100 1322 OFFCURVE",
"888 1424 OFFCURVE",
"508 1424 CURVE SMOOTH",
"330 1424 OFFCURVE",
"210 1402 OFFCURVE",
"126 1362 CURVE",
"160 1272 OFFCURVE",
"166 1166 OFFCURVE",
"166 1102 CURVE SMOOTH",
"166 112 LINE",
"166 24 OFFCURVE",
"234 -30 OFFCURVE",
"326 -30 CURVE SMOOTH"
);
}
);
width = 1260;
}
);
leftKerningGroup = H;
leftMetricsKey = H;
rightKerningGroup = R;
unicode = 0052;
},
{
glyphname = S;
layers = (
{
anchors = (
{
name = bottom;
position = "{544, 0}";
},
{
name = top;
position = "{544, 1376}";
}
);
layerId = "60CFBDE8-BC08-4808-BF41-F011F3E03A54";
paths = (
{
closed = 1;
nodes = (
"888 -24 OFFCURVE",
"968 160 OFFCURVE",
"968 310 CURVE SMOOTH",
"968 514 OFFCURVE",
"818 626 OFFCURVE",
"576 754 CURVE SMOOTH",
"424 836 OFFCURVE",
"244 916 OFFCURVE",
"244 1108 CURVE SMOOTH",
"244 1286 OFFCURVE",
"400 1344 OFFCURVE",
"556 1344 CURVE SMOOTH",
"722 1344 OFFCURVE",
"868 1278 OFFCURVE",
"868 1128 CURVE SMOOTH",
"868 1112 OFFCURVE",
"866 1094 OFFCURVE",
"856 1076 CURVE",
"876 1070 OFFCURVE",
"890 1070 OFFCURVE",
"904 1078 CURVE SMOOTH",
"924 1090 OFFCURVE",
"930 1108 OFFCURVE",
"930 1140 CURVE SMOOTH",
"930 1298 OFFCURVE",
"780 1400 OFFCURVE",
"560 1400 CURVE SMOOTH",
"354 1400 OFFCURVE",
"180 1310 OFFCURVE",
"180 1100 CURVE SMOOTH",
"180 902 OFFCURVE",
"334 816 OFFCURVE",
"542 702 CURVE SMOOTH",
"772 576 OFFCURVE",
"904 490 OFFCURVE",
"904 310 CURVE SMOOTH",
"904 126 OFFCURVE",
"764 32 OFFCURVE",
"548 32 CURVE SMOOTH",
"344 32 OFFCURVE",
"198 116 OFFCURVE",
"198 306 CURVE SMOOTH",
"198 338 OFFCURVE",
"202 352 OFFCURVE",
"208 372 CURVE",
"150 378 OFFCURVE",
"132 348 OFFCURVE",
"132 284 CURVE SMOOTH",
"132 122 OFFCURVE",
"252 -24 OFFCURVE",
"552 -24 CURVE SMOOTH"
);
}
);
width = 1086;
},
{
anchors = (
{
name = bottom;
position = "{568, 0}";
},
{
name = top;
position = "{578, 1396}";
}
);
layerId = "EBFFFCD3-BAE4-48A5-9442-B72A90AD34A8";
paths = (
{
closed = 1;
nodes = (
"900 -30 OFFCURVE",
"1072 150 OFFCURVE",
"1072 368 CURVE SMOOTH",
"1072 610 OFFCURVE",
"870 732 OFFCURVE",
"684 834 CURVE SMOOTH",
"440 970 OFFCURVE",
"376 1042 OFFCURVE",
"376 1164 CURVE SMOOTH",
"376 1294 OFFCURVE",
"482 1330 OFFCURVE",
"564 1330 CURVE SMOOTH",
"700 1330 OFFCURVE",
"766 1264 OFFCURVE",
"788 1188 CURVE SMOOTH",
"802 1152 OFFCURVE",
"808 1110 OFFCURVE",
"806 1068 CURVE",
"830 1064 OFFCURVE",
"860 1062 OFFCURVE",
"882 1064 CURVE SMOOTH",
"992 1066 OFFCURVE",
"1026 1126 OFFCURVE",
"1026 1192 CURVE SMOOTH",
"1026 1348 OFFCURVE",
"848 1424 OFFCURVE",
"596 1424 CURVE SMOOTH",
"340 1424 OFFCURVE",
"118 1324 OFFCURVE",
"118 1066 CURVE SMOOTH",
"118 832 OFFCURVE",
"274 722 OFFCURVE",
"530 576 CURVE SMOOTH",
"710 474 OFFCURVE",
"802 406 OFFCURVE",
"802 270 CURVE SMOOTH",
"802 132 OFFCURVE",
"704 68 OFFCURVE",
"586 68 CURVE SMOOTH",
"400 68 OFFCURVE",
"316 186 OFFCURVE",
"298 292 CURVE SMOOTH",
"292 326 OFFCURVE",
"290 366 OFFCURVE",
"298 398 CURVE",
"122 424 OFFCURVE",
"68 344 OFFCURVE",
"68 252 CURVE SMOOTH",
"68 92 OFFCURVE",
"220 -30 OFFCURVE",
"546 -30 CURVE SMOOTH"
);
}
);
width = 1136;
}
);
leftKerningGroup = S;
rightKerningGroup = S;
unicode = 0053;
},
{
glyphname = Germandbls;
layers = (
{
layerId = "60CFBDE8-BC08-4808-BF41-F011F3E03A54";
paths = (
{
closed = 1;
nodes = (
"916 -24 OFFCURVE",
"1034 124 OFFCURVE",
"1034 344 CURVE SMOOTH",
"1034 608 OFFCURVE",
"864 726 OFFCURVE",
"674 772 CURVE",
"836 916 OFFCURVE",
"916 1070 OFFCURVE",
"978 1286 CURVE",
"896 1364 OFFCURVE",
"756 1400 OFFCURVE",
"576 1400 CURVE SMOOTH",
"310 1400 OFFCURVE",
"170 1272 OFFCURVE",
"170 856 CURVE SMOOTH",
"170 28 LINE SMOOTH",
"170 -2 OFFCURVE",
"172 -16 OFFCURVE",
"196 -16 CURVE SMOOTH",
"220 -16 OFFCURVE",
"234 -4 OFFCURVE",
"238 0 CURVE",
"230 50 OFFCURVE",
"228 84 OFFCURVE",
"228 836 CURVE SMOOTH",
"228 1208 OFFCURVE",
"334 1344 OFFCURVE",
"566 1344 CURVE SMOOTH",
"732 1344 OFFCURVE",
"840 1320 OFFCURVE",
"916 1272 CURVE",
"876 1104 OFFCURVE",
"776 926 OFFCURVE",
"614 784 CURVE",
"614 734 LINE",
"770 688 OFFCURVE",
"970 626 OFFCURVE",
"970 344 CURVE SMOOTH",
"970 184 OFFCURVE",
"908 28 OFFCURVE",
"694 28 CURVE SMOOTH",
"558 28 OFFCURVE",
"502 90 OFFCURVE",
"490 154 CURVE",
"464 170 OFFCURVE",
"430 162 OFFCURVE",
"430 132 CURVE SMOOTH",
"430 94 OFFCURVE",
"486 -24 OFFCURVE",
"688 -24 CURVE SMOOTH"
);
}
);
width = 1142;
},
{
layerId = "EBFFFCD3-BAE4-48A5-9442-B72A90AD34A8";
paths = (
{
closed = 1;
nodes = (
"1064 -28 OFFCURVE",
"1228 120 OFFCURVE",
"1228 350 CURVE SMOOTH",
"1228 594 OFFCURVE",
"1054 700 OFFCURVE",
"890 748 CURVE",
"1030 888 OFFCURVE",
"1108 1096 OFFCURVE",
"1154 1334 CURVE",
"1032 1424 OFFCURVE",
"816 1456 OFFCURVE",
"666 1456 CURVE SMOOTH",
"322 1456 OFFCURVE",
"122 1276 OFFCURVE",
"126 788 CURVE SMOOTH",
"128 134 LINE SMOOTH",
"128 34 OFFCURVE",
"204 -22 OFFCURVE",
"284 -22 CURVE SMOOTH",
"356 -22 OFFCURVE",
"424 20 OFFCURVE",
"446 38 CURVE",
"402 138 OFFCURVE",
"400 164 OFFCURVE",
"398 542 CURVE SMOOTH",
"394 1166 OFFCURVE",
"404 1366 OFFCURVE",
"660 1366 CURVE SMOOTH",
"736 1366 OFFCURVE",
"814 1352 OFFCURVE",
"866 1300 CURVE",
"844 1138 OFFCURVE",
"790 944 OFFCURVE",
"644 770 CURVE",
"644 710 LINE",
"830 648 OFFCURVE",
"934 572 OFFCURVE",
"934 312 CURVE SMOOTH",
"934 202 OFFCURVE",
"914 60 OFFCURVE",
"800 60 CURVE SMOOTH",
"722 60 OFFCURVE",
"674 114 OFFCURVE",
"682 274 CURVE",
"592 290 OFFCURVE",
"532 242 OFFCURVE",
"532 158 CURVE SMOOTH",
"532 68 OFFCURVE",
"618 -28 OFFCURVE",
"812 -28 CURVE SMOOTH"
);
}
);
width = 1296;
}
);
leftKerningGroup = Germandbls;
unicode = 1E9E;
},
{
glyphname = Schwa;
layers = (
{
layerId = "60CFBDE8-BC08-4808-BF41-F011F3E03A54";
paths = (
{
closed = 1;
nodes = (
"368 1400 OFFCURVE",
"208 1334 OFFCURVE",
"148 1192 CURVE SMOOTH",
"124 1136 OFFCURVE",
"140 1116 OFFCURVE",
"164 1106 CURVE",
"208 1274 OFFCURVE",
"378 1342 OFFCURVE",
"546 1342 CURVE SMOOTH",
"782 1342 OFFCURVE",
"1008 1188 OFFCURVE",
"1008 686 CURVE SMOOTH",
"1008 240 OFFCURVE",
"814 30 OFFCURVE",
"540 30 CURVE SMOOTH",
"370 30 OFFCURVE",
"186 100 OFFCURVE",
"186 340 CURVE SMOOTH",
"186 568 OFFCURVE",
"322 682 OFFCURVE",
"572 682 CURVE SMOOTH",
"712 682 OFFCURVE",
"922 672 OFFCURVE",
"1044 656 CURVE",
"1044 706 LINE",
"920 718 OFFCURVE",
"786 732 OFFCURVE",
"596 732 CURVE SMOOTH",
"290 732 OFFCURVE",
"122 602 OFFCURVE",
"122 340 CURVE SMOOTH",
"122 106 OFFCURVE",
"282 -24 OFFCURVE",
"536 -24 CURVE SMOOTH",
"886 -24 OFFCURVE",
"1072 254 OFFCURVE",
"1072 694 CURVE SMOOTH",
"1072 1164 OFFCURVE",
"876 1400 OFFCURVE",
"552 1400 CURVE SMOOTH"
);
}
);
width = 1192;
},
{
layerId = "EBFFFCD3-BAE4-48A5-9442-B72A90AD34A8";
paths = (
{
closed = 1;
nodes = (
"358 1424 OFFCURVE",
"182 1348 OFFCURVE",
"122 1214 CURVE SMOOTH",
"90 1140 OFFCURVE",
"116 1106 OFFCURVE",
"140 1096 CURVE",
"196 1190 OFFCURVE",
"322 1254 OFFCURVE",
"482 1254 CURVE SMOOTH",
"718 1254 OFFCURVE",
"848 1112 OFFCURVE",
"848 670 CURVE SMOOTH",
"848 292 OFFCURVE",
"750 62 OFFCURVE",
"570 62 CURVE SMOOTH",
"480 62 OFFCURVE",
"382 116 OFFCURVE",
"382 316 CURVE SMOOTH",
"382 618 OFFCURVE",
"626 676 OFFCURVE",
"778 676 CURVE SMOOTH",
"854 676 OFFCURVE",
"944 656 OFFCURVE",
"1006 626 CURVE",
"1016 708 LINE",
"882 776 OFFCURVE",
"700 778 OFFCURVE",
"566 778 CURVE SMOOTH",
"286 778 OFFCURVE",
"88 630 OFFCURVE",
"88 368 CURVE SMOOTH",
"88 102 OFFCURVE",
"296 -28 OFFCURVE",
"562 -28 CURVE SMOOTH",
"940 -28 OFFCURVE",
"1142 246 OFFCURVE",
"1142 692 CURVE SMOOTH",
"1142 1160 OFFCURVE",
"922 1424 OFFCURVE",
"556 1424 CURVE SMOOTH"
);
}
);
width = 1232;
}
);
rightKerningGroup = O;
unicode = 018F;
},
{
glyphname = T;
layers = (
{
anchors = (
{
name = bottom;
position = "{518, 0}";
},
{
name = center;
position = "{504, 688}";
},
{
name = top;
position = "{504, 1376}";
}
);
layerId = "60CFBDE8-BC08-4808-BF41-F011F3E03A54";
paths = (
{
closed = 1;
nodes = (
"530 -16 OFFCURVE",
"540 -8 OFFCURVE",
"548 0 CURVE",
"540 32 OFFCURVE",
"536 92 OFFCURVE",
"536 174 CURVE SMOOTH",
"534 1354 LINE",
"474 1350 LINE",
"478 28 LINE SMOOTH",
"478 0 OFFCURVE",
"490 -16 OFFCURVE",
"512 -16 CURVE SMOOTH"
);
},
{
closed = 1;
nodes = (
"206 1324 OFFCURVE",
"352 1324 OFFCURVE",
"496 1324 CURVE SMOOTH",
"644 1324 OFFCURVE",
"794 1324 OFFCURVE",
"944 1324 CURVE",
"966 1330 OFFCURVE",
"978 1376 OFFCURVE",
"950 1376 CURVE",
"58 1376 LINE",
"30 1376 OFFCURVE",
"42 1330 OFFCURVE",
"64 1324 CURVE"
);
}
);
width = 1006;
},
{
anchors = (
{
name = bottom;
position = "{588, 0}";
},
{
name = center;
position = "{558, 698}";
},
{
name = top;
position = "{558, 1396}";
}
);
layerId = "EBFFFCD3-BAE4-48A5-9442-B72A90AD34A8";
paths = (
{
closed = 1;
nodes = (
"656 -30 OFFCURVE",
"714 10 OFFCURVE",
"738 32 CURVE",
"702 120 OFFCURVE",
"698 216 OFFCURVE",
"698 292 CURVE SMOOTH",
"696 1330 LINE",
"418 1354 LINE",
"418 112 LINE SMOOTH",
"418 24 OFFCURVE",
"486 -30 OFFCURVE",
"578 -30 CURVE SMOOTH"
);
},
{
closed = 1;
nodes = (
"220 1216 OFFCURVE",
"404 1302 OFFCURVE",
"558 1302 CURVE SMOOTH",
"710 1302 OFFCURVE",
"898 1216 OFFCURVE",
"1016 1152 CURVE",
"1092 1186 OFFCURVE",
"1124 1396 OFFCURVE",
"1048 1396 CURVE",
"68 1396 LINE",
"-8 1396 OFFCURVE",
"24 1186 OFFCURVE",
"98 1152 CURVE"
);
}
);
width = 1114;
}
);
leftKerningGroup = T;
rightKerningGroup = T;
unicode = 0054;
},
{
glyphname = U;
layers = (
{
anchors = (
{
name = bottom;
position = "{642, 0}";
},
{
name = ogonek;
position = "{782, 12}";
},
{
name = top;
position = "{642, 1376}";
},
{
name = topright;
position = "{1094, 1380}";
}
);
layerId = "60CFBDE8-BC08-4808-BF41-F011F3E03A54";
paths = (
{
closed = 1;
nodes = (
"1094 1374 OFFCURVE",
"1082 1390 OFFCURVE",
"1060 1390 CURVE SMOOTH",
"1042 1390 OFFCURVE",
"1032 1382 OFFCURVE",
"1024 1374 CURVE",
"1032 1342 OFFCURVE",
"1036 1280 OFFCURVE",
"1036 1200 CURVE SMOOTH",
"1036 608 LINE SMOOTH",
"1036 230 OFFCURVE",
"900 32 OFFCURVE",
"640 32 CURVE SMOOTH",
"380 32 OFFCURVE",
"260 214 OFFCURVE",
"260 608 CURVE SMOOTH",
"260 1346 LINE SMOOTH",
"260 1374 OFFCURVE",
"248 1390 OFFCURVE",
"226 1390 CURVE SMOOTH",
"208 1390 OFFCURVE",
"198 1382 OFFCURVE",
"190 1374 CURVE",
"198 1342 OFFCURVE",
"202 1280 OFFCURVE",
"202 1200 CURVE SMOOTH",
"202 608 LINE SMOOTH",
"202 174 OFFCURVE",
"340 -24 OFFCURVE",
"640 -24 CURVE SMOOTH",
"938 -24 OFFCURVE",
"1094 192 OFFCURVE",
"1094 608 CURVE SMOOTH",
"1094 1346 LINE SMOOTH"
);
}
);
width = 1284;
},
{
anchors = (
{
name = bottom;
position = "{676, 0}";
},
{
name = ogonek;
position = "{796, -18}";
},
{
name = top;
position = "{676, 1396}";
},
{
name = topright;
position = "{1066, 1394}";
}
);
layerId = "EBFFFCD3-BAE4-48A5-9442-B72A90AD34A8";
paths = (
{
closed = 1;
nodes = (
"1206 1370 OFFCURVE",
"1136 1422 OFFCURVE",
"1048 1422 CURVE SMOOTH",
"970 1422 OFFCURVE",
"914 1384 OFFCURVE",
"890 1362 CURVE",
"924 1272 OFFCURVE",
"930 1178 OFFCURVE",
"930 1102 CURVE SMOOTH",
"930 600 LINE SMOOTH",
"930 252 OFFCURVE",
"854 66 OFFCURVE",
"676 66 CURVE SMOOTH",
"510 66 OFFCURVE",
"438 222 OFFCURVE",
"438 600 CURVE SMOOTH",
"438 1282 LINE SMOOTH",
"438 1370 OFFCURVE",
"368 1422 OFFCURVE",
"280 1422 CURVE SMOOTH",
"202 1422 OFFCURVE",
"144 1384 OFFCURVE",
"120 1362 CURVE",
"154 1272 OFFCURVE",
"160 1178 OFFCURVE",
"160 1102 CURVE SMOOTH",
"160 614 LINE SMOOTH",
"160 168 OFFCURVE",
"338 -28 OFFCURVE",
"676 -28 CURVE SMOOTH",
"1030 -28 OFFCURVE",
"1206 188 OFFCURVE",
"1206 614 CURVE SMOOTH",
"1206 1282 LINE SMOOTH"
);
}
);
width = 1352;
}
);
leftKerningGroup = U;
rightKerningGroup = U;
unicode = 0055;
},
{
glyphname = Uhorn;
layers = (
{
anchors = (
{
name = bottom;
position = "{636, 0}";
},
{
name = ogonek;
position = "{782, 12}";
},
{
name = top;
position = "{652, 1376}";
},
{
name = topright;
position = "{1092, 1380}";
}
);
layerId = "60CFBDE8-BC08-4808-BF41-F011F3E03A54";
paths = (
{
closed = 1;
nodes = (
"1094 1374 OFFCURVE",
"1082 1390 OFFCURVE",
"1060 1390 CURVE SMOOTH",
"1042 1390 OFFCURVE",
"1032 1382 OFFCURVE",
"1024 1374 CURVE",
"1032 1342 OFFCURVE",
"1036 1280 OFFCURVE",
"1036 1200 CURVE SMOOTH",
"1036 608 LINE SMOOTH",
"1036 230 OFFCURVE",
"900 32 OFFCURVE",
"640 32 CURVE SMOOTH",
"380 32 OFFCURVE",
"260 214 OFFCURVE",
"260 608 CURVE SMOOTH",
"260 1346 LINE SMOOTH",
"260 1374 OFFCURVE",
"248 1390 OFFCURVE",
"226 1390 CURVE SMOOTH",
"208 1390 OFFCURVE",
"198 1382 OFFCURVE",
"190 1374 CURVE",
"198 1342 OFFCURVE",
"202 1280 OFFCURVE",
"202 1200 CURVE SMOOTH",
"202 608 LINE SMOOTH",
"202 174 OFFCURVE",
"340 -24 OFFCURVE",
"640 -24 CURVE SMOOTH",
"938 -24 OFFCURVE",
"1094 192 OFFCURVE",
"1094 608 CURVE SMOOTH",
"1094 1346 LINE SMOOTH"
);
},
{
closed = 1;
nodes = (
"1158 1370 OFFCURVE",
"1216 1420 OFFCURVE",
"1216 1506 CURVE SMOOTH",
"1216 1540 OFFCURVE",
"1204 1590 OFFCURVE",
"1170 1626 CURVE",
"1144 1616 OFFCURVE",
"1120 1598 OFFCURVE",
"1104 1584 CURVE",
"1136 1546 OFFCURVE",
"1140 1512 OFFCURVE",
"1140 1494 CURVE SMOOTH",
"1140 1444 OFFCURVE",
"1110 1412 OFFCURVE",
"1038 1384 CURVE",
"1056 1340 LINE"
);
}
);
width = 1284;
},
{
anchors = (
{
name = bottom;
position = "{694, 0}";
},
{
name = ogonek;
position = "{796, -18}";
},
{
name = top;
position = "{684, 1396}";
},
{
name = topright;
position = "{1076, 1394}";
}
);
layerId = "EBFFFCD3-BAE4-48A5-9442-B72A90AD34A8";
paths = (
{
closed = 1;
nodes = (
"1206 1370 OFFCURVE",
"1136 1422 OFFCURVE",
"1048 1422 CURVE SMOOTH",
"970 1422 OFFCURVE",
"914 1384 OFFCURVE",
"890 1362 CURVE",
"924 1272 OFFCURVE",
"930 1178 OFFCURVE",
"930 1102 CURVE SMOOTH",
"930 600 LINE SMOOTH",
"930 252 OFFCURVE",
"854 66 OFFCURVE",
"676 66 CURVE SMOOTH",
"510 66 OFFCURVE",
"438 222 OFFCURVE",
"438 600 CURVE SMOOTH",
"438 1282 LINE SMOOTH",
"438 1370 OFFCURVE",
"368 1422 OFFCURVE",
"280 1422 CURVE SMOOTH",
"202 1422 OFFCURVE",
"144 1384 OFFCURVE",
"120 1362 CURVE",
"154 1272 OFFCURVE",
"160 1178 OFFCURVE",
"160 1102 CURVE SMOOTH",
"160 614 LINE SMOOTH",
"160 168 OFFCURVE",
"338 -28 OFFCURVE",
"676 -28 CURVE SMOOTH",
"1030 -28 OFFCURVE",
"1206 188 OFFCURVE",
"1206 614 CURVE SMOOTH",
"1206 1282 LINE SMOOTH"
);
},
{
closed = 1;
nodes = (
"1178 1378 OFFCURVE",
"1308 1462 OFFCURVE",
"1308 1572 CURVE SMOOTH",
"1308 1640 OFFCURVE",
"1276 1712 OFFCURVE",
"1252 1738 CURVE",
"1202 1732 OFFCURVE",
"1104 1688 OFFCURVE",
"1068 1662 CURVE",
"1090 1638 OFFCURVE",
"1114 1592 OFFCURVE",
"1114 1546 CURVE SMOOTH",
"1114 1496 OFFCURVE",
"1088 1446 OFFCURVE",
"998 1414 CURVE",
"1032 1328 LINE"
);
}
);
width = 1352;
}
);
leftKerningGroup = U;
rightKerningGroup = U;
unicode = 01AF;
},
{
glyphname = V;
layers = (
{
anchors = (
{
name = bottom;
position = "{540, 0}";
},
{
name = top;
position = "{540, 1376}";
}
);
layerId = "60CFBDE8-BC08-4808-BF41-F011F3E03A54";
paths = (
{
closed = 1;
nodes = (
"564 -16 OFFCURVE",
"578 -12 OFFCURVE",
"594 0 CURVE",
"1038 1316 LINE SMOOTH",
"1042 1330 OFFCURVE",
"1050 1350 OFFCURVE",
"1050 1364 CURVE SMOOTH",
"1052 1386 OFFCURVE",
"1034 1400 OFFCURVE",
"1008 1400 CURVE SMOOTH",
"998 1400 OFFCURVE",
"990 1400 OFFCURVE",
"980 1396 CURVE",
"984 1388 OFFCURVE",
"984 1376 OFFCURVE",
"984 1368 CURVE SMOOTH",
"984 1356 OFFCURVE",
"978 1336 OFFCURVE",
"974 1326 CURVE SMOOTH",
"538 12 LINE",
"566 12 LINE",
"110 1372 LINE SMOOTH",
"104 1390 OFFCURVE",
"88 1400 OFFCURVE",
"70 1400 CURVE SMOOTH",
"56 1400 OFFCURVE",
"44 1396 OFFCURVE",
"30 1382 CURVE",
"40 1370 OFFCURVE",
"54 1348 OFFCURVE",
"62 1322 CURVE SMOOTH",
"500 18 LINE SMOOTH",
"508 -4 OFFCURVE",
"526 -16 OFFCURVE",
"550 -16 CURVE SMOOTH"
);
}
);
width = 1106;
},
{
anchors = (
{
name = bottom;
position = "{610, 0}";
},
{
name = top;
position = "{610, 1396}";
}
);
layerId = "EBFFFCD3-BAE4-48A5-9442-B72A90AD34A8";
paths = (
{
closed = 1;
nodes = (
"642 -30 OFFCURVE",
"708 -20 OFFCURVE",
"782 8 CURVE",
"1162 1168 LINE SMOOTH",
"1180 1224 OFFCURVE",
"1190 1274 OFFCURVE",
"1190 1310 CURVE SMOOTH",
"1190 1390 OFFCURVE",
"1144 1424 OFFCURVE",
"1034 1424 CURVE SMOOTH",
"964 1424 OFFCURVE",
"924 1412 OFFCURVE",
"884 1396 CURVE",
"896 1382 OFFCURVE",
"904 1362 OFFCURVE",
"904 1328 CURVE SMOOTH",
"904 1298 OFFCURVE",
"898 1268 OFFCURVE",
"890 1238 CURVE SMOOTH",
"596 14 LINE",
"674 14 LINE",
"350 1318 LINE SMOOTH",
"332 1390 OFFCURVE",
"272 1424 OFFCURVE",
"172 1424 CURVE SMOOTH",
"80 1424 OFFCURVE",
"32 1392 OFFCURVE",
"6 1364 CURVE",
"40 1328 OFFCURVE",
"62 1268 OFFCURVE",
"72 1234 CURVE SMOOTH",
"424 46 LINE SMOOTH",
"440 -8 OFFCURVE",
"498 -30 OFFCURVE",
"596 -30 CURVE SMOOTH"
);
}
);
width = 1224;
}
);
unicode = 0056;
},
{
glyphname = W;
layers = (
{
anchors = (
{
name = bottom;
position = "{892, 0}";
},
{
name = top;
position = "{892, 1376}";
}
);
layerId = "60CFBDE8-BC08-4808-BF41-F011F3E03A54";
paths = (
{
closed = 1;
nodes = (
"1680 1400 OFFCURVE",
"1672 1400 OFFCURVE",
"1662 1396 CURVE",
"1666 1388 OFFCURVE",
"1666 1376 OFFCURVE",
"1666 1368 CURVE SMOOTH",
"1666 1356 OFFCURVE",
"1660 1336 OFFCURVE",
"1656 1326 CURVE",
"1306 48 LINE",
"928 1258 LINE",
"920 1260 OFFCURVE",
"910 1260 OFFCURVE",
"902 1260 CURVE SMOOTH",
"890 1260 OFFCURVE",
"874 1256 OFFCURVE",
"864 1250 CURVE",
"866 1242 OFFCURVE",
"870 1228 OFFCURVE",
"862 1204 CURVE SMOOTH",
"502 48 LINE",
"130 1372 LINE SMOOTH",
"124 1390 OFFCURVE",
"108 1400 OFFCURVE",
"90 1400 CURVE SMOOTH",
"76 1400 OFFCURVE",
"64 1396 OFFCURVE",
"50 1382 CURVE",
"60 1370 OFFCURVE",
"74 1348 OFFCURVE",
"82 1322 CURVE SMOOTH",
"450 18 LINE",
"456 -4 OFFCURVE",
"476 -16 OFFCURVE",
"500 -16 CURVE SMOOTH",
"514 -16 OFFCURVE",
"528 -12 OFFCURVE",
"544 0 CURVE",
"902 1148 LINE",
"1254 18 LINE",
"1260 -4 OFFCURVE",
"1280 -16 OFFCURVE",
"1304 -16 CURVE SMOOTH",
"1318 -16 OFFCURVE",
"1332 -12 OFFCURVE",
"1346 0 CURVE",
"1720 1316 LINE SMOOTH",
"1724 1330 OFFCURVE",
"1732 1350 OFFCURVE",
"1732 1364 CURVE",
"1734 1386 OFFCURVE",
"1716 1400 OFFCURVE",
"1690 1400 CURVE SMOOTH"
);
}
);
width = 1774;
},
{
anchors = (
{
name = bottom;
position = "{962, 0}";
},
{
name = top;
position = "{978, 1396}";
}
);
layerId = "EBFFFCD3-BAE4-48A5-9442-B72A90AD34A8";
paths = (
{
closed = 1;
nodes = (
"1646 1418 OFFCURVE",
"1606 1404 OFFCURVE",
"1566 1390 CURVE",
"1578 1374 OFFCURVE",
"1586 1354 OFFCURVE",
"1586 1322 CURVE SMOOTH",
"1586 1292 OFFCURVE",
"1578 1262 OFFCURVE",
"1574 1230 CURVE",
"1382 198 LINE",
"1136 1204 LINE",
"1124 1256 OFFCURVE",
"1066 1280 OFFCURVE",
"994 1280 CURVE SMOOTH",
"936 1280 OFFCURVE",
"852 1264 OFFCURVE",
"796 1236 CURVE",
"812 1202 OFFCURVE",
"824 1152 OFFCURVE",
"808 1078 CURVE SMOOTH",
"596 196 LINE",
"372 1318 LINE SMOOTH",
"358 1390 OFFCURVE",
"294 1424 OFFCURVE",
"194 1424 CURVE SMOOTH",
"102 1424 OFFCURVE",
"54 1392 OFFCURVE",
"28 1364 CURVE",
"62 1328 OFFCURVE",
"86 1268 OFFCURVE",
"94 1234 CURVE SMOOTH",
"384 46 LINE",
"396 -8 OFFCURVE",
"458 -30 OFFCURVE",
"556 -30 CURVE SMOOTH",
"596 -30 OFFCURVE",
"662 -20 OFFCURVE",
"736 8 CURVE",
"968 930 LINE",
"1182 46 LINE",
"1196 -8 OFFCURVE",
"1258 -30 OFFCURVE",
"1340 -30 CURVE SMOOTH",
"1386 -30 OFFCURVE",
"1454 -20 OFFCURVE",
"1526 8 CURVE",
"1844 1162 LINE SMOOTH",
"1860 1216 OFFCURVE",
"1872 1268 OFFCURVE",
"1872 1304 CURVE",
"1874 1384 OFFCURVE",
"1826 1418 OFFCURVE",
"1716 1418 CURVE SMOOTH"
);
}
);
width = 1924;
}
);
leftKerningGroup = W;
rightKerningGroup = W;
unicode = 0057;
},
{
glyphname = X;
layers = (
{
anchors = (
{
name = bottom;
position = "{574, 0}";
},
{
name = top;
position = "{574, 1376}";
}
);
layerId = "60CFBDE8-BC08-4808-BF41-F011F3E03A54";
paths = (
{
closed = 1;
nodes = (
"1082 -14 OFFCURVE",
"1120 24 OFFCURVE",
"1120 62 CURVE SMOOTH",
"1120 88 OFFCURVE",
"1104 108 OFFCURVE",
"1074 110 CURVE",
"1080 84 OFFCURVE",
"1066 46 OFFCURVE",
"1020 46 CURVE SMOOTH",
"976 46 OFFCURVE",
"948 84 OFFCURVE",
"922 130 CURVE SMOOTH",
"598 728 LINE",
"304 1274 LINE SMOOTH",
"276 1326 OFFCURVE",
"226 1390 OFFCURVE",
"150 1390 CURVE SMOOTH",
"88 1390 OFFCURVE",
"50 1352 OFFCURVE",
"50 1314 CURVE SMOOTH",
"50 1288 OFFCURVE",
"66 1268 OFFCURVE",
"96 1266 CURVE",
"90 1298 OFFCURVE",
"104 1330 OFFCURVE",
"150 1330 CURVE SMOOTH",
"190 1330 OFFCURVE",
"218 1302 OFFCURVE",
"248 1246 CURVE SMOOTH",
"544 698 LINE",
"864 102 LINE SMOOTH",
"894 44 OFFCURVE",
"944 -14 OFFCURVE",
"1020 -14 CURVE SMOOTH"
);
},
{
closed = 1;
nodes = (
"114 -10 OFFCURVE",
"126 -2 OFFCURVE",
"136 12 CURVE SMOOTH",
"604 708 LINE",
"568 758 LINE",
"164 162 LINE SMOOTH",
"110 84 OFFCURVE",
"78 46 OFFCURVE",
"62 32 CURVE",
"66 0 OFFCURVE",
"82 -10 OFFCURVE",
"100 -10 CURVE SMOOTH"
);
},
{
closed = 1;
nodes = (
"944 1226 LINE SMOOTH",
"986 1290 OFFCURVE",
"1024 1336 OFFCURVE",
"1050 1358 CURVE",
"1044 1388 OFFCURVE",
"1032 1400 OFFCURVE",
"1012 1400 CURVE SMOOTH",
"998 1400 OFFCURVE",
"986 1392 OFFCURVE",
"976 1378 CURVE SMOOTH",
"568 740 LINE",
"602 696 LINE"
);
}
);
width = 1148;
},
{
anchors = (
{
name = bottom;
position = "{640, 0}";
},
{
name = top;
position = "{640, 1396}";
}
);
layerId = "EBFFFCD3-BAE4-48A5-9442-B72A90AD34A8";
paths = (
{
closed = 1;
nodes = (
"1162 -28 OFFCURVE",
"1246 58 OFFCURVE",
"1246 146 CURVE SMOOTH",
"1246 204 OFFCURVE",
"1208 250 OFFCURVE",
"1166 270 CURVE",
"1160 242 OFFCURVE",
"1132 216 OFFCURVE",
"1108 216 CURVE SMOOTH",
"1082 216 OFFCURVE",
"1050 238 OFFCURVE",
"1026 284 CURVE SMOOTH",
"724 844 LINE",
"558 1174 LINE SMOOTH",
"478 1332 OFFCURVE",
"410 1414 OFFCURVE",
"264 1414 CURVE SMOOTH",
"112 1414 OFFCURVE",
"58 1328 OFFCURVE",
"58 1244 CURVE SMOOTH",
"58 1182 OFFCURVE",
"92 1138 OFFCURVE",
"136 1116 CURVE",
"142 1144 OFFCURVE",
"170 1170 OFFCURVE",
"200 1170 CURVE SMOOTH",
"228 1170 OFFCURVE",
"250 1148 OFFCURVE",
"276 1102 CURVE SMOOTH",
"544 600 LINE",
"746 212 LINE SMOOTH",
"824 64 OFFCURVE",
"886 -28 OFFCURVE",
"1028 -28 CURVE SMOOTH"
);
},
{
closed = 1;
nodes = (
"262 -28 OFFCURVE",
"298 6 OFFCURVE",
"328 54 CURVE SMOOTH",
"682 632 LINE",
"566 744 LINE",
"254 306 LINE SMOOTH",
"198 228 OFFCURVE",
"142 166 OFFCURVE",
"46 140 CURVE",
"56 26 OFFCURVE",
"98 -28 OFFCURVE",
"190 -28 CURVE SMOOTH"
);
},
{
closed = 1;
nodes = (
"1008 1082 LINE SMOOTH",
"1060 1156 OFFCURVE",
"1118 1220 OFFCURVE",
"1216 1246 CURVE",
"1204 1364 OFFCURVE",
"1160 1414 OFFCURVE",
"1070 1414 CURVE SMOOTH",
"994 1414 OFFCURVE",
"958 1376 OFFCURVE",
"934 1332 CURVE SMOOTH",
"610 764 LINE",
"700 654 LINE"
);
}
);
width = 1280;
}
);
unicode = 0058;
},
{
glyphname = Y;
layers = (
{
anchors = (
{
name = bottom;
position = "{508, 0}";
},
{
name = top;
position = "{540, 1376}";
},
{
name = topleft;
position = "{40, 1376}";
}
);
layerId = "60CFBDE8-BC08-4808-BF41-F011F3E03A54";
paths = (
{
closed = 1;
nodes = (
"544 472 LINE",
"960 1310 LINE SMOOTH",
"970 1330 OFFCURVE",
"976 1346 OFFCURVE",
"976 1356 CURVE SMOOTH",
"976 1384 OFFCURVE",
"960 1400 OFFCURVE",
"936 1400 CURVE SMOOTH",
"926 1400 OFFCURVE",
"918 1400 OFFCURVE",
"908 1396 CURVE",
"912 1388 OFFCURVE",
"912 1376 OFFCURVE",
"912 1366 CURVE SMOOTH",
"912 1356 OFFCURVE",
"906 1340 OFFCURVE",
"892 1310 CURVE SMOOTH",
"502 506 LINE",
"532 506 LINE",
"126 1372 LINE SMOOTH",
"118 1390 OFFCURVE",
"104 1400 OFFCURVE",
"86 1400 CURVE SMOOTH",
"68 1400 OFFCURVE",
"52 1392 OFFCURVE",
"40 1378 CURVE",
"50 1366 OFFCURVE",
"72 1344 OFFCURVE",
"82 1322 CURVE SMOOTH",
"488 472 LINE SMOOTH",
"492 464 OFFCURVE",
"504 456 OFFCURVE",
"520 454 CURVE"
);
},
{
closed = 1;
nodes = (
"486 500 LINE",
"488 28 LINE SMOOTH",
"488 0 OFFCURVE",
"500 -16 OFFCURVE",
"522 -16 CURVE SMOOTH",
"540 -16 OFFCURVE",
"550 -8 OFFCURVE",
"558 0 CURVE",
"550 32 OFFCURVE",
"546 90 OFFCURVE",
"546 174 CURVE SMOOTH",
"544 498 LINE"
);
}
);
width = 1024;
},
{
anchors = (
{
name = bottom;
position = "{636, 0}";
},
{
name = top;
position = "{642, 1396}";
},
{
name = topleft;
position = "{40, 1396}";
}
);
layerId = "EBFFFCD3-BAE4-48A5-9442-B72A90AD34A8";
paths = (
{
closed = 1;
nodes = (
"722 498 LINE",
"1100 1128 LINE SMOOTH",
"1136 1184 OFFCURVE",
"1166 1252 OFFCURVE",
"1166 1298 CURVE SMOOTH",
"1164 1360 OFFCURVE",
"1128 1416 OFFCURVE",
"1038 1416 CURVE SMOOTH",
"962 1416 OFFCURVE",
"920 1404 OFFCURVE",
"880 1388 CURVE",
"896 1370 OFFCURVE",
"908 1342 OFFCURVE",
"908 1314 CURVE SMOOTH",
"908 1286 OFFCURVE",
"902 1260 OFFCURVE",
"886 1226 CURVE SMOOTH",
"584 554 LINE",
"696 616 LINE",
"400 1260 LINE SMOOTH",
"358 1352 OFFCURVE",
"318 1416 OFFCURVE",
"206 1416 CURVE SMOOTH",
"108 1416 OFFCURVE",
"34 1358 OFFCURVE",
"8 1330 CURVE",
"56 1284 OFFCURVE",
"92 1224 OFFCURVE",
"110 1190 CURVE SMOOTH",
"412 608 LINE SMOOTH",
"446 546 OFFCURVE",
"484 460 OFFCURVE",
"576 460 CURVE"
);
},
{
closed = 1;
nodes = (
"460 568 LINE",
"460 112 LINE SMOOTH",
"460 24 OFFCURVE",
"528 -30 OFFCURVE",
"620 -30 CURVE SMOOTH",
"696 -30 OFFCURVE",
"756 10 OFFCURVE",
"778 32 CURVE",
"744 120 OFFCURVE",
"738 216 OFFCURVE",
"738 292 CURVE SMOOTH",
"738 620 LINE"
);
}
);
width = 1200;
}
);
leftKerningGroup = Y;
rightKerningGroup = Y;
unicode = 0059;
},
{
glyphname = Z;
layers = (
{
anchors = (
{
name = bottom;
position = "{566, 0}";
},
{
name = top;
position = "{566, 1376}";
}
);
layerId = "60CFBDE8-BC08-4808-BF41-F011F3E03A54";
paths = (
{
closed = 1;
nodes = (
"206 0 OFFCURVE",
"294 0 OFFCURVE",
"374 0 CURVE SMOOTH",
"788 0 LINE SMOOTH",
"964 0 OFFCURVE",
"1040 88 OFFCURVE",
"1040 194 CURVE SMOOTH",
"1040 262 OFFCURVE",
"1004 378 OFFCURVE",
"926 378 CURVE SMOOTH",
"910 378 OFFCURVE",
"906 372 OFFCURVE",
"888 362 CURVE",
"936 334 OFFCURVE",
"982 272 OFFCURVE",
"980 190 CURVE SMOOTH",
"978 116 OFFCURVE",
"932 52 OFFCURVE",
"766 52 CURVE SMOOTH",
"156 52 LINE",
"156 26 LINE",
"954 1266 LINE SMOOTH",
"970 1292 OFFCURVE",
"984 1326 OFFCURVE",
"984 1370 CURVE",
"950 1388 LINE",
"906 1378 OFFCURVE",
"832 1378 OFFCURVE",
"694 1378 CURVE SMOOTH",
"346 1378 LINE SMOOTH",
"200 1378 OFFCURVE",
"118 1298 OFFCURVE",
"118 1206 CURVE SMOOTH",
"118 1128 OFFCURVE",
"164 1038 OFFCURVE",
"232 1038 CURVE SMOOTH",
"252 1038 OFFCURVE",
"266 1046 OFFCURVE",
"272 1058 CURVE",
"208 1096 OFFCURVE",
"174 1136 OFFCURVE",
"174 1204 CURVE SMOOTH",
"174 1270 OFFCURVE",
"222 1326 OFFCURVE",
"352 1326 CURVE SMOOTH",
"950 1326 LINE",
"926 1330 LINE",
"142 106 LINE SMOOTH",
"122 76 OFFCURVE",
"104 42 OFFCURVE",
"104 18 CURVE",
"126 -10 LINE"
);
}
);
width = 1106;
},
{
anchors = (
{
name = bottom;
position = "{598, 0}";
},
{
name = top;
position = "{598, 1396}";
}
);
layerId = "EBFFFCD3-BAE4-48A5-9442-B72A90AD34A8";
paths = (
{
closed = 1;
nodes = (
"196 10 OFFCURVE",
"232 12 OFFCURVE",
"306 10 CURVE SMOOTH",
"834 -4 LINE SMOOTH",
"1048 -8 OFFCURVE",
"1148 86 OFFCURVE",
"1148 218 CURVE SMOOTH",
"1148 312 OFFCURVE",
"1096 380 OFFCURVE",
"1016 412 CURVE SMOOTH",
"1000 420 OFFCURVE",
"986 428 OFFCURVE",
"950 434 CURVE",
"958 400 OFFCURVE",
"956 362 OFFCURVE",
"930 324 CURVE SMOOTH",
"908 288 OFFCURVE",
"852 250 OFFCURVE",
"762 244 CURVE SMOOTH",
"238 206 LINE",
"274 134 LINE",
"1032 1114 LINE SMOOTH",
"1090 1186 OFFCURVE",
"1102 1238 OFFCURVE",
"1102 1328 CURVE",
"1068 1410 LINE",
"1002 1388 OFFCURVE",
"916 1386 OFFCURVE",
"838 1388 CURVE SMOOTH",
"432 1402 LINE SMOOTH",
"184 1410 OFFCURVE",
"80 1306 OFFCURVE",
"80 1174 CURVE SMOOTH",
"80 1108 OFFCURVE",
"112 1052 OFFCURVE",
"158 1022 CURVE SMOOTH",
"192 996 OFFCURVE",
"238 978 OFFCURVE",
"284 970 CURVE",
"272 1006 OFFCURVE",
"276 1038 OFFCURVE",
"300 1084 CURVE SMOOTH",
"326 1130 OFFCURVE",
"392 1150 OFFCURVE",
"456 1154 CURVE SMOOTH",
"930 1192 LINE",
"906 1270 LINE",
"156 270 LINE SMOOTH",
"98 200 OFFCURVE",
"88 144 OFFCURVE",
"88 52 CURVE",
"124 -14 LINE"
);
}
);
width = 1194;
}
);
leftKerningGroup = Z;
rightKerningGroup = Z;
unicode = 005A;
},
{
glyphname = a;
layers = (
{
anchors = (
{
name = bottom;
position = "{534, 0}";
},
{
name = ogonek;
position = "{958, -6}";
},
{
name = top;
position = "{506, 1000}";
}
);
layerId = "60CFBDE8-BC08-4808-BF41-F011F3E03A54";
paths = (
{
closed = 1;
nodes = (
"990 -20 OFFCURVE",
"1042 4 OFFCURVE",
"1042 48 CURVE SMOOTH",
"1042 60 OFFCURVE",
"1038 74 OFFCURVE",
"1024 90 CURVE",
"1008 56 OFFCURVE",
"974 36 OFFCURVE",
"948 36 CURVE SMOOTH",
"900 36 OFFCURVE",
"872 68 OFFCURVE",
"872 142 CURVE SMOOTH",
"872 596 LINE SMOOTH",
"872 874 OFFCURVE",
"752 1024 OFFCURVE",
"494 1024 CURVE SMOOTH",
"286 1024 OFFCURVE",
"152 948 OFFCURVE",
"152 790 CURVE SMOOTH",
"152 714 OFFCURVE",
"196 624 OFFCURVE",
"256 624 CURVE SMOOTH",
"268 624 OFFCURVE",
"294 630 OFFCURVE",
"310 656 CURVE",
"242 672 OFFCURVE",
"210 742 OFFCURVE",
"210 794 CURVE SMOOTH",
"210 936 OFFCURVE",
"364 968 OFFCURVE",
"482 968 CURVE SMOOTH",
"714 968 OFFCURVE",
"812 844 OFFCURVE",
"812 596 CURVE SMOOTH",
"812 544 LINE",
"688 558 OFFCURVE",
"540 548 OFFCURVE",
"424 518 CURVE SMOOTH",
"212 460 OFFCURVE",
"110 346 OFFCURVE",
"110 204 CURVE SMOOTH",
"110 76 OFFCURVE",
"186 -24 OFFCURVE",
"346 -24 CURVE SMOOTH",
"542 -24 OFFCURVE",
"746 126 OFFCURVE",
"840 388 CURVE",
"812 412 LINE",
"812 146 LINE SMOOTH",
"812 46 OFFCURVE",
"852 -20 OFFCURVE",
"946 -20 CURVE SMOOTH"
);
},
{
closed = 1;
nodes = (
"222 30 OFFCURVE",
"174 116 OFFCURVE",
"174 208 CURVE SMOOTH",
"174 332 OFFCURVE",
"266 416 OFFCURVE",
"428 464 CURVE SMOOTH",
"528 494 OFFCURVE",
"704 512 OFFCURVE",
"812 502 CURVE",
"806 272 OFFCURVE",
"562 30 OFFCURVE",
"358 30 CURVE SMOOTH"
);
}
);
width = 1068;
},
{
anchors = (
{
name = bottom;
position = "{568, 0}";
},
{
name = ogonek;
position = "{942, -20}";
},
{
name = top;
position = "{548, 1032}";
}
);
layerId = "EBFFFCD3-BAE4-48A5-9442-B72A90AD34A8";
paths = (
{
closed = 1;
nodes = (
"1052 -20 OFFCURVE",
"1124 46 OFFCURVE",
"1124 124 CURVE SMOOTH",
"1124 148 OFFCURVE",
"1116 182 OFFCURVE",
"1098 210 CURVE",
"1084 190 OFFCURVE",
"1058 184 OFFCURVE",
"1044 184 CURVE SMOOTH",
"1000 184 OFFCURVE",
"978 220 OFFCURVE",
"978 290 CURVE SMOOTH",
"978 628 LINE SMOOTH",
"978 940 OFFCURVE",
"844 1062 OFFCURVE",
"546 1062 CURVE SMOOTH",
"284 1062 OFFCURVE",
"116 974 OFFCURVE",
"116 814 CURVE SMOOTH",
"116 710 OFFCURVE",
"190 628 OFFCURVE",
"320 628 CURVE SMOOTH",
"378 628 OFFCURVE",
"434 644 OFFCURVE",
"466 676 CURVE",
"410 708 OFFCURVE",
"396 770 OFFCURVE",
"396 824 CURVE SMOOTH",
"396 930 OFFCURVE",
"452 972 OFFCURVE",
"530 972 CURVE SMOOTH",
"656 972 OFFCURVE",
"696 862 OFFCURVE",
"696 646 CURVE SMOOTH",
"696 596 LINE",
"620 592 OFFCURVE",
"524 584 OFFCURVE",
"418 554 CURVE SMOOTH",
"252 506 OFFCURVE",
"68 408 OFFCURVE",
"68 216 CURVE SMOOTH",
"68 62 OFFCURVE",
"180 -20 OFFCURVE",
"332 -20 CURVE SMOOTH",
"570 -20 OFFCURVE",
"720 168 OFFCURVE",
"760 388 CURVE",
"712 398 LINE",
"712 322 LINE SMOOTH",
"712 66 OFFCURVE",
"796 -20 OFFCURVE",
"934 -20 CURVE SMOOTH"
);
},
{
closed = 1;
nodes = (
"400 150 OFFCURVE",
"370 216 OFFCURVE",
"370 284 CURVE SMOOTH",
"370 364 OFFCURVE",
"416 428 OFFCURVE",
"480 464 CURVE SMOOTH",
"542 500 OFFCURVE",
"626 508 OFFCURVE",
"704 508 CURVE",
"704 312 OFFCURVE",
"578 168 OFFCURVE",
"476 158 CURVE SMOOTH"
);
}
);
width = 1136;
}
);
leftKerningGroup = a;
rightKerningGroup = a;
unicode = 0061;
},
{
glyphname = ae;
layers = (
{
anchors = (
{
name = top;
position = "{858, 1000}";
}
);
layerId = "60CFBDE8-BC08-4808-BF41-F011F3E03A54";
paths = (
{
closed = 1;
nodes = (
"534 -24 OFFCURVE",
"732 114 OFFCURVE",
"830 354 CURVE",
"818 356 LINE",
"858 104 OFFCURVE",
"1010 -24 OFFCURVE",
"1240 -24 CURVE SMOOTH",
"1392 -24 OFFCURVE",
"1524 30 OFFCURVE",
"1574 144 CURVE SMOOTH",
"1598 200 OFFCURVE",
"1582 220 OFFCURVE",
"1558 230 CURVE",
"1522 90 OFFCURVE",
"1384 34 OFFCURVE",
"1246 34 CURVE SMOOTH",
"1060 34 OFFCURVE",
"884 136 OFFCURVE",
"874 468 CURVE",
"938 458 OFFCURVE",
"1010 448 OFFCURVE",
"1106 448 CURVE SMOOTH",
"1412 448 OFFCURVE",
"1580 548 OFFCURVE",
"1580 750 CURVE SMOOTH",
"1580 926 OFFCURVE",
"1454 1024 OFFCURVE",
"1256 1024 CURVE SMOOTH",
"1050 1024 OFFCURVE",
"910 920 OFFCURVE",
"850 740 CURVE",
"860 738 LINE",
"822 926 OFFCURVE",
"704 1024 OFFCURVE",
"494 1024 CURVE SMOOTH",
"286 1024 OFFCURVE",
"152 948 OFFCURVE",
"152 790 CURVE SMOOTH",
"152 714 OFFCURVE",
"196 624 OFFCURVE",
"256 624 CURVE SMOOTH",
"268 624 OFFCURVE",
"294 630 OFFCURVE",
"310 656 CURVE",
"242 672 OFFCURVE",
"210 742 OFFCURVE",
"210 794 CURVE SMOOTH",
"210 936 OFFCURVE",
"364 968 OFFCURVE",
"482 968 CURVE SMOOTH",
"714 968 OFFCURVE",
"812 844 OFFCURVE",
"812 596 CURVE SMOOTH",
"812 544 LINE",
"688 558 OFFCURVE",
"540 548 OFFCURVE",
"424 518 CURVE SMOOTH",
"212 460 OFFCURVE",
"110 346 OFFCURVE",
"110 204 CURVE SMOOTH",
"110 76 OFFCURVE",
"186 -24 OFFCURVE",
"346 -24 CURVE SMOOTH"
);
},
{
closed = 1;
nodes = (
"222 30 OFFCURVE",
"174 116 OFFCURVE",
"174 208 CURVE SMOOTH",
"174 332 OFFCURVE",
"266 416 OFFCURVE",
"428 464 CURVE SMOOTH",
"532 496 OFFCURVE",
"718 514 OFFCURVE",
"824 500 CURVE",
"810 522 LINE",
"810 498 OFFCURVE",
"810 514 OFFCURVE",
"810 474 CURVE",
"786 252 OFFCURVE",
"554 30 OFFCURVE",
"358 30 CURVE SMOOTH"
);
},
{
closed = 1;
nodes = (
"1056 498 OFFCURVE",
"950 506 OFFCURVE",
"874 518 CURVE",
"882 826 OFFCURVE",
"1036 970 OFFCURVE",
"1252 970 CURVE SMOOTH",
"1380 970 OFFCURVE",
"1518 920 OFFCURVE",
"1518 750 CURVE SMOOTH",
"1518 582 OFFCURVE",
"1382 498 OFFCURVE",
"1130 498 CURVE SMOOTH"
);
}
);
width = 1698;
},
{
anchors = (
{
name = top;
position = "{864, 1032}";
}
);
layerId = "EBFFFCD3-BAE4-48A5-9442-B72A90AD34A8";
paths = (
{
closed = 1;
nodes = (
"550 -20 OFFCURVE",
"696 138 OFFCURVE",
"756 334 CURVE",
"734 336 LINE",
"792 102 OFFCURVE",
"970 -28 OFFCURVE",
"1222 -28 CURVE SMOOTH",
"1412 -28 OFFCURVE",
"1552 46 OFFCURVE",
"1604 176 CURVE SMOOTH",
"1634 250 OFFCURVE",
"1614 280 OFFCURVE",
"1586 292 CURVE",
"1542 208 OFFCURVE",
"1448 142 OFFCURVE",
"1300 142 CURVE SMOOTH",
"1134 142 OFFCURVE",
"1030 224 OFFCURVE",
"1010 460 CURVE",
"1080 452 OFFCURVE",
"1144 452 OFFCURVE",
"1206 452 CURVE SMOOTH",
"1460 452 OFFCURVE",
"1636 560 OFFCURVE",
"1636 758 CURVE SMOOTH",
"1636 960 OFFCURVE",
"1454 1062 OFFCURVE",
"1224 1062 CURVE SMOOTH",
"1056 1062 OFFCURVE",
"926 1010 OFFCURVE",
"840 912 CURVE",
"882 910 LINE",
"816 1008 OFFCURVE",
"710 1062 OFFCURVE",
"554 1062 CURVE SMOOTH",
"284 1062 OFFCURVE",
"116 974 OFFCURVE",
"116 814 CURVE SMOOTH",
"116 710 OFFCURVE",
"190 628 OFFCURVE",
"320 628 CURVE SMOOTH",
"378 628 OFFCURVE",
"434 644 OFFCURVE",
"466 676 CURVE",
"410 708 OFFCURVE",
"396 770 OFFCURVE",
"396 824 CURVE SMOOTH",
"396 930 OFFCURVE",
"452 972 OFFCURVE",
"538 972 CURVE SMOOTH",
"664 972 OFFCURVE",
"704 862 OFFCURVE",
"704 646 CURVE SMOOTH",
"704 596 LINE",
"620 592 OFFCURVE",
"524 584 OFFCURVE",
"418 554 CURVE SMOOTH",
"252 506 OFFCURVE",
"68 408 OFFCURVE",
"68 216 CURVE SMOOTH",
"68 62 OFFCURVE",
"180 -20 OFFCURVE",
"332 -20 CURVE SMOOTH"
);
},
{
closed = 1;
nodes = (
"400 150 OFFCURVE",
"370 216 OFFCURVE",
"370 284 CURVE SMOOTH",
"370 364 OFFCURVE",
"416 428 OFFCURVE",
"480 464 CURVE SMOOTH",
"552 506 OFFCURVE",
"652 510 OFFCURVE",
"750 508 CURVE",
"710 556 LINE",
"712 540 OFFCURVE",
"712 524 OFFCURVE",
"712 508 CURVE SMOOTH",
"712 312 OFFCURVE",
"578 168 OFFCURVE",
"476 158 CURVE SMOOTH"
);
},
{
closed = 1;
nodes = (
"1030 552 OFFCURVE",
"1018 552 OFFCURVE",
"1006 554 CURVE",
"1006 814 OFFCURVE",
"1082 970 OFFCURVE",
"1214 970 CURVE SMOOTH",
"1278 970 OFFCURVE",
"1340 938 OFFCURVE",
"1340 804 CURVE SMOOTH",
"1340 568 OFFCURVE",
"1162 550 OFFCURVE",
"1044 552 CURVE SMOOTH"
);
}
);
width = 1698;
}
);
leftKerningGroup = a;
leftMetricsKey = a;
rightKerningGroup = e;
rightMetricsKey = e;
unicode = 00E6;
},
{
glyphname = b;
layers = (
{
anchors = (
{
name = bottom;
position = "{530, 0}";
},
{
name = top;
position = "{530, 1000}";
}
);
layerId = "60CFBDE8-BC08-4808-BF41-F011F3E03A54";
paths = (
{
closed = 1;
nodes = (
"838 -24 OFFCURVE",
"952 252 OFFCURVE",
"952 550 CURVE SMOOTH",
"952 876 OFFCURVE",
"834 1024 OFFCURVE",
"612 1024 CURVE SMOOTH",
"428 1024 OFFCURVE",
"290 886 OFFCURVE",
"238 730 CURVE",
"240 1270 LINE SMOOTH",
"240 1308 OFFCURVE",
"244 1420 OFFCURVE",
"250 1440 CURVE",
"242 1448 OFFCURVE",
"232 1456 OFFCURVE",
"214 1456 CURVE SMOOTH",
"190 1456 OFFCURVE",
"176 1440 OFFCURVE",
"176 1412 CURVE",
"176 112 LINE",
"270 -4 OFFCURVE",
"440 -24 OFFCURVE",
"534 -24 CURVE SMOOTH"
);
},
{
closed = 1;
nodes = (
"416 28 OFFCURVE",
"276 78 OFFCURVE",
"236 140 CURVE",
"236 440 LINE SMOOTH",
"236 628 OFFCURVE",
"324 968 OFFCURVE",
"616 968 CURVE SMOOTH",
"786 968 OFFCURVE",
"890 842 OFFCURVE",
"890 552 CURVE SMOOTH",
"890 340 OFFCURVE",
"838 40 OFFCURVE",
"540 32 CURVE SMOOTH"
);
}
);
width = 1058;
},
{
anchors = (
{
name = bottom;
position = "{556, 0}";
},
{
name = top;
position = "{556, 1032}";
}
);
layerId = "EBFFFCD3-BAE4-48A5-9442-B72A90AD34A8";
paths = (
{
closed = 1;
nodes = (
"900 -28 OFFCURVE",
"1044 194 OFFCURVE",
"1044 554 CURVE SMOOTH",
"1044 920 OFFCURVE",
"898 1062 OFFCURVE",
"688 1062 CURVE SMOOTH",
"538 1062 OFFCURVE",
"432 986 OFFCURVE",
"388 862 CURVE",
"388 970 LINE SMOOTH",
"388 1068 OFFCURVE",
"394 1250 OFFCURVE",
"432 1406 CURVE",
"406 1426 OFFCURVE",
"344 1466 OFFCURVE",
"262 1466 CURVE SMOOTH",
"180 1466 OFFCURVE",
"116 1414 OFFCURVE",
"116 1324 CURVE",
"116 104 LINE",
"210 22 OFFCURVE",
"376 -28 OFFCURVE",
"554 -28 CURVE SMOOTH"
);
},
{
closed = 1;
nodes = (
"480 80 OFFCURVE",
"426 98 OFFCURVE",
"390 122 CURVE",
"390 496 LINE SMOOTH",
"390 726 OFFCURVE",
"466 920 OFFCURVE",
"622 920 CURVE SMOOTH",
"714 920 OFFCURVE",
"750 810 OFFCURVE",
"750 554 CURVE SMOOTH",
"750 298 OFFCURVE",
"718 82 OFFCURVE",
"534 80 CURVE SMOOTH"
);
}
);
width = 1112;
}
);
leftKerningGroup = h;
rightKerningGroup = o;
rightMetricsKey = o;
unicode = 0062;
},
{
glyphname = c;
layers = (
{
anchors = (
{
name = bottom;
position = "{536, 0}";
},
{
name = top;
position = "{542, 1000}";
}
);
layerId = "60CFBDE8-BC08-4808-BF41-F011F3E03A54";
paths = (
{
closed = 1;
nodes = (
"692 -24 OFFCURVE",
"820 42 OFFCURVE",
"870 184 CURVE SMOOTH",
"894 242 OFFCURVE",
"878 260 OFFCURVE",
"854 270 CURVE",
"816 96 OFFCURVE",
"678 34 OFFCURVE",
"536 34 CURVE SMOOTH",
"354 34 OFFCURVE",
"170 140 OFFCURVE",
"170 494 CURVE SMOOTH",
"170 816 OFFCURVE",
"330 972 OFFCURVE",
"544 972 CURVE SMOOTH",
"678 972 OFFCURVE",
"804 910 OFFCURVE",
"804 774 CURVE SMOOTH",
"804 718 OFFCURVE",
"782 670 OFFCURVE",
"730 670 CURVE",
"746 642 OFFCURVE",
"764 638 OFFCURVE",
"782 638 CURVE SMOOTH",
"834 638 OFFCURVE",
"868 694 OFFCURVE",
"868 774 CURVE SMOOTH",
"868 928 OFFCURVE",
"746 1024 OFFCURVE",
"554 1024 CURVE SMOOTH",
"270 1024 OFFCURVE",
"106 818 OFFCURVE",
"106 486 CURVE SMOOTH",
"106 146 OFFCURVE",
"272 -24 OFFCURVE",
"530 -24 CURVE SMOOTH"
);
}
);
width = 998;
},
{
anchors = (
{
name = bottom;
position = "{560, 0}";
},
{
name = top;
position = "{556, 1032}";
}
);
layerId = "EBFFFCD3-BAE4-48A5-9442-B72A90AD34A8";
paths = (
{
closed = 1;
nodes = (
"770 -28 OFFCURVE",
"916 56 OFFCURVE",
"954 198 CURVE SMOOTH",
"972 274 OFFCURVE",
"956 310 OFFCURVE",
"928 322 CURVE",
"900 220 OFFCURVE",
"802 142 OFFCURVE",
"660 142 CURVE SMOOTH",
"470 142 OFFCURVE",
"362 268 OFFCURVE",
"362 564 CURVE SMOOTH",
"362 822 OFFCURVE",
"436 970 OFFCURVE",
"560 970 CURVE SMOOTH",
"630 970 OFFCURVE",
"678 934 OFFCURVE",
"678 830 CURVE SMOOTH",
"678 760 OFFCURVE",
"660 712 OFFCURVE",
"622 676 CURVE",
"652 644 OFFCURVE",
"710 628 OFFCURVE",
"764 628 CURVE SMOOTH",
"874 628 OFFCURVE",
"952 696 OFFCURVE",
"952 806 CURVE SMOOTH",
"952 944 OFFCURVE",
"834 1062 OFFCURVE",
"582 1062 CURVE SMOOTH",
"250 1062 OFFCURVE",
"68 856 OFFCURVE",
"68 520 CURVE SMOOTH",
"68 170 OFFCURVE",
"250 -28 OFFCURVE",
"576 -28 CURVE SMOOTH"
);
}
);
width = 1026;
}
);
leftKerningGroup = o;
leftMetricsKey = o;
rightKerningGroup = c;
unicode = 0063;
},
{
glyphname = d;
layers = (
{
anchors = (
{
name = bottom;
position = "{548, 0}";
},
{
name = center;
position = "{548, 500}";
},
{
name = top;
position = "{548, 1000}";
},
{
name = topright;
position = "{1056, 1000}";
}
);
layerId = "60CFBDE8-BC08-4808-BF41-F011F3E03A54";
paths = (
{
closed = 1;
nodes = (
"710 -24 OFFCURVE",
"834 224 OFFCURVE",
"868 458 CURVE",
"822 400 LINE",
"822 146 LINE SMOOTH",
"822 40 OFFCURVE",
"860 -14 OFFCURVE",
"936 -14 CURVE SMOOTH",
"984 -14 OFFCURVE",
"1016 4 OFFCURVE",
"1016 34 CURVE SMOOTH",
"1016 48 OFFCURVE",
"1010 62 OFFCURVE",
"996 78 CURVE",
"982 46 OFFCURVE",
"958 42 OFFCURVE",
"942 42 CURVE SMOOTH",
"906 42 OFFCURVE",
"882 68 OFFCURVE",
"882 142 CURVE SMOOTH",
"884 1412 LINE SMOOTH",
"884 1440 OFFCURVE",
"870 1456 OFFCURVE",
"846 1456 CURVE SMOOTH",
"828 1456 OFFCURVE",
"818 1448 OFFCURVE",
"810 1440 CURVE",
"816 1416 OFFCURVE",
"820 1364 OFFCURVE",
"820 1256 CURVE SMOOTH",
"822 828 LINE",
"778 952 OFFCURVE",
"670 1024 OFFCURVE",
"518 1024 CURVE SMOOTH",
"248 1024 OFFCURVE",
"106 800 OFFCURVE",
"106 444 CURVE SMOOTH",
"106 288 OFFCURVE",
"134 -24 OFFCURVE",
"438 -24 CURVE SMOOTH"
);
},
{
closed = 1;
nodes = (
"194 32 OFFCURVE",
"170 300 OFFCURVE",
"170 448 CURVE SMOOTH",
"170 802 OFFCURVE",
"306 968 OFFCURVE",
"506 968 CURVE SMOOTH",
"762 968 OFFCURVE",
"822 750 OFFCURVE",
"822 572 CURVE SMOOTH",
"822 260 OFFCURVE",
"672 32 OFFCURVE",
"442 32 CURVE SMOOTH"
);
}
);
width = 1088;
},
{
anchors = (
{
name = bottom;
position = "{592, 0}";
},
{
name = center;
position = "{592, 516}";
},
{
name = top;
position = "{592, 1032}";
},
{
name = topright;
position = "{1144, 1032}";
}
);
layerId = "EBFFFCD3-BAE4-48A5-9442-B72A90AD34A8";
paths = (
{
closed = 1;
nodes = (
"630 -28 OFFCURVE",
"758 114 OFFCURVE",
"794 418 CURVE",
"752 440 LINE",
"752 348 LINE SMOOTH",
"752 124 OFFCURVE",
"818 -18 OFFCURVE",
"974 -18 CURVE SMOOTH",
"1074 -18 OFFCURVE",
"1152 40 OFFCURVE",
"1152 122 CURVE SMOOTH",
"1152 146 OFFCURVE",
"1144 180 OFFCURVE",
"1126 208 CURVE",
"1114 190 OFFCURVE",
"1088 186 OFFCURVE",
"1074 186 CURVE SMOOTH",
"1030 186 OFFCURVE",
"1006 220 OFFCURVE",
"1006 290 CURVE SMOOTH",
"1008 1324 LINE SMOOTH",
"1008 1414 OFFCURVE",
"938 1466 OFFCURVE",
"850 1466 CURVE SMOOTH",
"772 1466 OFFCURVE",
"716 1426 OFFCURVE",
"692 1406 CURVE",
"732 1270 OFFCURVE",
"738 1118 OFFCURVE",
"738 1026 CURVE SMOOTH",
"738 944 LINE",
"700 1020 OFFCURVE",
"618 1062 OFFCURVE",
"496 1062 CURVE SMOOTH",
"222 1062 OFFCURVE",
"68 852 OFFCURVE",
"68 480 CURVE SMOOTH",
"68 184 OFFCURVE",
"170 -28 OFFCURVE",
"424 -28 CURVE SMOOTH"
);
},
{
closed = 1;
nodes = (
"398 120 OFFCURVE",
"362 240 OFFCURVE",
"362 486 CURVE SMOOTH",
"362 762 OFFCURVE",
"416 926 OFFCURVE",
"566 926 CURVE SMOOTH",
"710 926 OFFCURVE",
"732 792 OFFCURVE",
"732 648 CURVE SMOOTH",
"732 386 OFFCURVE",
"666 120 OFFCURVE",
"508 120 CURVE SMOOTH"
);
}
);
width = 1184;
}
);
leftKerningGroup = o;
leftMetricsKey = o;
rightKerningGroup = d;
unicode = 0064;
},
{
glyphname = eth;
layers = (
{
layerId = "60CFBDE8-BC08-4808-BF41-F011F3E03A54";
paths = (
{
closed = 1;
nodes = (
"790 -24 OFFCURVE",
"888 234 OFFCURVE",
"888 568 CURVE SMOOTH",
"888 1046 OFFCURVE",
"686 1456 OFFCURVE",
"330 1456 CURVE SMOOTH",
"308 1456 OFFCURVE",
"280 1422 OFFCURVE",
"290 1396 CURVE",
"296 1396 OFFCURVE",
"318 1398 OFFCURVE",
"340 1398 CURVE SMOOTH",
"552 1398 OFFCURVE",
"796 1100 OFFCURVE",
"812 700 CURVE",
"834 742 LINE",
"822 908 OFFCURVE",
"674 986 OFFCURVE",
"516 986 CURVE SMOOTH",
"248 986 OFFCURVE",
"106 760 OFFCURVE",
"106 468 CURVE SMOOTH",
"106 298 OFFCURVE",
"144 -24 OFFCURVE",
"484 -24 CURVE SMOOTH"
);
},
{
closed = 1;
nodes = (
"222 32 OFFCURVE",
"170 300 OFFCURVE",
"170 492 CURVE SMOOTH",
"170 758 OFFCURVE",
"302 930 OFFCURVE",
"516 930 CURVE SMOOTH",
"760 930 OFFCURVE",
"822 708 OFFCURVE",
"822 532 CURVE SMOOTH",
"822 264 OFFCURVE",
"724 32 OFFCURVE",
"482 32 CURVE SMOOTH"
);
},
{
closed = 1;
nodes = (
"432 1148 OFFCURVE",
"438 1132 OFFCURVE",
"454 1120 CURVE",
"858 1334 LINE",
"858 1354 OFFCURVE",
"852 1370 OFFCURVE",
"836 1378 CURVE",
"432 1164 LINE"
);
}
);
width = 994;
},
{
layerId = "EBFFFCD3-BAE4-48A5-9442-B72A90AD34A8";
paths = (
{
closed = 1;
nodes = (
"866 -28 OFFCURVE",
"1030 238 OFFCURVE",
"1030 588 CURVE SMOOTH",
"1030 1072 OFFCURVE",
"826 1468 OFFCURVE",
"464 1468 CURVE SMOOTH",
"320 1468 OFFCURVE",
"292 1372 OFFCURVE",
"282 1292 CURVE",
"292 1294 OFFCURVE",
"308 1296 OFFCURVE",
"326 1296 CURVE SMOOTH",
"486 1296 OFFCURVE",
"734 1122 OFFCURVE",
"744 892 CURVE",
"786 850 LINE",
"754 932 OFFCURVE",
"662 1012 OFFCURVE",
"494 1012 CURVE SMOOTH",
"224 1012 OFFCURVE",
"68 802 OFFCURVE",
"68 484 CURVE SMOOTH",
"68 186 OFFCURVE",
"172 -28 OFFCURVE",
"526 -28 CURVE SMOOTH"
);
},
{
closed = 1;
nodes = (
"402 120 OFFCURVE",
"362 240 OFFCURVE",
"362 494 CURVE SMOOTH",
"362 714 OFFCURVE",
"414 876 OFFCURVE",
"564 876 CURVE SMOOTH",
"700 876 OFFCURVE",
"732 740 OFFCURVE",
"732 554 CURVE SMOOTH",
"732 242 OFFCURVE",
"676 120 OFFCURVE",
"540 120 CURVE SMOOTH"
);
},
{
closed = 1;
nodes = (
"426 1134 OFFCURVE",
"442 1106 OFFCURVE",
"476 1086 CURVE",
"944 1366 LINE",
"942 1408 OFFCURVE",
"924 1438 OFFCURVE",
"890 1454 CURVE",
"422 1172 LINE"
);
}
);
width = 1098;
}
);
leftKerningGroup = o;
unicode = 00F0;
},
{
glyphname = dcroat;
layers = (
{
components = (
{
name = d;
}
);
layerId = "60CFBDE8-BC08-4808-BF41-F011F3E03A54";
paths = (
{
closed = 1;
nodes = (
"570 1210 OFFCURVE",
"570 1192 OFFCURVE",
"578 1176 CURVE",
"1036 1176 LINE",
"1044 1192 OFFCURVE",
"1044 1210 OFFCURVE",
"1036 1226 CURVE",
"578 1226 LINE"
);
}
);
width = 1096;
},
{
components = (
{
name = d;
}
);
layerId = "EBFFFCD3-BAE4-48A5-9442-B72A90AD34A8";
paths = (
{
closed = 1;
nodes = (
"528 1220 OFFCURVE",
"528 1188 OFFCURVE",
"538 1152 CURVE",
"1140 1152 LINE",
"1150 1188 OFFCURVE",
"1150 1220 OFFCURVE",
"1140 1254 CURVE",
"538 1254 LINE"
);
}
);
width = 1184;
}
);
leftKerningGroup = o;
rightKerningGroup = d;
unicode = 0111;
},
{
glyphname = e;
layers = (
{
anchors = (
{
name = bottom;
position = "{498, 0}";
},
{
name = ogonek;
position = "{730, 34}";
},
{
name = top;
position = "{536, 1000}";
}
);
layerId = "60CFBDE8-BC08-4808-BF41-F011F3E03A54";
paths = (
{
closed = 1;
nodes = (
"688 -24 OFFCURVE",
"820 30 OFFCURVE",
"870 144 CURVE SMOOTH",
"894 200 OFFCURVE",
"878 220 OFFCURVE",
"854 230 CURVE",
"818 90 OFFCURVE",
"680 34 OFFCURVE",
"542 34 CURVE SMOOTH",
"352 34 OFFCURVE",
"170 142 OFFCURVE",
"170 494 CURVE SMOOTH",
"170 818 OFFCURVE",
"326 970 OFFCURVE",
"548 970 CURVE SMOOTH",
"676 970 OFFCURVE",
"814 920 OFFCURVE",
"814 750 CURVE SMOOTH",
"814 582 OFFCURVE",
"678 498 OFFCURVE",
"426 498 CURVE SMOOTH",
"340 498 OFFCURVE",
"210 508 OFFCURVE",
"134 524 CURVE",
"134 474 LINE",
"208 462 OFFCURVE",
"288 448 OFFCURVE",
"402 448 CURVE SMOOTH",
"708 448 OFFCURVE",
"876 548 OFFCURVE",
"876 750 CURVE SMOOTH",
"876 926 OFFCURVE",
"750 1024 OFFCURVE",
"552 1024 CURVE SMOOTH",
"260 1024 OFFCURVE",
"106 816 OFFCURVE",
"106 486 CURVE SMOOTH",
"106 146 OFFCURVE",
"268 -24 OFFCURVE",
"536 -24 CURVE SMOOTH"
);
}
);
width = 994;
},
{
anchors = (
{
name = bottom;
position = "{536, 0}";
},
{
name = ogonek;
position = "{730, 6}";
},
{
name = top;
position = "{544, 1032}";
}
);
layerId = "EBFFFCD3-BAE4-48A5-9442-B72A90AD34A8";
paths = (
{
closed = 1;
nodes = (
"768 -28 OFFCURVE",
"908 46 OFFCURVE",
"960 176 CURVE SMOOTH",
"990 250 OFFCURVE",
"970 280 OFFCURVE",
"942 292 CURVE",
"898 208 OFFCURVE",
"804 142 OFFCURVE",
"656 142 CURVE SMOOTH",
"468 142 OFFCURVE",
"362 246 OFFCURVE",
"362 556 CURVE SMOOTH",
"362 814 OFFCURVE",
"438 970 OFFCURVE",
"570 970 CURVE SMOOTH",
"634 970 OFFCURVE",
"696 938 OFFCURVE",
"696 804 CURVE SMOOTH",
"696 568 OFFCURVE",
"518 550 OFFCURVE",
"400 552 CURVE SMOOTH",
"312 554 OFFCURVE",
"258 564 OFFCURVE",
"202 570 CURVE",
"194 488 LINE",
"334 454 OFFCURVE",
"454 452 OFFCURVE",
"562 452 CURVE SMOOTH",
"816 452 OFFCURVE",
"992 560 OFFCURVE",
"992 758 CURVE SMOOTH",
"992 960 OFFCURVE",
"810 1062 OFFCURVE",
"580 1062 CURVE SMOOTH",
"248 1062 OFFCURVE",
"68 856 OFFCURVE",
"68 520 CURVE SMOOTH",
"68 170 OFFCURVE",
"268 -28 OFFCURVE",
"578 -28 CURVE SMOOTH"
);
}
);
width = 1054;
}
);
leftKerningGroup = o;
leftMetricsKey = o;
rightKerningGroup = e;
unicode = 0065;
},
{
glyphname = schwa;
layers = (
{
layerId = "60CFBDE8-BC08-4808-BF41-F011F3E03A54";
paths = (
{
closed = 1;
nodes = (
"306 1024 OFFCURVE",
"174 970 OFFCURVE",
"124 856 CURVE SMOOTH",
"100 800 OFFCURVE",
"116 780 OFFCURVE",
"140 770 CURVE",
"176 910 OFFCURVE",
"314 966 OFFCURVE",
"452 966 CURVE SMOOTH",
"642 966 OFFCURVE",
"824 858 OFFCURVE",
"824 506 CURVE SMOOTH",
"824 182 OFFCURVE",
"668 30 OFFCURVE",
"446 30 CURVE SMOOTH",
"318 30 OFFCURVE",
"180 80 OFFCURVE",
"180 250 CURVE SMOOTH",
"180 418 OFFCURVE",
"316 502 OFFCURVE",
"568 502 CURVE SMOOTH",
"654 502 OFFCURVE",
"784 492 OFFCURVE",
"860 476 CURVE",
"860 526 LINE",
"786 538 OFFCURVE",
"706 552 OFFCURVE",
"592 552 CURVE SMOOTH",
"286 552 OFFCURVE",
"118 452 OFFCURVE",
"118 250 CURVE SMOOTH",
"118 74 OFFCURVE",
"244 -24 OFFCURVE",
"442 -24 CURVE SMOOTH",
"734 -24 OFFCURVE",
"888 184 OFFCURVE",
"888 514 CURVE SMOOTH",
"888 854 OFFCURVE",
"726 1024 OFFCURVE",
"458 1024 CURVE SMOOTH"
);
}
);
width = 994;
},
{
layerId = "EBFFFCD3-BAE4-48A5-9442-B72A90AD34A8";
paths = (
{
closed = 1;
nodes = (
"300 1062 OFFCURVE",
"162 986 OFFCURVE",
"108 858 CURVE SMOOTH",
"78 784 OFFCURVE",
"100 754 OFFCURVE",
"126 740 CURVE",
"170 824 OFFCURVE",
"264 890 OFFCURVE",
"414 890 CURVE SMOOTH",
"600 890 OFFCURVE",
"706 788 OFFCURVE",
"706 476 CURVE SMOOTH",
"706 218 OFFCURVE",
"632 62 OFFCURVE",
"498 62 CURVE SMOOTH",
"436 62 OFFCURVE",
"372 94 OFFCURVE",
"372 228 CURVE SMOOTH",
"372 466 OFFCURVE",
"550 482 OFFCURVE",
"670 480 CURVE SMOOTH",
"758 478 OFFCURVE",
"812 468 OFFCURVE",
"866 462 CURVE",
"876 544 LINE",
"734 580 OFFCURVE",
"614 582 OFFCURVE",
"508 582 CURVE SMOOTH",
"252 582 OFFCURVE",
"78 474 OFFCURVE",
"78 274 CURVE SMOOTH",
"78 72 OFFCURVE",
"258 -28 OFFCURVE",
"490 -28 CURVE SMOOTH",
"820 -28 OFFCURVE",
"1002 178 OFFCURVE",
"1002 512 CURVE SMOOTH",
"1002 864 OFFCURVE",
"802 1062 OFFCURVE",
"490 1062 CURVE SMOOTH"
);
}
);
width = 1070;
}
);
rightKerningGroup = o;
rightMetricsKey = o;
unicode = 0259;
},
{
glyphname = f;
layers = (
{
anchors = (
{
name = bottom;
position = "{380, 0}";
},
{
name = top;
position = "{380, 1000}";
}
);
layerId = "60CFBDE8-BC08-4808-BF41-F011F3E03A54";
paths = (
{
closed = 1;
nodes = (
"288 -16 OFFCURVE",
"298 -8 OFFCURVE",
"306 0 CURVE",
"298 32 OFFCURVE",
"294 94 OFFCURVE",
"294 174 CURVE SMOOTH",
"296 1148 LINE SMOOTH",
"296 1280 OFFCURVE",
"324 1424 OFFCURVE",
"514 1424 CURVE SMOOTH",
"610 1424 OFFCURVE",
"686 1392 OFFCURVE",
"686 1296 CURVE SMOOTH",
"686 1270 OFFCURVE",
"682 1230 OFFCURVE",
"646 1186 CURVE",
"650 1184 OFFCURVE",
"654 1184 OFFCURVE",
"658 1184 CURVE SMOOTH",
"688 1184 OFFCURVE",
"744 1226 OFFCURVE",
"744 1312 CURVE SMOOTH",
"744 1422 OFFCURVE",
"642 1480 OFFCURVE",
"518 1480 CURVE SMOOTH",
"270 1480 OFFCURVE",
"234 1286 OFFCURVE",
"234 1154 CURVE SMOOTH",
"236 28 LINE SMOOTH",
"236 0 OFFCURVE",
"248 -16 OFFCURVE",
"270 -16 CURVE SMOOTH"
);
},
{
closed = 1;
nodes = (
"98 946 OFFCURVE",
"166 948 OFFCURVE",
"192 948 CURVE SMOOTH",
"586 948 LINE SMOOTH",
"598 948 OFFCURVE",
"606 960 OFFCURVE",
"608 976 CURVE SMOOTH",
"610 1004 LINE",
"590 1002 OFFCURVE",
"526 1000 OFFCURVE",
"506 1000 CURVE SMOOTH",
"96 1000 LINE SMOOTH",
"84 1000 OFFCURVE",
"76 988 OFFCURVE",
"74 972 CURVE SMOOTH",
"72 944 LINE"
);
}
);
width = 744;
},
{
anchors = (
{
name = bottom;
position = "{408, 0}";
},
{
name = top;
position = "{408, 1032}";
}
);
layerId = "EBFFFCD3-BAE4-48A5-9442-B72A90AD34A8";
paths = (
{
closed = 1;
nodes = (
"386 -30 OFFCURVE",
"436 0 OFFCURVE",
"472 32 CURVE",
"438 120 OFFCURVE",
"432 232 OFFCURVE",
"432 292 CURVE SMOOTH",
"432 1014 LINE SMOOTH",
"432 1220 OFFCURVE",
"426 1402 OFFCURVE",
"546 1402 CURVE SMOOTH",
"598 1402 OFFCURVE",
"620 1378 OFFCURVE",
"620 1322 CURVE SMOOTH",
"620 1288 OFFCURVE",
"610 1258 OFFCURVE",
"584 1220 CURVE",
"608 1192 OFFCURVE",
"654 1178 OFFCURVE",
"708 1178 CURVE SMOOTH",
"794 1178 OFFCURVE",
"860 1232 OFFCURVE",
"860 1310 CURVE SMOOTH",
"860 1422 OFFCURVE",
"748 1486 OFFCURVE",
"550 1486 CURVE SMOOTH",
"250 1486 OFFCURVE",
"158 1302 OFFCURVE",
"158 1064 CURVE SMOOTH",
"158 112 LINE SMOOTH",
"158 24 OFFCURVE",
"226 -30 OFFCURVE",
"316 -30 CURVE SMOOTH"
);
},
{
closed = 1;
nodes = (
"48 906 OFFCURVE",
"116 910 OFFCURVE",
"142 910 CURVE SMOOTH",
"614 910 LINE SMOOTH",
"652 910 OFFCURVE",
"682 932 OFFCURVE",
"684 976 CURVE SMOOTH",
"686 1040 LINE",
"666 1036 OFFCURVE",
"476 1032 OFFCURVE",
"456 1032 CURVE SMOOTH",
"96 1032 LINE SMOOTH",
"58 1032 OFFCURVE",
"26 1012 OFFCURVE",
"24 968 CURVE SMOOTH",
"22 902 LINE"
);
}
);
width = 812;
}
);
unicode = 0066;
},
{
glyphname = g;
layers = (
{
anchors = (
{
name = bottom;
position = "{530, 0}";
},
{
name = top;
position = "{530, 1000}";
}
);
layerId = "60CFBDE8-BC08-4808-BF41-F011F3E03A54";
paths = (
{
closed = 1;
nodes = (
"686 -480 OFFCURVE",
"884 -340 OFFCURVE",
"884 92 CURVE SMOOTH",
"884 892 LINE",
"790 1008 OFFCURVE",
"626 1024 OFFCURVE",
"532 1024 CURVE SMOOTH",
"146 1024 OFFCURVE",
"106 682 OFFCURVE",
"106 494 CURVE SMOOTH",
"106 140 OFFCURVE",
"234 -20 OFFCURVE",
"458 -20 CURVE SMOOTH",
"636 -20 OFFCURVE",
"770 82 OFFCURVE",
"822 250 CURVE",
"822 204 OFFCURVE",
"822 162 OFFCURVE",
"822 124 CURVE SMOOTH",
"822 -252 OFFCURVE",
"704 -424 OFFCURVE",
"420 -424 CURVE SMOOTH",
"290 -424 OFFCURVE",
"170 -372 OFFCURVE",
"170 -226 CURVE SMOOTH",
"170 -178 OFFCURVE",
"184 -142 OFFCURVE",
"222 -120 CURVE",
"214 -108 OFFCURVE",
"202 -102 OFFCURVE",
"184 -102 CURVE SMOOTH",
"148 -102 OFFCURVE",
"112 -152 OFFCURVE",
"112 -232 CURVE SMOOTH",
"112 -398 OFFCURVE",
"252 -480 OFFCURVE",
"416 -480 CURVE SMOOTH"
);
},
{
closed = 1;
nodes = (
"274 36 OFFCURVE",
"170 174 OFFCURVE",
"170 490 CURVE SMOOTH",
"170 664 OFFCURVE",
"208 968 OFFCURVE",
"514 968 CURVE SMOOTH",
"646 968 OFFCURVE",
"768 936 OFFCURVE",
"824 866 CURVE",
"822 494 LINE SMOOTH",
"822 326 OFFCURVE",
"746 36 OFFCURVE",
"462 36 CURVE SMOOTH"
);
}
);
width = 1058;
},
{
anchors = (
{
name = bottom;
position = "{548, 0}";
},
{
name = top;
position = "{572, 1044}";
}
);
layerId = "EBFFFCD3-BAE4-48A5-9442-B72A90AD34A8";
paths = (
{
closed = 1;
nodes = (
"764 -448 OFFCURVE",
"990 -310 OFFCURVE",
"990 88 CURVE SMOOTH",
"990 930 LINE",
"892 1012 OFFCURVE",
"734 1062 OFFCURVE",
"560 1062 CURVE SMOOTH",
"200 1062 OFFCURVE",
"68 826 OFFCURVE",
"68 498 CURVE SMOOTH",
"68 136 OFFCURVE",
"214 4 OFFCURVE",
"424 4 CURVE SMOOTH",
"574 4 OFFCURVE",
"674 74 OFFCURVE",
"720 200 CURVE",
"718 152 OFFCURVE",
"718 86 OFFCURVE",
"718 50 CURVE SMOOTH",
"718 -196 OFFCURVE",
"634 -366 OFFCURVE",
"466 -366 CURVE SMOOTH",
"368 -366 OFFCURVE",
"330 -308 OFFCURVE",
"330 -234 CURVE SMOOTH",
"330 -182 OFFCURVE",
"350 -132 OFFCURVE",
"390 -96 CURVE",
"366 -66 OFFCURVE",
"322 -50 OFFCURVE",
"264 -50 CURVE SMOOTH",
"154 -50 OFFCURVE",
"76 -116 OFFCURVE",
"76 -218 CURVE SMOOTH",
"76 -384 OFFCURVE",
"256 -448 OFFCURVE",
"458 -448 CURVE SMOOTH"
);
},
{
closed = 1;
nodes = (
"394 130 OFFCURVE",
"360 218 OFFCURVE",
"360 470 CURVE SMOOTH",
"360 786 OFFCURVE",
"402 970 OFFCURVE",
"576 970 CURVE SMOOTH",
"630 970 OFFCURVE",
"684 954 OFFCURVE",
"718 928 CURVE",
"716 498 LINE SMOOTH",
"714 266 OFFCURVE",
"644 130 OFFCURVE",
"508 130 CURVE SMOOTH"
);
}
);
width = 1094;
}
);
leftKerningGroup = o;
leftMetricsKey = o;
rightKerningGroup = g;
unicode = 0067;
},
{
glyphname = h;
layers = (
{
anchors = (
{
name = bottom;
position = "{558, 0}";
},
{
name = center;
position = "{558, 500}";
},
{
name = top;
position = "{232, 1336}";
}
);
layerId = "60CFBDE8-BC08-4808-BF41-F011F3E03A54";
paths = (
{
closed = 1;
nodes = (
"248 -16 OFFCURVE",
"258 -8 OFFCURVE",
"266 0 CURVE",
"254 48 OFFCURVE",
"254 118 OFFCURVE",
"254 494 CURVE SMOOTH",
"254 866 OFFCURVE",
"466 968 OFFCURVE",
"602 968 CURVE SMOOTH",
"792 968 OFFCURVE",
"868 844 OFFCURVE",
"868 596 CURVE SMOOTH",
"870 28 LINE SMOOTH",
"870 0 OFFCURVE",
"882 -16 OFFCURVE",
"904 -16 CURVE SMOOTH",
"922 -16 OFFCURVE",
"932 -8 OFFCURVE",
"940 0 CURVE",
"932 32 OFFCURVE",
"928 94 OFFCURVE",
"928 174 CURVE SMOOTH",
"926 594 LINE SMOOTH",
"926 874 OFFCURVE",
"826 1024 OFFCURVE",
"608 1024 CURVE SMOOTH",
"420 1024 OFFCURVE",
"244 878 OFFCURVE",
"228 638 CURVE",
"254 654 LINE",
"256 1280 LINE SMOOTH",
"258 1384 OFFCURVE",
"262 1418 OFFCURVE",
"268 1440 CURVE",
"260 1448 OFFCURVE",
"250 1456 OFFCURVE",
"232 1456 CURVE SMOOTH",
"208 1456 OFFCURVE",
"194 1440 OFFCURVE",
"194 1412 CURVE",
"196 28 LINE SMOOTH",
"196 0 OFFCURVE",
"208 -16 OFFCURVE",
"230 -16 CURVE SMOOTH"
);
}
);
width = 1108;
},
{
anchors = (
{
name = bottom;
position = "{572, 0}";
},
{
name = center;
position = "{572, 516}";
},
{
name = top;
position = "{302, 1388}";
}
);
layerId = "EBFFFCD3-BAE4-48A5-9442-B72A90AD34A8";
paths = (
{
closed = 1;
nodes = (
"366 -30 OFFCURVE",
"422 8 OFFCURVE",
"446 30 CURVE",
"400 138 OFFCURVE",
"400 210 OFFCURVE",
"400 470 CURVE SMOOTH",
"400 780 OFFCURVE",
"484 936 OFFCURVE",
"606 936 CURVE SMOOTH",
"722 936 OFFCURVE",
"748 820 OFFCURVE",
"748 618 CURVE SMOOTH",
"748 112 LINE SMOOTH",
"748 24 OFFCURVE",
"816 -30 OFFCURVE",
"906 -30 CURVE SMOOTH",
"976 -30 OFFCURVE",
"1026 0 OFFCURVE",
"1062 32 CURVE",
"1028 120 OFFCURVE",
"1022 232 OFFCURVE",
"1022 292 CURVE SMOOTH",
"1022 662 LINE SMOOTH",
"1022 928 OFFCURVE",
"920 1062 OFFCURVE",
"700 1062 CURVE SMOOTH",
"488 1062 OFFCURVE",
"382 920 OFFCURVE",
"352 680 CURVE",
"398 742 LINE",
"398 916 LINE SMOOTH",
"400 1116 OFFCURVE",
"406 1274 OFFCURVE",
"446 1406 CURVE",
"420 1426 OFFCURVE",
"344 1472 OFFCURVE",
"258 1464 CURVE SMOOTH",
"184 1458 OFFCURVE",
"128 1414 OFFCURVE",
"130 1324 CURVE",
"130 126 LINE SMOOTH",
"130 30 OFFCURVE",
"200 -30 OFFCURVE",
"290 -30 CURVE SMOOTH"
);
}
);
width = 1142;
}
);
leftKerningGroup = h;
rightKerningGroup = n;
rightMetricsKey = n;
unicode = 0068;
},
{
glyphname = hbar;
layers = (
{
components = (
{
name = h;
}
);
layerId = "60CFBDE8-BC08-4808-BF41-F011F3E03A54";
paths = (
{
closed = 1;
nodes = (
"52 1210 OFFCURVE",
"52 1192 OFFCURVE",
"60 1176 CURVE",
"518 1176 LINE",
"526 1192 OFFCURVE",
"526 1210 OFFCURVE",
"518 1226 CURVE",
"60 1226 LINE"
);
}
);
width = 1128;
},
{
components = (
{
name = h;
}
);
layerId = "EBFFFCD3-BAE4-48A5-9442-B72A90AD34A8";
paths = (
{
closed = 1;
nodes = (
"-14 1198 OFFCURVE",
"-14 1166 OFFCURVE",
"-6 1132 CURVE",
"618 1132 LINE",
"628 1166 OFFCURVE",
"628 1198 OFFCURVE",
"618 1232 CURVE",
"-6 1232 LINE"
);
}
);
width = 1146;
}
);
leftKerningGroup = h;
rightKerningGroup = n;
unicode = 0127;
},
{
glyphname = i;
layers = (
{
anchors = (
{
name = bottom;
position = "{248, 0}";
}
);
layerId = "60CFBDE8-BC08-4808-BF41-F011F3E03A54";
paths = (
{
closed = 1;
nodes = (
"276 1252 OFFCURVE",
"308 1284 OFFCURVE",
"308 1320 CURVE SMOOTH",
"308 1356 OFFCURVE",
"276 1388 OFFCURVE",
"240 1388 CURVE SMOOTH",
"204 1388 OFFCURVE",
"172 1356 OFFCURVE",
"172 1320 CURVE SMOOTH",
"172 1284 OFFCURVE",
"204 1252 OFFCURVE",
"240 1252 CURVE SMOOTH"
);
},
{
closed = 1;
nodes = (
"274 980 LINE SMOOTH",
"274 1008 OFFCURVE",
"262 1024 OFFCURVE",
"240 1024 CURVE SMOOTH",
"222 1024 OFFCURVE",
"212 1016 OFFCURVE",
"204 1008 CURVE",
"212 976 OFFCURVE",
"216 914 OFFCURVE",
"216 834 CURVE SMOOTH",
"220 28 LINE SMOOTH",
"220 0 OFFCURVE",
"232 -16 OFFCURVE",
"254 -16 CURVE SMOOTH",
"272 -16 OFFCURVE",
"282 -8 OFFCURVE",
"290 0 CURVE",
"282 32 OFFCURVE",
"278 94 OFFCURVE",
"278 174 CURVE SMOOTH"
);
}
);
width = 496;
},
{
anchors = (
{
name = bottom;
position = "{292, 0}";
}
);
layerId = "EBFFFCD3-BAE4-48A5-9442-B72A90AD34A8";
paths = (
{
closed = 1;
nodes = (
"358 1152 OFFCURVE",
"426 1220 OFFCURVE",
"426 1306 CURVE SMOOTH",
"426 1394 OFFCURVE",
"358 1462 OFFCURVE",
"272 1462 CURVE SMOOTH",
"184 1462 OFFCURVE",
"116 1394 OFFCURVE",
"116 1306 CURVE SMOOTH",
"116 1220 OFFCURVE",
"184 1152 OFFCURVE",
"272 1152 CURVE SMOOTH"
);
},
{
closed = 1;
nodes = (
"416 922 LINE SMOOTH",
"416 1012 OFFCURVE",
"350 1064 OFFCURVE",
"260 1064 CURVE SMOOTH",
"184 1064 OFFCURVE",
"130 1024 OFFCURVE",
"106 1004 CURVE",
"140 914 OFFCURVE",
"146 818 OFFCURVE",
"146 742 CURVE SMOOTH",
"146 112 LINE SMOOTH",
"146 24 OFFCURVE",
"214 -30 OFFCURVE",
"300 -30 CURVE SMOOTH",
"378 -30 OFFCURVE",
"434 10 OFFCURVE",
"458 32 CURVE",
"422 120 OFFCURVE",
"418 216 OFFCURVE",
"418 292 CURVE SMOOTH"
);
}
);
width = 548;
}
);
leftKerningGroup = i;
rightKerningGroup = i;
unicode = 0069;
},
{
glyphname = idotless;
layers = (
{
anchors = (
{
name = bottom;
position = "{222, 0}";
},
{
name = ogonek;
position = "{250, -8}";
},
{
name = top;
position = "{210, 1000}";
}
);
layerId = "60CFBDE8-BC08-4808-BF41-F011F3E03A54";
paths = (
{
closed = 1;
nodes = (
"242 980 LINE SMOOTH",
"242 1008 OFFCURVE",
"230 1024 OFFCURVE",
"208 1024 CURVE SMOOTH",
"190 1024 OFFCURVE",
"180 1016 OFFCURVE",
"172 1008 CURVE",
"180 976 OFFCURVE",
"184 914 OFFCURVE",
"184 834 CURVE SMOOTH",
"188 28 LINE SMOOTH",
"188 0 OFFCURVE",
"200 -16 OFFCURVE",
"222 -16 CURVE SMOOTH",
"240 -16 OFFCURVE",
"250 -8 OFFCURVE",
"258 0 CURVE",
"250 32 OFFCURVE",
"246 94 OFFCURVE",
"246 174 CURVE SMOOTH"
);
}
);
width = 446;
},
{
anchors = (
{
name = bottom;
position = "{302, 0}";
},
{
name = ogonek;
position = "{358, 20}";
},
{
name = top;
position = "{258, 1032}";
}
);
layerId = "EBFFFCD3-BAE4-48A5-9442-B72A90AD34A8";
paths = (
{
closed = 1;
nodes = (
"416 922 LINE SMOOTH",
"416 1012 OFFCURVE",
"350 1064 OFFCURVE",
"260 1064 CURVE SMOOTH",
"184 1064 OFFCURVE",
"130 1024 OFFCURVE",
"106 1004 CURVE",
"140 914 OFFCURVE",
"146 818 OFFCURVE",
"146 742 CURVE SMOOTH",
"146 112 LINE SMOOTH",
"146 24 OFFCURVE",
"214 -30 OFFCURVE",
"300 -30 CURVE SMOOTH",
"378 -30 OFFCURVE",
"434 10 OFFCURVE",
"458 32 CURVE",
"422 120 OFFCURVE",
"418 216 OFFCURVE",
"418 292 CURVE SMOOTH"
);
}
);
width = 548;
}
);
leftKerningGroup = i;
leftMetricsKey = i;
rightKerningGroup = i;
rightMetricsKey = i;
unicode = 0131;
},
{
glyphname = j;
layers = (
{
layerId = "60CFBDE8-BC08-4808-BF41-F011F3E03A54";
paths = (
{
closed = 1;
nodes = (
"272 -472 OFFCURVE",
"296 -290 OFFCURVE",
"296 -166 CURVE SMOOTH",
"294 980 LINE SMOOTH",
"294 1008 OFFCURVE",
"282 1024 OFFCURVE",
"260 1024 CURVE SMOOTH",
"242 1024 OFFCURVE",
"232 1016 OFFCURVE",
"224 1008 CURVE",
"232 976 OFFCURVE",
"236 910 OFFCURVE",
"236 834 CURVE SMOOTH",
"234 -160 LINE SMOOTH",
"234 -320 OFFCURVE",
"202 -416 OFFCURVE",
"64 -416 CURVE SMOOTH",
"14 -416 OFFCURVE",
"-60 -404 OFFCURVE",
"-60 -308 CURVE SMOOTH",
"-60 -294 OFFCURVE",
"-60 -280 OFFCURVE",
"-56 -264 CURVE",
"-58 -264 OFFCURVE",
"-60 -264 OFFCURVE",
"-62 -264 CURVE SMOOTH",
"-98 -264 OFFCURVE",
"-110 -300 OFFCURVE",
"-110 -328 CURVE SMOOTH",
"-110 -418 OFFCURVE",
"-48 -472 OFFCURVE",
"68 -472 CURVE SMOOTH"
);
},
{
closed = 1;
nodes = (
"296 1252 OFFCURVE",
"328 1284 OFFCURVE",
"328 1320 CURVE SMOOTH",
"328 1356 OFFCURVE",
"296 1388 OFFCURVE",
"260 1388 CURVE SMOOTH",
"224 1388 OFFCURVE",
"192 1356 OFFCURVE",
"192 1320 CURVE SMOOTH",
"192 1284 OFFCURVE",
"224 1252 OFFCURVE",
"260 1252 CURVE SMOOTH"
);
}
);
width = 508;
},
{
layerId = "EBFFFCD3-BAE4-48A5-9442-B72A90AD34A8";
paths = (
{
closed = 1;
nodes = (
"314 -454 OFFCURVE",
"416 -268 OFFCURVE",
"416 -34 CURVE SMOOTH",
"416 920 LINE SMOOTH",
"416 1010 OFFCURVE",
"348 1062 OFFCURVE",
"260 1062 CURVE SMOOTH",
"198 1062 OFFCURVE",
"144 1036 OFFCURVE",
"106 1002 CURVE",
"140 912 OFFCURVE",
"146 800 OFFCURVE",
"146 740 CURVE SMOOTH",
"144 16 LINE SMOOTH",
"144 -184 OFFCURVE",
"146 -370 OFFCURVE",
"52 -370 CURVE SMOOTH",
"18 -370 OFFCURVE",
"-10 -346 OFFCURVE",
"-10 -298 CURVE SMOOTH",
"-10 -270 OFFCURVE",
"2 -234 OFFCURVE",
"22 -204 CURVE",
"0 -160 OFFCURVE",
"-28 -142 OFFCURVE",
"-78 -142 CURVE SMOOTH",
"-174 -142 OFFCURVE",
"-220 -208 OFFCURVE",
"-220 -278 CURVE SMOOTH",
"-220 -376 OFFCURVE",
"-140 -454 OFFCURVE",
"40 -454 CURVE SMOOTH"
);
},
{
closed = 1;
nodes = (
"352 1174 OFFCURVE",
"418 1240 OFFCURVE",
"418 1324 CURVE SMOOTH",
"418 1408 OFFCURVE",
"352 1474 OFFCURVE",
"268 1474 CURVE SMOOTH",
"184 1474 OFFCURVE",
"118 1408 OFFCURVE",
"118 1324 CURVE SMOOTH",
"118 1240 OFFCURVE",
"184 1174 OFFCURVE",
"268 1174 CURVE SMOOTH"
);
}
);
width = 536;
}
);
leftKerningGroup = j;
rightKerningGroup = j;
unicode = 006A;
},
{
glyphname = jdotless;
layers = (
{
anchors = (
{
name = bottom;
position = "{260, 0}";
},
{
name = top;
position = "{260, 1000}";
}
);
layerId = "60CFBDE8-BC08-4808-BF41-F011F3E03A54";
paths = (
{
closed = 1;
nodes = (
"272 -472 OFFCURVE",
"296 -290 OFFCURVE",
"296 -166 CURVE SMOOTH",
"294 980 LINE SMOOTH",
"294 1008 OFFCURVE",
"282 1024 OFFCURVE",
"260 1024 CURVE SMOOTH",
"242 1024 OFFCURVE",
"232 1016 OFFCURVE",
"224 1008 CURVE",
"232 976 OFFCURVE",
"236 910 OFFCURVE",
"236 834 CURVE SMOOTH",
"234 -160 LINE SMOOTH",
"234 -320 OFFCURVE",
"202 -416 OFFCURVE",
"64 -416 CURVE SMOOTH",
"14 -416 OFFCURVE",
"-60 -404 OFFCURVE",
"-60 -308 CURVE SMOOTH",
"-60 -294 OFFCURVE",
"-60 -280 OFFCURVE",
"-56 -264 CURVE",
"-58 -264 OFFCURVE",
"-60 -264 OFFCURVE",
"-62 -264 CURVE SMOOTH",
"-98 -264 OFFCURVE",
"-110 -300 OFFCURVE",
"-110 -328 CURVE SMOOTH",
"-110 -418 OFFCURVE",
"-48 -472 OFFCURVE",
"68 -472 CURVE SMOOTH"
);
}
);
width = 476;
},
{
anchors = (
{
name = bottom;
position = "{264, 0}";
},
{
name = top;
position = "{264, 1032}";
}
);
layerId = "EBFFFCD3-BAE4-48A5-9442-B72A90AD34A8";
paths = (
{
closed = 1;
nodes = (
"314 -454 OFFCURVE",
"416 -268 OFFCURVE",
"416 -34 CURVE SMOOTH",
"416 920 LINE SMOOTH",
"416 1010 OFFCURVE",
"348 1062 OFFCURVE",
"260 1062 CURVE SMOOTH",
"198 1062 OFFCURVE",
"144 1036 OFFCURVE",
"106 1002 CURVE",
"140 912 OFFCURVE",
"146 800 OFFCURVE",
"146 740 CURVE SMOOTH",
"144 16 LINE SMOOTH",
"144 -184 OFFCURVE",
"146 -370 OFFCURVE",
"52 -370 CURVE SMOOTH",
"18 -370 OFFCURVE",
"-10 -346 OFFCURVE",
"-10 -298 CURVE SMOOTH",
"-10 -270 OFFCURVE",
"2 -234 OFFCURVE",
"22 -204 CURVE",
"0 -160 OFFCURVE",
"-28 -142 OFFCURVE",
"-78 -142 CURVE SMOOTH",
"-174 -142 OFFCURVE",
"-220 -208 OFFCURVE",
"-220 -278 CURVE SMOOTH",
"-220 -376 OFFCURVE",
"-140 -454 OFFCURVE",
"40 -454 CURVE SMOOTH"
);
}
);
width = 534;
}
);
leftMetricsKey = j;
rightMetricsKey = j;
unicode = 0237;
},
{
glyphname = k;
layers = (
{
anchors = (
{
name = bottom;
position = "{538, 0}";
},
{
name = top;
position = "{538, 1000}";
}
);
layerId = "60CFBDE8-BC08-4808-BF41-F011F3E03A54";
paths = (
{
closed = 1;
nodes = (
"248 -16 OFFCURVE",
"258 -8 OFFCURVE",
"266 0 CURVE",
"256 42 OFFCURVE",
"254 60 OFFCURVE",
"254 322 CURVE",
"352 348 OFFCURVE",
"486 388 OFFCURVE",
"608 436 CURVE",
"818 62 LINE SMOOTH",
"840 22 OFFCURVE",
"878 -16 OFFCURVE",
"924 -16 CURVE SMOOTH",
"954 -16 OFFCURVE",
"1004 2 OFFCURVE",
"1004 44 CURVE SMOOTH",
"1004 54 OFFCURVE",
"1002 64 OFFCURVE",
"994 74 CURVE",
"976 44 OFFCURVE",
"950 40 OFFCURVE",
"936 40 CURVE SMOOTH",
"906 40 OFFCURVE",
"888 56 OFFCURVE",
"866 94 CURVE SMOOTH",
"690 410 LINE",
"680 426 OFFCURVE",
"672 442 OFFCURVE",
"658 458 CURVE",
"796 520 OFFCURVE",
"928 624 OFFCURVE",
"928 790 CURVE SMOOTH",
"928 944 OFFCURVE",
"830 1024 OFFCURVE",
"684 1024 CURVE SMOOTH",
"464 1024 OFFCURVE",
"294 864 OFFCURVE",
"244 630 CURVE",
"254 624 LINE",
"256 1280 LINE SMOOTH",
"256 1350 OFFCURVE",
"262 1422 OFFCURVE",
"268 1440 CURVE",
"260 1448 OFFCURVE",
"250 1456 OFFCURVE",
"232 1456 CURVE SMOOTH",
"208 1456 OFFCURVE",
"194 1440 OFFCURVE",
"194 1412 CURVE SMOOTH",
"196 28 LINE SMOOTH",
"196 0 OFFCURVE",
"208 -16 OFFCURVE",
"230 -16 CURVE SMOOTH"
);
},
{
closed = 1;
nodes = (
"254 728 OFFCURVE",
"416 968 OFFCURVE",
"680 968 CURVE SMOOTH",
"788 968 OFFCURVE",
"868 916 OFFCURVE",
"868 788 CURVE SMOOTH",
"868 558 OFFCURVE",
"560 458 OFFCURVE",
"254 370 CURVE"
);
}
);
width = 1080;
},
{
anchors = (
{
name = bottom;
position = "{552, 0}";
},
{
name = top;
position = "{552, 1032}";
}
);
layerId = "EBFFFCD3-BAE4-48A5-9442-B72A90AD34A8";
paths = (
{
closed = 1;
nodes = (
"370 -30 OFFCURVE",
"416 4 OFFCURVE",
"448 30 CURVE",
"404 130 OFFCURVE",
"402 188 OFFCURVE",
"402 402 CURVE",
"444 408 OFFCURVE",
"484 418 OFFCURVE",
"536 432 CURVE",
"660 132 LINE SMOOTH",
"704 18 OFFCURVE",
"786 -30 OFFCURVE",
"876 -30 CURVE SMOOTH",
"990 -30 OFFCURVE",
"1074 42 OFFCURVE",
"1074 128 CURVE SMOOTH",
"1074 158 OFFCURVE",
"1064 190 OFFCURVE",
"1038 218 CURVE",
"1018 204 OFFCURVE",
"998 200 OFFCURVE",
"982 200 CURVE SMOOTH",
"940 200 OFFCURVE",
"928 228 OFFCURVE",
"894 286 CURVE SMOOTH",
"842 374 LINE",
"804 436 OFFCURVE",
"768 480 OFFCURVE",
"718 490 CURVE",
"864 560 OFFCURVE",
"1006 674 OFFCURVE",
"1006 840 CURVE SMOOTH",
"1006 958 OFFCURVE",
"936 1062 OFFCURVE",
"752 1062 CURVE SMOOTH",
"558 1062 OFFCURVE",
"438 950 OFFCURVE",
"384 784 CURVE",
"398 758 LINE",
"400 912 LINE SMOOTH",
"408 1084 OFFCURVE",
"396 1166 OFFCURVE",
"442 1406 CURVE",
"420 1426 OFFCURVE",
"366 1466 OFFCURVE",
"286 1466 CURVE SMOOTH",
"196 1466 OFFCURVE",
"128 1414 OFFCURVE",
"130 1324 CURVE SMOOTH",
"130 126 LINE SMOOTH",
"130 40 OFFCURVE",
"156 -30 OFFCURVE",
"282 -30 CURVE SMOOTH"
);
},
{
closed = 1;
nodes = (
"402 732 OFFCURVE",
"508 926 OFFCURVE",
"642 926 CURVE SMOOTH",
"690 926 OFFCURVE",
"726 900 OFFCURVE",
"726 822 CURVE SMOOTH",
"726 654 OFFCURVE",
"550 544 OFFCURVE",
"402 500 CURVE"
);
}
);
width = 1104;
}
);
leftKerningGroup = h;
leftMetricsKey = h;
rightKerningGroup = k;
unicode = 006B;
},
{
glyphname = kgreenlandic;
layers = (
{
anchors = (
{
name = bottom;
position = "{570, 0}";
},
{
name = top;
position = "{570, 1000}";
}
);
layerId = "60CFBDE8-BC08-4808-BF41-F011F3E03A54";
paths = (
{
closed = 1;
nodes = (
"982 -16 OFFCURVE",
"1036 2 OFFCURVE",
"1036 46 CURVE SMOOTH",
"1036 54 OFFCURVE",
"1034 64 OFFCURVE",
"1026 74 CURVE",
"1014 52 OFFCURVE",
"986 40 OFFCURVE",
"960 40 CURVE SMOOTH",
"930 40 OFFCURVE",
"902 56 OFFCURVE",
"884 122 CURVE SMOOTH",
"834 306 LINE SMOOTH",
"798 434 OFFCURVE",
"736 510 OFFCURVE",
"558 522 CURVE",
"546 504 LINE",
"782 548 OFFCURVE",
"890 712 OFFCURVE",
"890 880 CURVE SMOOTH",
"890 960 OFFCURVE",
"874 1024 OFFCURVE",
"838 1024 CURVE SMOOTH",
"824 1024 OFFCURVE",
"806 1018 OFFCURVE",
"798 1000 CURVE",
"812 980 OFFCURVE",
"826 928 OFFCURVE",
"826 866 CURVE SMOOTH",
"826 704 OFFCURVE",
"676 534 OFFCURVE",
"416 534 CURVE SMOOTH",
"364 534 OFFCURVE",
"288 534 OFFCURVE",
"234 534 CURVE",
"236 482 LINE",
"436 482 LINE SMOOTH",
"694 482 OFFCURVE",
"740 408 OFFCURVE",
"772 302 CURVE SMOOTH",
"832 90 LINE SMOOTH",
"852 22 OFFCURVE",
"906 -16 OFFCURVE",
"952 -16 CURVE SMOOTH"
);
},
{
closed = 1;
nodes = (
"244 -16 OFFCURVE",
"254 -8 OFFCURVE",
"262 0 CURVE",
"254 32 OFFCURVE",
"250 94 OFFCURVE",
"250 174 CURVE",
"250 980 LINE SMOOTH",
"250 1008 OFFCURVE",
"238 1024 OFFCURVE",
"216 1024 CURVE SMOOTH",
"196 1024 OFFCURVE",
"184 1016 OFFCURVE",
"176 1008 CURVE",
"184 976 OFFCURVE",
"188 914 OFFCURVE",
"188 834 CURVE SMOOTH",
"188 28 LINE SMOOTH",
"188 0 OFFCURVE",
"204 -16 OFFCURVE",
"226 -16 CURVE SMOOTH"
);
}
);
width = 1126;
},
{
anchors = (
{
name = bottom;
position = "{590, 0}";
},
{
name = top;
position = "{590, 1032}";
}
);
layerId = "EBFFFCD3-BAE4-48A5-9442-B72A90AD34A8";
paths = (
{
closed = 1;
nodes = (
"1082 -28 OFFCURVE",
"1128 34 OFFCURVE",
"1128 110 CURVE SMOOTH",
"1128 134 OFFCURVE",
"1124 160 OFFCURVE",
"1112 188 CURVE",
"1098 178 OFFCURVE",
"1084 172 OFFCURVE",
"1064 174 CURVE SMOOTH",
"1036 176 OFFCURVE",
"994 190 OFFCURVE",
"956 298 CURVE SMOOTH",
"934 366 LINE SMOOTH",
"886 502 OFFCURVE",
"754 616 OFFCURVE",
"624 558 CURVE",
"620 536 LINE",
"852 556 OFFCURVE",
"1048 706 OFFCURVE",
"1048 886 CURVE SMOOTH",
"1048 1028 OFFCURVE",
"920 1062 OFFCURVE",
"852 1062 CURVE SMOOTH",
"814 1062 OFFCURVE",
"782 1054 OFFCURVE",
"742 1036 CURVE",
"756 1016 OFFCURVE",
"778 950 OFFCURVE",
"778 890 CURVE SMOOTH",
"778 772 OFFCURVE",
"692 638 OFFCURVE",
"498 590 CURVE SMOOTH",
"474 586 OFFCURVE",
"424 576 OFFCURVE",
"406 574 CURVE",
"408 478 LINE",
"488 478 LINE SMOOTH",
"616 478 OFFCURVE",
"668 372 OFFCURVE",
"692 288 CURVE SMOOTH",
"728 164 LINE SMOOTH",
"758 58 OFFCURVE",
"840 -28 OFFCURVE",
"970 -28 CURVE SMOOTH"
);
},
{
closed = 1;
nodes = (
"394 -30 OFFCURVE",
"452 10 OFFCURVE",
"476 32 CURVE",
"440 120 OFFCURVE",
"436 216 OFFCURVE",
"436 292 CURVE",
"436 920 LINE SMOOTH",
"436 1010 OFFCURVE",
"368 1062 OFFCURVE",
"276 1062 CURVE SMOOTH",
"198 1062 OFFCURVE",
"140 1022 OFFCURVE",
"116 1002 CURVE",
"150 912 OFFCURVE",
"156 816 OFFCURVE",
"156 740 CURVE SMOOTH",
"156 112 LINE SMOOTH",
"156 24 OFFCURVE",
"224 -30 OFFCURVE",
"316 -30 CURVE SMOOTH"
);
}
);
width = 1192;
}
);
leftKerningGroup = i;
leftMetricsKey = b;
unicode = 0138;
},
{
glyphname = l;
layers = (
{
anchors = (
{
name = bottom;
position = "{312, 0}";
},
{
name = center;
position = "{250, 524}";
},
{
name = top;
position = "{256, 1410}";
},
{
name = topright;
position = "{382, 1376}";
}
);
layerId = "60CFBDE8-BC08-4808-BF41-F011F3E03A54";
paths = (
{
closed = 1;
nodes = (
"384 -20 OFFCURVE",
"436 4 OFFCURVE",
"436 48 CURVE SMOOTH",
"436 60 OFFCURVE",
"432 74 OFFCURVE",
"418 90 CURVE",
"402 56 OFFCURVE",
"368 36 OFFCURVE",
"330 36 CURVE SMOOTH",
"276 36 OFFCURVE",
"248 76 OFFCURVE",
"248 142 CURVE SMOOTH",
"250 1048 LINE SMOOTH",
"250 1288 OFFCURVE",
"250 1410 OFFCURVE",
"262 1440 CURVE",
"254 1448 OFFCURVE",
"244 1456 OFFCURVE",
"226 1456 CURVE SMOOTH",
"202 1456 OFFCURVE",
"188 1440 OFFCURVE",
"188 1412 CURVE SMOOTH",
"188 146 LINE SMOOTH",
"188 38 OFFCURVE",
"244 -20 OFFCURVE",
"328 -20 CURVE SMOOTH"
);
}
);
width = 500;
},
{
anchors = (
{
name = bottom;
position = "{346, 0}";
},
{
name = center;
position = "{292, 520}";
},
{
name = top;
position = "{294, 1420}";
},
{
name = topright;
position = "{532, 1100}";
}
);
layerId = "EBFFFCD3-BAE4-48A5-9442-B72A90AD34A8";
paths = (
{
closed = 1;
nodes = (
"474 -20 OFFCURVE",
"558 40 OFFCURVE",
"558 124 CURVE SMOOTH",
"558 148 OFFCURVE",
"550 182 OFFCURVE",
"530 210 CURVE",
"518 190 OFFCURVE",
"490 184 OFFCURVE",
"472 184 CURVE SMOOTH",
"426 184 OFFCURVE",
"402 220 OFFCURVE",
"402 290 CURVE SMOOTH",
"402 1016 LINE SMOOTH",
"402 1182 OFFCURVE",
"408 1278 OFFCURVE",
"442 1406 CURVE",
"420 1426 OFFCURVE",
"366 1466 OFFCURVE",
"286 1466 CURVE SMOOTH",
"196 1466 OFFCURVE",
"128 1414 OFFCURVE",
"128 1324 CURVE SMOOTH",
"128 266 LINE SMOOTH",
"128 90 OFFCURVE",
"214 -20 OFFCURVE",
"376 -20 CURVE SMOOTH"
);
}
);
width = 586;
}
);
leftKerningGroup = h;
rightKerningGroup = l;
unicode = 006C;
},
{
glyphname = lslash;
layers = (
{
components = (
{
name = l;
}
);
layerId = "60CFBDE8-BC08-4808-BF41-F011F3E03A54";
paths = (
{
closed = 1;
nodes = (
"70 328 LINE",
"416 810 LINE",
"376 840 LINE",
"30 356 LINE"
);
}
);
width = 502;
},
{
components = (
{
name = l;
}
);
layerId = "EBFFFCD3-BAE4-48A5-9442-B72A90AD34A8";
paths = (
{
closed = 1;
nodes = (
"28 282 LINE",
"622 1064 LINE",
"540 1122 LINE",
"-56 340 LINE"
);
}
);
width = 586;
}
);
leftKerningGroup = h;
rightKerningGroup = l;
unicode = 0142;
},
{
glyphname = m;
layers = (
{
anchors = (
{
name = bottom;
position = "{910, 0}";
},
{
name = top;
position = "{876, 1000}";
}
);
layerId = "60CFBDE8-BC08-4808-BF41-F011F3E03A54";
paths = (
{
closed = 1;
nodes = (
"1564 594 LINE SMOOTH",
"1564 874 OFFCURVE",
"1474 1024 OFFCURVE",
"1260 1024 CURVE SMOOTH",
"1088 1024 OFFCURVE",
"938 890 OFFCURVE",
"910 676 CURVE",
"932 670 LINE",
"920 896 OFFCURVE",
"826 1024 OFFCURVE",
"628 1024 CURVE SMOOTH",
"468 1024 OFFCURVE",
"320 894 OFFCURVE",
"282 678 CURVE",
"300 660 LINE",
"300 854 LINE SMOOTH",
"300 962 OFFCURVE",
"244 1020 OFFCURVE",
"160 1020 CURVE SMOOTH",
"120 1020 OFFCURVE",
"72 996 OFFCURVE",
"72 952 CURVE SMOOTH",
"72 940 OFFCURVE",
"76 926 OFFCURVE",
"90 910 CURVE",
"102 944 OFFCURVE",
"128 964 OFFCURVE",
"158 964 CURVE SMOOTH",
"212 964 OFFCURVE",
"240 924 OFFCURVE",
"240 858 CURVE SMOOTH",
"242 28 LINE SMOOTH",
"242 0 OFFCURVE",
"254 -16 OFFCURVE",
"276 -16 CURVE SMOOTH",
"294 -16 OFFCURVE",
"304 -8 OFFCURVE",
"312 0 CURVE",
"300 46 OFFCURVE",
"300 114 OFFCURVE",
"300 474 CURVE SMOOTH",
"300 862 OFFCURVE",
"494 968 OFFCURVE",
"622 968 CURVE SMOOTH",
"808 968 OFFCURVE",
"874 844 OFFCURVE",
"874 596 CURVE SMOOTH",
"876 28 LINE SMOOTH",
"876 0 OFFCURVE",
"888 -16 OFFCURVE",
"910 -16 CURVE SMOOTH",
"928 -16 OFFCURVE",
"938 -8 OFFCURVE",
"946 0 CURVE",
"938 32 OFFCURVE",
"934 94 OFFCURVE",
"934 174 CURVE SMOOTH",
"932 534 LINE SMOOTH",
"942 874 OFFCURVE",
"1130 968 OFFCURVE",
"1254 968 CURVE SMOOTH",
"1440 968 OFFCURVE",
"1506 844 OFFCURVE",
"1506 596 CURVE SMOOTH",
"1508 28 LINE SMOOTH",
"1508 0 OFFCURVE",
"1520 -16 OFFCURVE",
"1542 -16 CURVE SMOOTH",
"1560 -16 OFFCURVE",
"1570 -8 OFFCURVE",
"1578 0 CURVE",
"1570 32 OFFCURVE",
"1566 94 OFFCURVE",
"1566 174 CURVE SMOOTH"
);
}
);
width = 1746;
},
{
anchors = (
{
name = bottom;
position = "{924, 0}";
},
{
name = top;
position = "{872, 1032}";
}
);
layerId = "EBFFFCD3-BAE4-48A5-9442-B72A90AD34A8";
paths = (
{
closed = 1;
nodes = (
"1620 662 LINE SMOOTH",
"1620 926 OFFCURVE",
"1520 1062 OFFCURVE",
"1316 1062 CURVE SMOOTH",
"1132 1062 OFFCURVE",
"1024 942 OFFCURVE",
"986 766 CURVE",
"1016 758 LINE",
"992 958 OFFCURVE",
"904 1062 OFFCURVE",
"720 1062 CURVE SMOOTH",
"524 1062 OFFCURVE",
"426 940 OFFCURVE",
"386 758 CURVE",
"404 712 LINE",
"404 776 LINE SMOOTH",
"404 970 OFFCURVE",
"326 1062 OFFCURVE",
"196 1062 CURVE SMOOTH",
"92 1062 OFFCURVE",
"30 1000 OFFCURVE",
"30 916 CURVE SMOOTH",
"30 886 OFFCURVE",
"38 858 OFFCURVE",
"56 830 CURVE",
"68 850 OFFCURVE",
"94 858 OFFCURVE",
"110 858 CURVE SMOOTH",
"146 858 OFFCURVE",
"166 826 OFFCURVE",
"166 752 CURVE SMOOTH",
"168 126 LINE SMOOTH",
"168 30 OFFCURVE",
"236 -30 OFFCURVE",
"326 -30 CURVE SMOOTH",
"412 -30 OFFCURVE",
"460 8 OFFCURVE",
"484 30 CURVE",
"438 138 OFFCURVE",
"438 210 OFFCURVE",
"438 466 CURVE SMOOTH",
"438 782 OFFCURVE",
"516 936 OFFCURVE",
"626 936 CURVE SMOOTH",
"736 936 OFFCURVE",
"758 820 OFFCURVE",
"758 618 CURVE SMOOTH",
"758 112 LINE SMOOTH",
"758 24 OFFCURVE",
"824 -30 OFFCURVE",
"910 -30 CURVE SMOOTH",
"982 -30 OFFCURVE",
"1028 0 OFFCURVE",
"1064 32 CURVE",
"1030 120 OFFCURVE",
"1024 232 OFFCURVE",
"1024 292 CURVE SMOOTH",
"1024 476 LINE SMOOTH",
"1026 782 OFFCURVE",
"1120 936 OFFCURVE",
"1226 936 CURVE SMOOTH",
"1338 936 OFFCURVE",
"1344 786 OFFCURVE",
"1344 618 CURVE SMOOTH",
"1344 112 LINE SMOOTH",
"1344 24 OFFCURVE",
"1412 -30 OFFCURVE",
"1502 -30 CURVE SMOOTH",
"1574 -30 OFFCURVE",
"1624 0 OFFCURVE",
"1660 32 CURVE",
"1626 120 OFFCURVE",
"1620 232 OFFCURVE",
"1620 292 CURVE SMOOTH"
);
}
);
width = 1740;
}
);
leftKerningGroup = n;
leftMetricsKey = n;
rightKerningGroup = n;
rightMetricsKey = n;
unicode = 006D;
},
{
glyphname = n;
layers = (
{
anchors = (
{
name = bottom;
position = "{566, 0}";
},
{
name = top;
position = "{566, 1000}";
}
);
layerId = "60CFBDE8-BC08-4808-BF41-F011F3E03A54";
paths = (
{
closed = 1;
nodes = (
"260 -16 OFFCURVE",
"270 -8 OFFCURVE",
"278 0 CURVE",
"266 48 OFFCURVE",
"266 118 OFFCURVE",
"266 494 CURVE SMOOTH",
"266 866 OFFCURVE",
"478 968 OFFCURVE",
"614 968 CURVE SMOOTH",
"804 968 OFFCURVE",
"880 844 OFFCURVE",
"882 596 CURVE SMOOTH",
"882 28 LINE SMOOTH",
"882 0 OFFCURVE",
"896 -16 OFFCURVE",
"920 -16 CURVE SMOOTH",
"938 -16 OFFCURVE",
"948 -8 OFFCURVE",
"956 0 CURVE",
"948 32 OFFCURVE",
"944 94 OFFCURVE",
"942 174 CURVE SMOOTH",
"942 594 LINE SMOOTH",
"942 874 OFFCURVE",
"840 1024 OFFCURVE",
"620 1024 CURVE SMOOTH",
"432 1024 OFFCURVE",
"256 878 OFFCURVE",
"240 638 CURVE",
"266 654 LINE",
"266 862 LINE SMOOTH",
"266 966 OFFCURVE",
"234 1020 OFFCURVE",
"152 1020 CURVE SMOOTH",
"104 1020 OFFCURVE",
"72 1002 OFFCURVE",
"72 972 CURVE SMOOTH",
"72 958 OFFCURVE",
"78 944 OFFCURVE",
"92 928 CURVE",
"106 960 OFFCURVE",
"130 964 OFFCURVE",
"146 964 CURVE SMOOTH",
"188 964 OFFCURVE",
"204 938 OFFCURVE",
"206 864 CURVE SMOOTH",
"206 28 LINE SMOOTH",
"206 0 OFFCURVE",
"218 -16 OFFCURVE",
"242 -16 CURVE SMOOTH"
);
}
);
width = 1124;
},
{
anchors = (
{
name = bottom;
position = "{624, 0}";
},
{
name = top;
position = "{624, 1032}";
}
);
layerId = "EBFFFCD3-BAE4-48A5-9442-B72A90AD34A8";
paths = (
{
closed = 1;
nodes = (
"396 -30 OFFCURVE",
"454 8 OFFCURVE",
"478 30 CURVE",
"432 138 OFFCURVE",
"432 210 OFFCURVE",
"432 470 CURVE SMOOTH",
"432 774 OFFCURVE",
"516 926 OFFCURVE",
"638 926 CURVE SMOOTH",
"754 926 OFFCURVE",
"778 812 OFFCURVE",
"780 618 CURVE SMOOTH",
"780 112 LINE SMOOTH",
"780 24 OFFCURVE",
"848 -30 OFFCURVE",
"938 -30 CURVE SMOOTH",
"1006 -30 OFFCURVE",
"1058 -2 OFFCURVE",
"1096 32 CURVE",
"1060 120 OFFCURVE",
"1056 232 OFFCURVE",
"1054 292 CURVE SMOOTH",
"1054 662 LINE SMOOTH",
"1054 928 OFFCURVE",
"952 1062 OFFCURVE",
"732 1062 CURVE SMOOTH",
"508 1062 OFFCURVE",
"398 920 OFFCURVE",
"366 680 CURVE",
"400 742 LINE",
"400 802 LINE SMOOTH",
"400 978 OFFCURVE",
"318 1062 OFFCURVE",
"194 1062 CURVE SMOOTH",
"88 1062 OFFCURVE",
"30 1002 OFFCURVE",
"30 920 CURVE SMOOTH",
"30 888 OFFCURVE",
"38 862 OFFCURVE",
"56 834 CURVE",
"68 854 OFFCURVE",
"94 858 OFFCURVE",
"108 858 CURVE SMOOTH",
"142 858 OFFCURVE",
"158 828 OFFCURVE",
"160 752 CURVE SMOOTH",
"160 126 LINE SMOOTH",
"160 30 OFFCURVE",
"228 -30 OFFCURVE",
"322 -30 CURVE SMOOTH"
);
}
);
width = 1176;
}
);
leftKerningGroup = n;
rightKerningGroup = n;
unicode = 006E;
},
{
glyphname = o;
layers = (
{
anchors = (
{
name = bottom;
position = "{534, 0}";
},
{
name = center;
position = "{534, 500}";
},
{
name = ogonek;
position = "{962, 20}";
},
{
name = top;
position = "{534, 1000}";
},
{
name = topright;
position = "{744, 980}";
}
);
layerId = "60CFBDE8-BC08-4808-BF41-F011F3E03A54";
paths = (
{
closed = 1;
nodes = (
"804 -24 OFFCURVE",
"962 170 OFFCURVE",
"962 500 CURVE SMOOTH",
"962 830 OFFCURVE",
"804 1024 OFFCURVE",
"534 1024 CURVE SMOOTH",
"264 1024 OFFCURVE",
"106 830 OFFCURVE",
"106 500 CURVE SMOOTH",
"106 170 OFFCURVE",
"264 -24 OFFCURVE",
"534 -24 CURVE SMOOTH"
);
},
{
closed = 1;
nodes = (
"306 32 OFFCURVE",
"170 206 OFFCURVE",
"170 500 CURVE SMOOTH",
"170 794 OFFCURVE",
"306 968 OFFCURVE",
"534 968 CURVE SMOOTH",
"762 968 OFFCURVE",
"898 794 OFFCURVE",
"898 500 CURVE SMOOTH",
"898 206 OFFCURVE",
"762 32 OFFCURVE",
"534 32 CURVE SMOOTH"
);
}
);
width = 1068;
},
{
anchors = (
{
name = bottom;
position = "{562, 0}";
},
{
name = center;
position = "{562, 516}";
},
{
name = ogonek;
position = "{1012, 20}";
},
{
name = top;
position = "{562, 1032}";
},
{
name = topright;
position = "{812, 1004}";
}
);
layerId = "EBFFFCD3-BAE4-48A5-9442-B72A90AD34A8";
paths = (
{
closed = 1;
nodes = (
"874 -28 OFFCURVE",
"1056 174 OFFCURVE",
"1056 516 CURVE SMOOTH",
"1056 860 OFFCURVE",
"874 1062 OFFCURVE",
"562 1062 CURVE SMOOTH",
"250 1062 OFFCURVE",
"68 860 OFFCURVE",
"68 516 CURVE SMOOTH",
"68 174 OFFCURVE",
"250 -28 OFFCURVE",
"562 -28 CURVE SMOOTH"
);
},
{
closed = 1;
nodes = (
"424 64 OFFCURVE",
"362 216 OFFCURVE",
"362 516 CURVE SMOOTH",
"362 818 OFFCURVE",
"424 970 OFFCURVE",
"562 970 CURVE SMOOTH",
"698 970 OFFCURVE",
"760 818 OFFCURVE",
"760 516 CURVE SMOOTH",
"760 216 OFFCURVE",
"698 64 OFFCURVE",
"562 64 CURVE SMOOTH"
);
}
);
width = 1124;
}
);
leftKerningGroup = o;
rightKerningGroup = o;
unicode = 006F;
},
{
glyphname = ohorn;
layers = (
{
anchors = (
{
name = bottom;
position = "{536, 0}";
},
{
name = center;
position = "{534, 500}";
},
{
name = ogonek;
position = "{962, 20}";
},
{
name = top;
position = "{534, 1000}";
},
{
name = topright;
position = "{742, 980}";
}
);
layerId = "60CFBDE8-BC08-4808-BF41-F011F3E03A54";
paths = (
{
closed = 1;
nodes = (
"804 -24 OFFCURVE",
"962 170 OFFCURVE",
"962 500 CURVE SMOOTH",
"962 830 OFFCURVE",
"804 1024 OFFCURVE",
"534 1024 CURVE SMOOTH",
"264 1024 OFFCURVE",
"106 830 OFFCURVE",
"106 500 CURVE SMOOTH",
"106 170 OFFCURVE",
"264 -24 OFFCURVE",
"534 -24 CURVE SMOOTH"
);
},
{
closed = 1;
nodes = (
"306 32 OFFCURVE",
"170 206 OFFCURVE",
"170 500 CURVE SMOOTH",
"170 794 OFFCURVE",
"306 968 OFFCURVE",
"534 968 CURVE SMOOTH",
"762 968 OFFCURVE",
"898 794 OFFCURVE",
"898 500 CURVE SMOOTH",
"898 206 OFFCURVE",
"762 32 OFFCURVE",
"534 32 CURVE SMOOTH"
);
},
{
closed = 1;
nodes = (
"808 970 OFFCURVE",
"866 1020 OFFCURVE",
"866 1106 CURVE SMOOTH",
"866 1140 OFFCURVE",
"854 1190 OFFCURVE",
"820 1226 CURVE",
"794 1216 OFFCURVE",
"770 1198 OFFCURVE",
"754 1184 CURVE",
"786 1146 OFFCURVE",
"790 1112 OFFCURVE",
"790 1094 CURVE SMOOTH",
"790 1044 OFFCURVE",
"760 1012 OFFCURVE",
"688 986 CURVE",
"706 940 LINE"
);
}
);
width = 1068;
},
{
anchors = (
{
name = bottom;
position = "{568, 0}";
},
{
name = center;
position = "{562, 516}";
},
{
name = ogonek;
position = "{1012, 20}";
},
{
name = top;
position = "{560, 1032}";
},
{
name = topright;
position = "{822, 1004}";
}
);
layerId = "EBFFFCD3-BAE4-48A5-9442-B72A90AD34A8";
paths = (
{
closed = 1;
nodes = (
"874 -28 OFFCURVE",
"1056 174 OFFCURVE",
"1056 516 CURVE SMOOTH",
"1056 860 OFFCURVE",
"874 1062 OFFCURVE",
"562 1062 CURVE SMOOTH",
"250 1062 OFFCURVE",
"68 860 OFFCURVE",
"68 516 CURVE SMOOTH",
"68 174 OFFCURVE",
"250 -28 OFFCURVE",
"562 -28 CURVE SMOOTH"
);
},
{
closed = 1;
nodes = (
"424 64 OFFCURVE",
"362 216 OFFCURVE",
"362 516 CURVE SMOOTH",
"362 818 OFFCURVE",
"424 970 OFFCURVE",
"562 970 CURVE SMOOTH",
"698 970 OFFCURVE",
"760 818 OFFCURVE",
"760 516 CURVE SMOOTH",
"760 216 OFFCURVE",
"698 64 OFFCURVE",
"562 64 CURVE SMOOTH"
);
},
{
closed = 1;
nodes = (
"924 988 OFFCURVE",
"1054 1072 OFFCURVE",
"1054 1182 CURVE SMOOTH",
"1054 1250 OFFCURVE",
"1022 1322 OFFCURVE",
"998 1348 CURVE",
"948 1342 OFFCURVE",
"850 1298 OFFCURVE",
"814 1272 CURVE",
"836 1248 OFFCURVE",
"860 1202 OFFCURVE",
"860 1156 CURVE SMOOTH",
"860 1106 OFFCURVE",
"834 1056 OFFCURVE",
"744 1024 CURVE",
"778 938 LINE"
);
}
);
width = 1124;
}
);
leftKerningGroup = o;
rightKerningGroup = o;
unicode = 01A1;
},
{
glyphname = oslash;
layers = (
{
anchors = (
{
name = bottom;
position = "{534, 0}";
},
{
name = center;
position = "{534, 500}";
},
{
name = ogonek;
position = "{962, 20}";
},
{
name = top;
position = "{534, 1000}";
},
{
name = topright;
position = "{744, 980}";
}
);
layerId = "60CFBDE8-BC08-4808-BF41-F011F3E03A54";
paths = (
{
closed = 1;
nodes = (
"854 1014 OFFCURVE",
"838 1024 OFFCURVE",
"818 1024 CURVE",
"776 954 LINE",
"710 1000 OFFCURVE",
"630 1024 OFFCURVE",
"534 1024 CURVE SMOOTH",
"264 1024 OFFCURVE",
"106 830 OFFCURVE",
"106 500 CURVE SMOOTH",
"106 310 OFFCURVE",
"158 166 OFFCURVE",
"254 76 CURVE",
"212 6 LINE",
"222 -10 OFFCURVE",
"234 -16 OFFCURVE",
"254 -18 CURVE",
"292 46 LINE",
"358 0 OFFCURVE",
"438 -24 OFFCURVE",
"534 -24 CURVE SMOOTH",
"804 -24 OFFCURVE",
"962 170 OFFCURVE",
"962 500 CURVE SMOOTH",
"962 688 OFFCURVE",
"910 832 OFFCURVE",
"816 922 CURVE",
"862 998 LINE"
);
},
{
closed = 1;
nodes = (
"170 794 OFFCURVE",
"306 968 OFFCURVE",
"534 968 CURVE SMOOTH",
"618 968 OFFCURVE",
"688 944 OFFCURVE",
"744 902 CURVE",
"286 132 LINE",
"212 212 OFFCURVE",
"170 338 OFFCURVE",
"170 500 CURVE SMOOTH"
);
},
{
closed = 1;
nodes = (
"452 32 OFFCURVE",
"380 56 OFFCURVE",
"324 98 CURVE",
"784 866 LINE",
"858 786 OFFCURVE",
"898 660 OFFCURVE",
"898 500 CURVE SMOOTH",
"898 206 OFFCURVE",
"762 32 OFFCURVE",
"534 32 CURVE SMOOTH"
);
}
);
width = 1068;
},
{
anchors = (
{
name = bottom;
position = "{562, 0}";
},
{
name = center;
position = "{562, 516}";
},
{
name = ogonek;
position = "{1012, 20}";
},
{
name = top;
position = "{562, 1032}";
},
{
name = topright;
position = "{812, 1004}";
}
);
layerId = "EBFFFCD3-BAE4-48A5-9442-B72A90AD34A8";
paths = (
{
closed = 1;
nodes = (
"922 1038 OFFCURVE",
"892 1056 OFFCURVE",
"854 1056 CURVE",
"820 1002 LINE",
"748 1042 OFFCURVE",
"662 1062 OFFCURVE",
"562 1062 CURVE SMOOTH",
"250 1062 OFFCURVE",
"68 860 OFFCURVE",
"68 516 CURVE SMOOTH",
"68 322 OFFCURVE",
"126 174 OFFCURVE",
"232 82 CURVE",
"182 2 LINE",
"198 -32 OFFCURVE",
"228 -48 OFFCURVE",
"270 -50 CURVE",
"318 24 LINE",
"386 -10 OFFCURVE",
"468 -28 OFFCURVE",
"562 -28 CURVE SMOOTH",
"874 -28 OFFCURVE",
"1056 174 OFFCURVE",
"1056 516 CURVE SMOOTH",
"1056 704 OFFCURVE",
"1002 850 OFFCURVE",
"902 942 CURVE",
"942 1006 LINE"
);
},
{
closed = 1;
nodes = (
"362 818 OFFCURVE",
"424 970 OFFCURVE",
"562 970 CURVE SMOOTH",
"634 970 OFFCURVE",
"686 928 OFFCURVE",
"718 842 CURVE",
"376 306 LINE",
"366 366 OFFCURVE",
"362 436 OFFCURVE",
"362 516 CURVE SMOOTH"
);
},
{
closed = 1;
nodes = (
"494 64 OFFCURVE",
"444 100 OFFCURVE",
"412 174 CURVE",
"750 704 LINE",
"756 650 OFFCURVE",
"760 586 OFFCURVE",
"760 516 CURVE SMOOTH",
"760 216 OFFCURVE",
"698 64 OFFCURVE",
"562 64 CURVE SMOOTH"
);
}
);
width = 1124;
}
);
leftKerningGroup = o;
rightKerningGroup = o;
unicode = 00F8;
},
{
glyphname = oe;
layers = (
{
anchors = (
{
name = top;
position = "{928, 1000}";
}
);
layerId = "60CFBDE8-BC08-4808-BF41-F011F3E03A54";
paths = (
{
closed = 1;
nodes = (
"736 -24 OFFCURVE",
"878 86 OFFCURVE",
"934 282 CURVE",
"922 282 LINE",
"976 78 OFFCURVE",
"1122 -24 OFFCURVE",
"1328 -24 CURVE SMOOTH",
"1480 -24 OFFCURVE",
"1612 30 OFFCURVE",
"1662 144 CURVE SMOOTH",
"1686 200 OFFCURVE",
"1670 220 OFFCURVE",
"1646 230 CURVE",
"1610 90 OFFCURVE",
"1472 34 OFFCURVE",
"1334 34 CURVE SMOOTH",
"1148 34 OFFCURVE",
"972 136 OFFCURVE",
"962 468 CURVE",
"1026 458 OFFCURVE",
"1098 448 OFFCURVE",
"1194 448 CURVE SMOOTH",
"1500 448 OFFCURVE",
"1668 548 OFFCURVE",
"1668 750 CURVE SMOOTH",
"1668 926 OFFCURVE",
"1542 1024 OFFCURVE",
"1344 1024 CURVE SMOOTH",
"1126 1024 OFFCURVE",
"982 906 OFFCURVE",
"926 708 CURVE",
"938 706 LINE",
"884 908 OFFCURVE",
"740 1024 OFFCURVE",
"534 1024 CURVE SMOOTH",
"264 1024 OFFCURVE",
"106 830 OFFCURVE",
"106 500 CURVE SMOOTH",
"106 170 OFFCURVE",
"264 -24 OFFCURVE",
"534 -24 CURVE SMOOTH"
);
},
{
closed = 1;
nodes = (
"306 32 OFFCURVE",
"170 206 OFFCURVE",
"170 500 CURVE SMOOTH",
"170 794 OFFCURVE",
"306 968 OFFCURVE",
"534 968 CURVE SMOOTH",
"762 968 OFFCURVE",
"898 794 OFFCURVE",
"898 500 CURVE SMOOTH",
"898 206 OFFCURVE",
"762 32 OFFCURVE",
"534 32 CURVE SMOOTH"
);
},
{
closed = 1;
nodes = (
"970 826 OFFCURVE",
"1124 970 OFFCURVE",
"1340 970 CURVE SMOOTH",
"1468 970 OFFCURVE",
"1606 920 OFFCURVE",
"1606 750 CURVE SMOOTH",
"1606 582 OFFCURVE",
"1470 498 OFFCURVE",
"1218 498 CURVE SMOOTH",
"1144 498 OFFCURVE",
"1038 506 OFFCURVE",
"962 518 CURVE"
);
}
);
width = 1786;
},
{
anchors = (
{
name = top;
position = "{914, 1032}";
}
);
layerId = "EBFFFCD3-BAE4-48A5-9442-B72A90AD34A8";
paths = (
{
closed = 1;
nodes = (
"728 -28 OFFCURVE",
"864 48 OFFCURVE",
"932 164 CURVE",
"898 164 LINE",
"958 48 OFFCURVE",
"1106 -28 OFFCURVE",
"1272 -28 CURVE SMOOTH",
"1462 -28 OFFCURVE",
"1600 46 OFFCURVE",
"1654 176 CURVE SMOOTH",
"1684 250 OFFCURVE",
"1664 280 OFFCURVE",
"1636 292 CURVE",
"1592 208 OFFCURVE",
"1498 142 OFFCURVE",
"1348 142 CURVE SMOOTH",
"1184 142 OFFCURVE",
"1078 224 OFFCURVE",
"1058 460 CURVE",
"1128 454 OFFCURVE",
"1192 452 OFFCURVE",
"1254 452 CURVE SMOOTH",
"1510 452 OFFCURVE",
"1684 560 OFFCURVE",
"1684 758 CURVE SMOOTH",
"1684 960 OFFCURVE",
"1504 1062 OFFCURVE",
"1274 1062 CURVE SMOOTH",
"1100 1062 OFFCURVE",
"952 980 OFFCURVE",
"894 870 CURVE",
"928 868 LINE",
"864 984 OFFCURVE",
"724 1062 OFFCURVE",
"562 1062 CURVE SMOOTH",
"250 1062 OFFCURVE",
"68 860 OFFCURVE",
"68 516 CURVE SMOOTH",
"68 174 OFFCURVE",
"250 -28 OFFCURVE",
"562 -28 CURVE SMOOTH"
);
},
{
closed = 1;
nodes = (
"424 64 OFFCURVE",
"362 216 OFFCURVE",
"362 516 CURVE SMOOTH",
"362 818 OFFCURVE",
"424 970 OFFCURVE",
"562 970 CURVE SMOOTH",
"698 970 OFFCURVE",
"760 818 OFFCURVE",
"760 516 CURVE SMOOTH",
"760 216 OFFCURVE",
"698 64 OFFCURVE",
"562 64 CURVE SMOOTH"
);
},
{
closed = 1;
nodes = (
"1050 794 OFFCURVE",
"1134 970 OFFCURVE",
"1266 970 CURVE SMOOTH",
"1328 970 OFFCURVE",
"1392 938 OFFCURVE",
"1392 804 CURVE SMOOTH",
"1392 624 OFFCURVE",
"1266 552 OFFCURVE",
"1124 552 CURVE SMOOTH",
"1102 552 OFFCURVE",
"1084 554 OFFCURVE",
"1058 556 CURVE"
);
}
);
width = 1746;
}
);
leftKerningGroup = o;
leftMetricsKey = o;
rightKerningGroup = e;
rightMetricsKey = e;
unicode = 0153;
},
{
glyphname = p;
layers = (
{
anchors = (
{
name = bottom;
position = "{540, 0}";
},
{
name = top;
position = "{540, 1000}";
}
);
layerId = "60CFBDE8-BC08-4808-BF41-F011F3E03A54";
paths = (
{
closed = 1;
nodes = (
"378 1024 OFFCURVE",
"254 776 OFFCURVE",
"220 542 CURVE",
"266 600 LINE",
"266 862 LINE SMOOTH",
"266 966 OFFCURVE",
"234 1020 OFFCURVE",
"152 1020 CURVE SMOOTH",
"104 1020 OFFCURVE",
"72 1002 OFFCURVE",
"72 972 CURVE SMOOTH",
"72 958 OFFCURVE",
"78 944 OFFCURVE",
"92 928 CURVE",
"106 960 OFFCURVE",
"130 964 OFFCURVE",
"146 964 CURVE SMOOTH",
"190 964 OFFCURVE",
"206 938 OFFCURVE",
"206 864 CURVE SMOOTH",
"204 -412 LINE SMOOTH",
"204 -440 OFFCURVE",
"218 -456 OFFCURVE",
"242 -456 CURVE SMOOTH",
"260 -456 OFFCURVE",
"270 -448 OFFCURVE",
"278 -440 CURVE",
"272 -412 OFFCURVE",
"266 -292 OFFCURVE",
"266 -212 CURVE SMOOTH",
"266 172 LINE",
"310 48 OFFCURVE",
"418 -24 OFFCURVE",
"570 -24 CURVE SMOOTH",
"840 -24 OFFCURVE",
"982 200 OFFCURVE",
"982 556 CURVE SMOOTH",
"982 712 OFFCURVE",
"954 1024 OFFCURVE",
"650 1024 CURVE SMOOTH"
);
},
{
closed = 1;
nodes = (
"894 968 OFFCURVE",
"918 700 OFFCURVE",
"918 552 CURVE SMOOTH",
"918 198 OFFCURVE",
"782 32 OFFCURVE",
"564 32 CURVE SMOOTH",
"314 32 OFFCURVE",
"266 250 OFFCURVE",
"266 428 CURVE SMOOTH",
"266 740 OFFCURVE",
"416 968 OFFCURVE",
"646 968 CURVE SMOOTH"
);
}
);
width = 1088;
},
{
anchors = (
{
name = bottom;
position = "{584, 0}";
},
{
name = top;
position = "{584, 1032}";
}
);
layerId = "EBFFFCD3-BAE4-48A5-9442-B72A90AD34A8";
paths = (
{
closed = 1;
nodes = (
"536 1062 OFFCURVE",
"408 920 OFFCURVE",
"372 614 CURVE",
"414 594 LINE",
"414 686 LINE SMOOTH",
"414 910 OFFCURVE",
"348 1052 OFFCURVE",
"196 1052 CURVE SMOOTH",
"98 1052 OFFCURVE",
"30 994 OFFCURVE",
"30 912 CURVE SMOOTH",
"30 888 OFFCURVE",
"38 854 OFFCURVE",
"56 826 CURVE",
"68 844 OFFCURVE",
"94 848 OFFCURVE",
"108 848 CURVE SMOOTH",
"144 848 OFFCURVE",
"160 816 OFFCURVE",
"160 744 CURVE SMOOTH",
"158 -300 LINE SMOOTH",
"158 -388 OFFCURVE",
"228 -440 OFFCURVE",
"316 -440 CURVE SMOOTH",
"394 -440 OFFCURVE",
"450 -402 OFFCURVE",
"474 -380 CURVE",
"436 -248 OFFCURVE",
"430 -82 OFFCURVE",
"430 8 CURVE SMOOTH",
"430 88 LINE",
"468 12 OFFCURVE",
"552 -28 OFFCURVE",
"668 -28 CURVE SMOOTH",
"932 -28 OFFCURVE",
"1102 172 OFFCURVE",
"1102 554 CURVE SMOOTH",
"1102 832 OFFCURVE",
"1008 1062 OFFCURVE",
"742 1062 CURVE SMOOTH"
);
},
{
closed = 1;
nodes = (
"778 916 OFFCURVE",
"808 780 OFFCURVE",
"808 556 CURVE SMOOTH",
"808 274 OFFCURVE",
"750 112 OFFCURVE",
"598 112 CURVE SMOOTH",
"478 112 OFFCURVE",
"434 208 OFFCURVE",
"434 414 CURVE SMOOTH",
"434 650 OFFCURVE",
"500 916 OFFCURVE",
"658 916 CURVE SMOOTH"
);
}
);
width = 1170;
}
);
leftKerningGroup = n;
leftMetricsKey = n;
rightKerningGroup = o;
rightMetricsKey = o;
unicode = 0070;
},
{
glyphname = thorn;
layers = (
{
anchors = (
{
name = bottom;
position = "{582, 0}";
},
{
name = top;
position = "{582, 1000}";
}
);
layerId = "60CFBDE8-BC08-4808-BF41-F011F3E03A54";
paths = (
{
closed = 1;
nodes = (
"250 -456 OFFCURVE",
"260 -448 OFFCURVE",
"268 -440 CURVE",
"262 -412 OFFCURVE",
"256 -292 OFFCURVE",
"256 -212 CURVE SMOOTH",
"256 172 LINE",
"300 52 OFFCURVE",
"408 -18 OFFCURVE",
"560 -18 CURVE SMOOTH",
"830 -18 OFFCURVE",
"972 204 OFFCURVE",
"972 556 CURVE SMOOTH",
"972 712 OFFCURVE",
"944 1024 OFFCURVE",
"640 1024 CURVE SMOOTH",
"368 1024 OFFCURVE",
"244 776 OFFCURVE",
"210 542 CURVE",
"256 600 LINE",
"256 1280 LINE SMOOTH",
"258 1384 OFFCURVE",
"262 1418 OFFCURVE",
"268 1440 CURVE",
"260 1448 OFFCURVE",
"250 1456 OFFCURVE",
"232 1456 CURVE SMOOTH",
"208 1456 OFFCURVE",
"194 1440 OFFCURVE",
"194 1412 CURVE SMOOTH",
"194 -412 LINE SMOOTH",
"194 -440 OFFCURVE",
"208 -456 OFFCURVE",
"232 -456 CURVE SMOOTH"
);
},
{
closed = 1;
nodes = (
"304 38 OFFCURVE",
"256 252 OFFCURVE",
"256 428 CURVE SMOOTH",
"256 740 OFFCURVE",
"406 968 OFFCURVE",
"636 968 CURVE SMOOTH",
"884 968 OFFCURVE",
"908 700 OFFCURVE",
"908 552 CURVE SMOOTH",
"908 202 OFFCURVE",
"772 38 OFFCURVE",
"554 38 CURVE SMOOTH"
);
}
);
width = 1078;
},
{
anchors = (
{
name = bottom;
position = "{568, 0}";
},
{
name = top;
position = "{568, 1032}";
}
);
layerId = "EBFFFCD3-BAE4-48A5-9442-B72A90AD34A8";
paths = (
{
closed = 1;
nodes = (
"366 -440 OFFCURVE",
"422 -402 OFFCURVE",
"446 -380 CURVE",
"408 -248 OFFCURVE",
"402 -82 OFFCURVE",
"402 8 CURVE SMOOTH",
"402 88 LINE",
"440 12 OFFCURVE",
"524 -28 OFFCURVE",
"640 -28 CURVE SMOOTH",
"904 -28 OFFCURVE",
"1072 172 OFFCURVE",
"1072 554 CURVE SMOOTH",
"1072 832 OFFCURVE",
"978 1062 OFFCURVE",
"712 1062 CURVE SMOOTH",
"508 1062 OFFCURVE",
"380 920 OFFCURVE",
"344 614 CURVE",
"392 594 LINE",
"392 916 LINE SMOOTH",
"392 1116 OFFCURVE",
"400 1274 OFFCURVE",
"440 1406 CURVE",
"414 1426 OFFCURVE",
"338 1472 OFFCURVE",
"252 1464 CURVE SMOOTH",
"178 1458 OFFCURVE",
"130 1414 OFFCURVE",
"130 1324 CURVE SMOOTH",
"130 -300 LINE SMOOTH",
"130 -388 OFFCURVE",
"198 -440 OFFCURVE",
"288 -440 CURVE SMOOTH"
);
},
{
closed = 1;
nodes = (
"448 112 OFFCURVE",
"404 208 OFFCURVE",
"404 414 CURVE SMOOTH",
"404 650 OFFCURVE",
"470 916 OFFCURVE",
"628 916 CURVE SMOOTH",
"748 916 OFFCURVE",
"778 780 OFFCURVE",
"778 556 CURVE SMOOTH",
"778 274 OFFCURVE",
"720 112 OFFCURVE",
"568 112 CURVE SMOOTH"
);
}
);
width = 1140;
}
);
leftKerningGroup = h;
leftMetricsKey = h;
rightKerningGroup = o;
rightMetricsKey = p;
unicode = 00FE;
},
{
glyphname = q;
layers = (
{
anchors = (
{
name = bottom;
position = "{454, 568}";
},
{
name = top;
position = "{454, -432}";
}
);
layerId = "60CFBDE8-BC08-4808-BF41-F011F3E03A54";
paths = (
{
closed = 1;
nodes = (
"870 -456 OFFCURVE",
"884 -440 OFFCURVE",
"884 -412 CURVE SMOOTH",
"884 888 LINE",
"818 968 OFFCURVE",
"682 1024 OFFCURVE",
"514 1024 CURVE SMOOTH",
"184 1024 OFFCURVE",
"106 668 OFFCURVE",
"106 474 CURVE SMOOTH",
"106 136 OFFCURVE",
"226 -26 OFFCURVE",
"452 -26 CURVE SMOOTH",
"630 -26 OFFCURVE",
"772 108 OFFCURVE",
"822 278 CURVE",
"822 -168 LINE SMOOTH",
"822 -320 OFFCURVE",
"818 -408 OFFCURVE",
"810 -440 CURVE",
"818 -448 OFFCURVE",
"828 -456 OFFCURVE",
"846 -456 CURVE SMOOTH"
);
},
{
closed = 1;
nodes = (
"274 30 OFFCURVE",
"170 158 OFFCURVE",
"170 468 CURVE SMOOTH",
"170 596 OFFCURVE",
"202 968 OFFCURVE",
"518 968 CURVE SMOOTH",
"652 968 OFFCURVE",
"780 914 OFFCURVE",
"824 866 CURVE",
"824 548 LINE SMOOTH",
"824 392 OFFCURVE",
"736 30 OFFCURVE",
"458 30 CURVE SMOOTH"
);
}
);
width = 1064;
},
{
anchors = (
{
name = bottom;
position = "{536, 100}";
},
{
name = top;
position = "{536, 780}";
}
);
layerId = "EBFFFCD3-BAE4-48A5-9442-B72A90AD34A8";
paths = (
{
closed = 1;
nodes = (
"934 -438 OFFCURVE",
"994 -382 OFFCURVE",
"994 -298 CURVE SMOOTH",
"994 930 LINE",
"904 1004 OFFCURVE",
"736 1062 OFFCURVE",
"552 1062 CURVE SMOOTH",
"204 1062 OFFCURVE",
"68 824 OFFCURVE",
"68 484 CURVE SMOOTH",
"68 114 OFFCURVE",
"212 -30 OFFCURVE",
"418 -30 CURVE SMOOTH",
"566 -30 OFFCURVE",
"674 46 OFFCURVE",
"718 172 CURVE",
"718 86 LINE SMOOTH",
"718 -34 OFFCURVE",
"726 -224 OFFCURVE",
"674 -378 CURVE",
"708 -408 OFFCURVE",
"756 -442 OFFCURVE",
"832 -440 CURVE SMOOTH"
);
},
{
closed = 1;
nodes = (
"394 114 OFFCURVE",
"364 246 OFFCURVE",
"362 478 CURVE SMOOTH",
"360 778 OFFCURVE",
"402 952 OFFCURVE",
"566 952 CURVE SMOOTH",
"628 952 OFFCURVE",
"684 932 OFFCURVE",
"720 910 CURVE",
"720 534 LINE SMOOTH",
"720 332 OFFCURVE",
"642 114 OFFCURVE",
"494 114 CURVE SMOOTH"
);
}
);
width = 1100;
}
);
leftKerningGroup = o;
leftMetricsKey = o;
rightKerningGroup = g;
unicode = 0071;
},
{
glyphname = r;
layers = (
{
anchors = (
{
name = bottom;
position = "{238, 0}";
},
{
name = top;
position = "{372, 1000}";
}
);
layerId = "60CFBDE8-BC08-4808-BF41-F011F3E03A54";
paths = (
{
closed = 1;
nodes = (
"258 -16 OFFCURVE",
"270 -8 OFFCURVE",
"278 0 CURVE",
"266 48 OFFCURVE",
"268 118 OFFCURVE",
"268 494 CURVE SMOOTH",
"268 866 OFFCURVE",
"414 968 OFFCURVE",
"532 968 CURVE SMOOTH",
"622 968 OFFCURVE",
"678 928 OFFCURVE",
"678 828 CURVE SMOOTH",
"678 792 OFFCURVE",
"674 754 OFFCURVE",
"638 710 CURVE",
"642 708 OFFCURVE",
"650 706 OFFCURVE",
"662 708 CURVE SMOOTH",
"694 714 OFFCURVE",
"736 760 OFFCURVE",
"736 836 CURVE SMOOTH",
"736 960 OFFCURVE",
"652 1024 OFFCURVE",
"532 1024 CURVE SMOOTH",
"372 1024 OFFCURVE",
"256 886 OFFCURVE",
"240 638 CURVE",
"264 654 LINE",
"264 854 LINE SMOOTH",
"264 964 OFFCURVE",
"232 1020 OFFCURVE",
"152 1020 CURVE SMOOTH",
"104 1020 OFFCURVE",
"72 1002 OFFCURVE",
"72 972 CURVE SMOOTH",
"72 958 OFFCURVE",
"78 944 OFFCURVE",
"92 928 CURVE",
"106 960 OFFCURVE",
"130 964 OFFCURVE",
"146 964 CURVE SMOOTH",
"188 964 OFFCURVE",
"206 938 OFFCURVE",
"206 864 CURVE SMOOTH",
"206 28 LINE SMOOTH",
"206 0 OFFCURVE",
"218 -16 OFFCURVE",
"240 -16 CURVE SMOOTH"
);
}
);
width = 826;
},
{
anchors = (
{
name = bottom;
position = "{318, 0}";
},
{
name = top;
position = "{434, 1032}";
}
);
layerId = "EBFFFCD3-BAE4-48A5-9442-B72A90AD34A8";
paths = (
{
closed = 1;
nodes = (
"398 -20 OFFCURVE",
"454 16 OFFCURVE",
"478 38 CURVE",
"432 146 OFFCURVE",
"432 218 OFFCURVE",
"432 470 CURVE SMOOTH",
"432 782 OFFCURVE",
"488 936 OFFCURVE",
"582 936 CURVE SMOOTH",
"638 936 OFFCURVE",
"664 898 OFFCURVE",
"664 832 CURVE SMOOTH",
"664 778 OFFCURVE",
"656 746 OFFCURVE",
"628 694 CURVE",
"652 666 OFFCURVE",
"698 650 OFFCURVE",
"754 650 CURVE SMOOTH",
"850 652 OFFCURVE",
"922 728 OFFCURVE",
"922 832 CURVE SMOOTH",
"922 976 OFFCURVE",
"814 1062 OFFCURVE",
"662 1062 CURVE SMOOTH",
"506 1062 OFFCURVE",
"414 962 OFFCURVE",
"376 752 CURVE",
"400 732 LINE",
"400 784 LINE SMOOTH",
"406 972 OFFCURVE",
"322 1062 OFFCURVE",
"194 1062 CURVE SMOOTH",
"88 1062 OFFCURVE",
"30 1002 OFFCURVE",
"30 920 CURVE SMOOTH",
"30 888 OFFCURVE",
"38 862 OFFCURVE",
"56 834 CURVE",
"68 854 OFFCURVE",
"94 858 OFFCURVE",
"108 858 CURVE SMOOTH",
"142 858 OFFCURVE",
"160 828 OFFCURVE",
"160 752 CURVE SMOOTH",
"160 134 LINE SMOOTH",
"160 34 OFFCURVE",
"236 -22 OFFCURVE",
"320 -22 CURVE SMOOTH"
);
}
);
width = 946;
}
);
leftKerningGroup = n;
leftMetricsKey = n;
rightKerningGroup = r;
unicode = 0072;
},
{
glyphname = s;
layers = (
{
anchors = (
{
name = bottom;
position = "{460, 0}";
},
{
name = top;
position = "{460, 1000}";
}
);
layerId = "60CFBDE8-BC08-4808-BF41-F011F3E03A54";
paths = (
{
closed = 1;
nodes = (
"756 -24 OFFCURVE",
"828 116 OFFCURVE",
"828 226 CURVE SMOOTH",
"828 410 OFFCURVE",
"638 462 OFFCURVE",
"474 538 CURVE SMOOTH",
"332 604 OFFCURVE",
"202 654 OFFCURVE",
"202 806 CURVE SMOOTH",
"202 930 OFFCURVE",
"326 970 OFFCURVE",
"458 970 CURVE SMOOTH",
"628 970 OFFCURVE",
"732 920 OFFCURVE",
"732 808 CURVE SMOOTH",
"732 792 OFFCURVE",
"730 774 OFFCURVE",
"722 756 CURVE",
"740 750 OFFCURVE",
"756 750 OFFCURVE",
"768 758 CURVE SMOOTH",
"788 770 OFFCURVE",
"794 790 OFFCURVE",
"794 820 CURVE SMOOTH",
"794 946 OFFCURVE",
"682 1026 OFFCURVE",
"462 1026 CURVE SMOOTH",
"288 1026 OFFCURVE",
"138 964 OFFCURVE",
"138 800 CURVE SMOOTH",
"138 616 OFFCURVE",
"286 560 OFFCURVE",
"442 484 CURVE SMOOTH",
"598 408 OFFCURVE",
"764 372 OFFCURVE",
"764 222 CURVE SMOOTH",
"764 100 OFFCURVE",
"634 32 OFFCURVE",
"448 32 CURVE SMOOTH",
"274 32 OFFCURVE",
"152 98 OFFCURVE",
"152 248 CURVE SMOOTH",
"152 276 OFFCURVE",
"156 292 OFFCURVE",
"164 312 CURVE",
"112 318 OFFCURVE",
"90 290 OFFCURVE",
"90 228 CURVE SMOOTH",
"90 94 OFFCURVE",
"188 -24 OFFCURVE",
"454 -24 CURVE SMOOTH"
);
}
);
width = 920;
},
{
anchors = (
{
name = bottom;
position = "{476, 0}";
},
{
name = top;
position = "{476, 1034}";
}
);
layerId = "EBFFFCD3-BAE4-48A5-9442-B72A90AD34A8";
paths = (
{
closed = 1;
nodes = (
"782 -28 OFFCURVE",
"908 136 OFFCURVE",
"908 298 CURVE SMOOTH",
"908 482 OFFCURVE",
"732 566 OFFCURVE",
"578 640 CURVE SMOOTH",
"452 702 OFFCURVE",
"336 756 OFFCURVE",
"336 862 CURVE SMOOTH",
"336 938 OFFCURVE",
"406 970 OFFCURVE",
"482 970 CURVE SMOOTH",
"564 970 OFFCURVE",
"618 928 OFFCURVE",
"640 868 CURVE SMOOTH",
"658 834 OFFCURVE",
"660 786 OFFCURVE",
"658 748 CURVE",
"680 744 OFFCURVE",
"700 742 OFFCURVE",
"728 744 CURVE SMOOTH",
"826 746 OFFCURVE",
"860 808 OFFCURVE",
"860 870 CURVE SMOOTH",
"860 1000 OFFCURVE",
"706 1064 OFFCURVE",
"492 1064 CURVE SMOOTH",
"278 1064 OFFCURVE",
"90 978 OFFCURVE",
"90 768 CURVE SMOOTH",
"90 550 OFFCURVE",
"266 468 OFFCURVE",
"420 396 CURVE SMOOTH",
"540 338 OFFCURVE",
"652 292 OFFCURVE",
"652 190 CURVE SMOOTH",
"652 106 OFFCURVE",
"576 70 OFFCURVE",
"480 70 CURVE SMOOTH",
"342 70 OFFCURVE",
"278 156 OFFCURVE",
"264 236 CURVE SMOOTH",
"254 272 OFFCURVE",
"252 306 OFFCURVE",
"260 344 CURVE",
"104 370 OFFCURVE",
"58 276 OFFCURVE",
"58 204 CURVE SMOOTH",
"58 68 OFFCURVE",
"182 -28 OFFCURVE",
"442 -28 CURVE SMOOTH"
);
}
);
width = 954;
}
);
leftKerningGroup = s;
rightKerningGroup = s;
unicode = 0073;
},
{
glyphname = germandbls;
layers = (
{
anchors = (
{
name = bottom;
position = "{538, 0}";
},
{
name = top;
position = "{538, 1000}";
}
);
layerId = "60CFBDE8-BC08-4808-BF41-F011F3E03A54";
paths = (
{
closed = 1;
nodes = (
"244 -16 OFFCURVE",
"258 -4 OFFCURVE",
"262 0 CURVE",
"252 52 OFFCURVE",
"250 90 OFFCURVE",
"252 892 CURVE SMOOTH",
"252 1186 OFFCURVE",
"322 1400 OFFCURVE",
"590 1400 CURVE SMOOTH",
"736 1400 OFFCURVE",
"848 1336 OFFCURVE",
"848 1180 CURVE SMOOTH",
"848 928 OFFCURVE",
"556 936 OFFCURVE",
"556 734 CURVE SMOOTH",
"556 636 OFFCURVE",
"624 566 OFFCURVE",
"796 478 CURVE SMOOTH",
"898 426 OFFCURVE",
"1022 370 OFFCURVE",
"1022 232 CURVE SMOOTH",
"1022 98 OFFCURVE",
"908 32 OFFCURVE",
"758 32 CURVE SMOOTH",
"632 32 OFFCURVE",
"516 78 OFFCURVE",
"516 228 CURVE SMOOTH",
"516 256 OFFCURVE",
"520 292 OFFCURVE",
"528 312 CURVE",
"516 314 OFFCURVE",
"508 316 OFFCURVE",
"492 312 CURVE SMOOTH",
"452 302 OFFCURVE",
"448 266 OFFCURVE",
"448 236 CURVE SMOOTH",
"448 94 OFFCURVE",
"534 -24 OFFCURVE",
"762 -24 CURVE SMOOTH",
"1012 -24 OFFCURVE",
"1086 116 OFFCURVE",
"1086 236 CURVE SMOOTH",
"1086 396 OFFCURVE",
"958 466 OFFCURVE",
"832 534 CURVE SMOOTH",
"710 600 OFFCURVE",
"620 650 OFFCURVE",
"620 742 CURVE SMOOTH",
"620 906 OFFCURVE",
"912 894 OFFCURVE",
"912 1186 CURVE SMOOTH",
"912 1376 OFFCURVE",
"790 1456 OFFCURVE",
"600 1456 CURVE SMOOTH",
"338 1456 OFFCURVE",
"194 1302 OFFCURVE",
"194 912 CURVE SMOOTH",
"194 28 LINE SMOOTH",
"194 -2 OFFCURVE",
"196 -16 OFFCURVE",
"220 -16 CURVE SMOOTH"
);
}
);
width = 1178;
},
{
anchors = (
{
name = bottom;
position = "{590, 0}";
},
{
name = top;
position = "{590, 1032}";
}
);
layerId = "EBFFFCD3-BAE4-48A5-9442-B72A90AD34A8";
paths = (
{
closed = 1;
nodes = (
"360 -22 OFFCURVE",
"428 20 OFFCURVE",
"450 38 CURVE",
"398 158 OFFCURVE",
"402 172 OFFCURVE",
"402 858 CURVE SMOOTH",
"402 1106 OFFCURVE",
"402 1376 OFFCURVE",
"656 1376 CURVE SMOOTH",
"808 1376 OFFCURVE",
"874 1276 OFFCURVE",
"874 1186 CURVE SMOOTH",
"874 996 OFFCURVE",
"562 950 OFFCURVE",
"562 688 CURVE SMOOTH",
"562 538 OFFCURVE",
"664 484 OFFCURVE",
"768 422 CURVE SMOOTH",
"838 380 OFFCURVE",
"904 336 OFFCURVE",
"904 236 CURVE SMOOTH",
"904 158 OFFCURVE",
"860 94 OFFCURVE",
"774 94 CURVE SMOOTH",
"690 94 OFFCURVE",
"644 156 OFFCURVE",
"644 246 CURVE SMOOTH",
"644 268 OFFCURVE",
"646 292 OFFCURVE",
"650 314 CURVE",
"638 316 OFFCURVE",
"626 318 OFFCURVE",
"610 316 CURVE SMOOTH",
"516 316 OFFCURVE",
"504 228 OFFCURVE",
"504 184 CURVE SMOOTH",
"504 62 OFFCURVE",
"596 -24 OFFCURVE",
"800 -24 CURVE SMOOTH",
"1076 -24 OFFCURVE",
"1188 132 OFFCURVE",
"1188 298 CURVE SMOOTH",
"1188 448 OFFCURVE",
"1096 524 OFFCURVE",
"1004 586 CURVE SMOOTH",
"916 646 OFFCURVE",
"830 688 OFFCURVE",
"830 762 CURVE SMOOTH",
"830 876 OFFCURVE",
"1036 950 OFFCURVE",
"1036 1168 CURVE SMOOTH",
"1036 1334 OFFCURVE",
"916 1466 OFFCURVE",
"650 1466 CURVE SMOOTH",
"316 1466 OFFCURVE",
"126 1256 OFFCURVE",
"130 798 CURVE SMOOTH",
"132 134 LINE SMOOTH",
"132 34 OFFCURVE",
"208 -22 OFFCURVE",
"288 -22 CURVE SMOOTH"
);
}
);
width = 1234;
}
);
leftMetricsKey = h;
rightMetricsKey = s;
unicode = 00DF;
},
{
glyphname = t;
layers = (
{
anchors = (
{
name = bottom;
position = "{366, 0}";
},
{
name = center;
position = "{334, 500}";
},
{
name = top;
position = "{248, 1132}";
},
{
name = topright;
position = "{610, 1000}";
}
);
layerId = "60CFBDE8-BC08-4808-BF41-F011F3E03A54";
paths = (
{
closed = 1;
nodes = (
"446 -24 OFFCURVE",
"508 0 OFFCURVE",
"508 44 CURVE SMOOTH",
"508 56 OFFCURVE",
"504 70 OFFCURVE",
"490 86 CURVE",
"474 52 OFFCURVE",
"428 32 OFFCURVE",
"382 32 CURVE SMOOTH",
"314 32 OFFCURVE",
"280 76 OFFCURVE",
"280 142 CURVE SMOOTH",
"282 856 LINE SMOOTH",
"282 1096 OFFCURVE",
"282 1218 OFFCURVE",
"294 1248 CURVE",
"286 1256 OFFCURVE",
"276 1264 OFFCURVE",
"258 1264 CURVE SMOOTH",
"234 1264 OFFCURVE",
"220 1248 OFFCURVE",
"220 1220 CURVE SMOOTH",
"220 142 LINE SMOOTH",
"220 34 OFFCURVE",
"284 -24 OFFCURVE",
"380 -24 CURVE SMOOTH"
);
},
{
closed = 1;
nodes = (
"98 946 OFFCURVE",
"166 948 OFFCURVE",
"192 948 CURVE SMOOTH",
"516 948 LINE SMOOTH",
"528 948 OFFCURVE",
"536 960 OFFCURVE",
"538 976 CURVE SMOOTH",
"540 1004 LINE",
"520 1002 OFFCURVE",
"456 1000 OFFCURVE",
"436 1000 CURVE SMOOTH",
"96 1000 LINE SMOOTH",
"84 1000 OFFCURVE",
"76 988 OFFCURVE",
"74 972 CURVE SMOOTH",
"72 944 LINE"
);
}
);
width = 650;
},
{
anchors = (
{
name = bottom;
position = "{392, 0}";
},
{
name = center;
position = "{358, 516}";
},
{
name = top;
position = "{322, 1200}";
},
{
name = topright;
position = "{670, 1032}";
}
);
layerId = "EBFFFCD3-BAE4-48A5-9442-B72A90AD34A8";
paths = (
{
closed = 1;
nodes = (
"542 -20 OFFCURVE",
"626 40 OFFCURVE",
"626 124 CURVE SMOOTH",
"626 148 OFFCURVE",
"618 182 OFFCURVE",
"598 210 CURVE",
"588 190 OFFCURVE",
"546 184 OFFCURVE",
"520 184 CURVE SMOOTH",
"460 184 OFFCURVE",
"430 220 OFFCURVE",
"430 290 CURVE SMOOTH",
"430 852 LINE SMOOTH",
"430 1016 OFFCURVE",
"436 1112 OFFCURVE",
"470 1240 CURVE",
"448 1260 OFFCURVE",
"394 1300 OFFCURVE",
"314 1300 CURVE SMOOTH",
"224 1300 OFFCURVE",
"156 1248 OFFCURVE",
"156 1160 CURVE SMOOTH",
"156 266 LINE SMOOTH",
"156 90 OFFCURVE",
"244 -20 OFFCURVE",
"406 -20 CURVE SMOOTH"
);
},
{
closed = 1;
nodes = (
"32 906 OFFCURVE",
"100 910 OFFCURVE",
"126 910 CURVE SMOOTH",
"602 910 LINE SMOOTH",
"640 910 OFFCURVE",
"670 932 OFFCURVE",
"672 976 CURVE SMOOTH",
"674 1040 LINE",
"654 1036 OFFCURVE",
"448 1032 OFFCURVE",
"428 1032 CURVE SMOOTH",
"80 1032 LINE SMOOTH",
"42 1032 OFFCURVE",
"10 1012 OFFCURVE",
"8 968 CURVE SMOOTH",
"6 902 LINE"
);
}
);
width = 710;
}
);
leftKerningGroup = t;
rightKerningGroup = t;
unicode = 0074;
},
{
glyphname = u;
layers = (
{
anchors = (
{
name = bottom;
position = "{572, 0}";
},
{
name = ogonek;
position = "{984, 16}";
},
{
name = top;
position = "{530, 1000}";
},
{
name = topright;
position = "{894, 980}";
}
);
layerId = "60CFBDE8-BC08-4808-BF41-F011F3E03A54";
paths = (
{
closed = 1;
nodes = (
"842 1024 OFFCURVE",
"832 1016 OFFCURVE",
"824 1008 CURVE",
"836 960 OFFCURVE",
"836 890 OFFCURVE",
"836 514 CURVE SMOOTH",
"836 136 OFFCURVE",
"628 32 OFFCURVE",
"496 32 CURVE SMOOTH",
"312 32 OFFCURVE",
"238 118 OFFCURVE",
"238 412 CURVE SMOOTH",
"236 980 LINE SMOOTH",
"236 1008 OFFCURVE",
"224 1024 OFFCURVE",
"202 1024 CURVE SMOOTH",
"184 1024 OFFCURVE",
"174 1016 OFFCURVE",
"166 1008 CURVE",
"174 976 OFFCURVE",
"178 914 OFFCURVE",
"178 834 CURVE SMOOTH",
"180 414 LINE SMOOTH",
"182 88 OFFCURVE",
"278 -24 OFFCURVE",
"490 -24 CURVE SMOOTH",
"674 -24 OFFCURVE",
"846 126 OFFCURVE",
"862 370 CURVE",
"836 354 LINE",
"836 146 LINE SMOOTH",
"836 42 OFFCURVE",
"868 -12 OFFCURVE",
"950 -12 CURVE SMOOTH",
"998 -12 OFFCURVE",
"1030 6 OFFCURVE",
"1030 36 CURVE SMOOTH",
"1030 50 OFFCURVE",
"1024 64 OFFCURVE",
"1010 80 CURVE",
"996 48 OFFCURVE",
"972 44 OFFCURVE",
"956 44 CURVE SMOOTH",
"912 44 OFFCURVE",
"896 70 OFFCURVE",
"896 144 CURVE SMOOTH",
"894 980 LINE SMOOTH",
"894 1008 OFFCURVE",
"882 1024 OFFCURVE",
"860 1024 CURVE SMOOTH"
);
}
);
width = 1102;
},
{
anchors = (
{
name = bottom;
position = "{588, 0}";
},
{
name = ogonek;
position = "{952, -42}";
},
{
name = top;
position = "{546, 1032}";
},
{
name = topright;
position = "{976, 1002}";
}
);
layerId = "EBFFFCD3-BAE4-48A5-9442-B72A90AD34A8";
paths = (
{
closed = 1;
nodes = (
"774 1062 OFFCURVE",
"718 1024 OFFCURVE",
"694 1004 CURVE",
"740 894 OFFCURVE",
"740 822 OFFCURVE",
"740 564 CURVE SMOOTH",
"740 252 OFFCURVE",
"660 96 OFFCURVE",
"540 96 CURVE SMOOTH",
"430 96 OFFCURVE",
"406 206 OFFCURVE",
"406 416 CURVE SMOOTH",
"406 920 LINE SMOOTH",
"406 1010 OFFCURVE",
"338 1062 OFFCURVE",
"248 1062 CURVE SMOOTH",
"176 1062 OFFCURVE",
"126 1032 OFFCURVE",
"90 1002 CURVE",
"124 912 OFFCURVE",
"130 800 OFFCURVE",
"130 740 CURVE SMOOTH",
"130 372 LINE SMOOTH",
"130 80 OFFCURVE",
"232 -30 OFFCURVE",
"446 -30 CURVE SMOOTH",
"666 -30 OFFCURVE",
"774 112 OFFCURVE",
"806 352 CURVE",
"772 292 LINE",
"772 230 LINE SMOOTH",
"772 56 OFFCURVE",
"852 -28 OFFCURVE",
"978 -28 CURVE SMOOTH",
"1084 -28 OFFCURVE",
"1142 30 OFFCURVE",
"1142 114 CURVE SMOOTH",
"1142 144 OFFCURVE",
"1134 170 OFFCURVE",
"1116 198 CURVE",
"1102 180 OFFCURVE",
"1078 176 OFFCURVE",
"1064 176 CURVE SMOOTH",
"1030 176 OFFCURVE",
"1012 204 OFFCURVE",
"1012 280 CURVE SMOOTH",
"1010 906 LINE SMOOTH",
"1010 1004 OFFCURVE",
"940 1062 OFFCURVE",
"852 1062 CURVE SMOOTH"
);
}
);
width = 1168;
}
);
leftKerningGroup = u;
rightKerningGroup = d;
unicode = 0075;
},
{
glyphname = uhorn;
layers = (
{
anchors = (
{
name = bottom;
position = "{498, 0}";
},
{
name = ogonek;
position = "{984, 16}";
},
{
name = top;
position = "{552, 1000}";
},
{
name = topright;
position = "{892, 980}";
}
);
layerId = "60CFBDE8-BC08-4808-BF41-F011F3E03A54";
paths = (
{
closed = 1;
nodes = (
"842 1024 OFFCURVE",
"832 1016 OFFCURVE",
"824 1008 CURVE",
"836 960 OFFCURVE",
"836 890 OFFCURVE",
"836 514 CURVE SMOOTH",
"836 136 OFFCURVE",
"628 32 OFFCURVE",
"496 32 CURVE SMOOTH",
"312 32 OFFCURVE",
"240 118 OFFCURVE",
"238 412 CURVE SMOOTH",
"236 980 LINE SMOOTH",
"236 1008 OFFCURVE",
"224 1024 OFFCURVE",
"202 1024 CURVE SMOOTH",
"184 1024 OFFCURVE",
"174 1016 OFFCURVE",
"166 1008 CURVE",
"174 976 OFFCURVE",
"178 914 OFFCURVE",
"178 834 CURVE SMOOTH",
"180 414 LINE SMOOTH",
"182 88 OFFCURVE",
"278 -24 OFFCURVE",
"490 -24 CURVE SMOOTH",
"674 -24 OFFCURVE",
"846 126 OFFCURVE",
"862 370 CURVE",
"836 354 LINE",
"836 146 LINE SMOOTH",
"836 42 OFFCURVE",
"868 -12 OFFCURVE",
"950 -12 CURVE SMOOTH",
"998 -12 OFFCURVE",
"1030 6 OFFCURVE",
"1030 36 CURVE SMOOTH",
"1030 50 OFFCURVE",
"1024 64 OFFCURVE",
"1010 80 CURVE",
"996 48 OFFCURVE",
"972 44 OFFCURVE",
"956 44 CURVE SMOOTH",
"912 44 OFFCURVE",
"896 70 OFFCURVE",
"896 144 CURVE SMOOTH",
"894 980 LINE SMOOTH",
"894 1008 OFFCURVE",
"882 1024 OFFCURVE",
"860 1024 CURVE SMOOTH"
);
},
{
closed = 1;
nodes = (
"958 970 OFFCURVE",
"1016 1020 OFFCURVE",
"1016 1106 CURVE SMOOTH",
"1016 1140 OFFCURVE",
"1004 1190 OFFCURVE",
"970 1226 CURVE",
"944 1216 OFFCURVE",
"920 1198 OFFCURVE",
"904 1184 CURVE",
"936 1146 OFFCURVE",
"940 1112 OFFCURVE",
"940 1094 CURVE SMOOTH",
"940 1044 OFFCURVE",
"910 1012 OFFCURVE",
"838 986 CURVE",
"856 940 LINE"
);
}
);
width = 1102;
},
{
anchors = (
{
name = bottom;
position = "{582, 0}";
},
{
name = ogonek;
position = "{952, -42}";
},
{
name = top;
position = "{542, 1032}";
},
{
name = topright;
position = "{986, 1002}";
}
);
layerId = "EBFFFCD3-BAE4-48A5-9442-B72A90AD34A8";
paths = (
{
closed = 1;
nodes = (
"774 1062 OFFCURVE",
"718 1024 OFFCURVE",
"694 1004 CURVE",
"740 894 OFFCURVE",
"740 822 OFFCURVE",
"740 564 CURVE SMOOTH",
"740 252 OFFCURVE",
"660 96 OFFCURVE",
"540 96 CURVE SMOOTH",
"430 96 OFFCURVE",
"406 206 OFFCURVE",
"406 416 CURVE SMOOTH",
"406 920 LINE SMOOTH",
"406 1010 OFFCURVE",
"338 1062 OFFCURVE",
"248 1062 CURVE SMOOTH",
"176 1062 OFFCURVE",
"126 1032 OFFCURVE",
"90 1002 CURVE",
"124 912 OFFCURVE",
"130 800 OFFCURVE",
"130 740 CURVE SMOOTH",
"130 372 LINE SMOOTH",
"130 80 OFFCURVE",
"232 -30 OFFCURVE",
"446 -30 CURVE SMOOTH",
"666 -30 OFFCURVE",
"774 112 OFFCURVE",
"806 352 CURVE",
"772 292 LINE",
"772 230 LINE SMOOTH",
"772 56 OFFCURVE",
"852 -28 OFFCURVE",
"978 -28 CURVE SMOOTH",
"1084 -28 OFFCURVE",
"1142 30 OFFCURVE",
"1142 114 CURVE SMOOTH",
"1142 144 OFFCURVE",
"1134 170 OFFCURVE",
"1116 198 CURVE",
"1102 180 OFFCURVE",
"1078 176 OFFCURVE",
"1064 176 CURVE SMOOTH",
"1030 176 OFFCURVE",
"1012 204 OFFCURVE",
"1012 280 CURVE SMOOTH",
"1010 906 LINE SMOOTH",
"1010 1004 OFFCURVE",
"940 1062 OFFCURVE",
"852 1062 CURVE SMOOTH"
);
},
{
closed = 1;
nodes = (
"1088 986 OFFCURVE",
"1218 1070 OFFCURVE",
"1218 1180 CURVE SMOOTH",
"1218 1248 OFFCURVE",
"1186 1320 OFFCURVE",
"1162 1346 CURVE",
"1112 1340 OFFCURVE",
"1014 1296 OFFCURVE",
"978 1270 CURVE",
"1000 1246 OFFCURVE",
"1024 1200 OFFCURVE",
"1024 1154 CURVE SMOOTH",
"1024 1104 OFFCURVE",
"998 1054 OFFCURVE",
"908 1022 CURVE",
"942 936 LINE"
);
}
);
width = 1168;
}
);
leftKerningGroup = u;
rightKerningGroup = d;
unicode = 01B0;
},
{
glyphname = v;
layers = (
{
anchors = (
{
name = bottom;
position = "{460, 0}";
},
{
name = top;
position = "{460, 1000}";
}
);
layerId = "60CFBDE8-BC08-4808-BF41-F011F3E03A54";
paths = (
{
closed = 1;
nodes = (
"484 -16 OFFCURVE",
"498 -12 OFFCURVE",
"514 0 CURVE",
"878 916 LINE SMOOTH",
"884 930 OFFCURVE",
"890 950 OFFCURVE",
"890 964 CURVE SMOOTH",
"892 986 OFFCURVE",
"874 1000 OFFCURVE",
"848 1000 CURVE SMOOTH",
"838 1000 OFFCURVE",
"830 1000 OFFCURVE",
"820 996 CURVE",
"824 988 OFFCURVE",
"824 976 OFFCURVE",
"824 968 CURVE SMOOTH",
"824 956 OFFCURVE",
"818 936 OFFCURVE",
"814 926 CURVE SMOOTH",
"462 12 LINE",
"482 12 LINE",
"110 972 LINE SMOOTH",
"104 990 OFFCURVE",
"88 1000 OFFCURVE",
"70 1000 CURVE SMOOTH",
"56 1000 OFFCURVE",
"44 996 OFFCURVE",
"30 982 CURVE",
"40 970 OFFCURVE",
"56 938 OFFCURVE",
"62 922 CURVE SMOOTH",
"420 18 LINE SMOOTH",
"428 -4 OFFCURVE",
"446 -16 OFFCURVE",
"470 -16 CURVE SMOOTH"
);
}
);
width = 928;
},
{
anchors = (
{
name = bottom;
position = "{514, 0}";
},
{
name = top;
position = "{514, 1032}";
}
);
layerId = "EBFFFCD3-BAE4-48A5-9442-B72A90AD34A8";
paths = (
{
closed = 1;
nodes = (
"552 -30 OFFCURVE",
"612 -16 OFFCURVE",
"674 10 CURVE",
"972 802 LINE SMOOTH",
"994 854 OFFCURVE",
"1000 908 OFFCURVE",
"1000 944 CURVE SMOOTH",
"1000 1026 OFFCURVE",
"956 1060 OFFCURVE",
"850 1060 CURVE SMOOTH",
"784 1060 OFFCURVE",
"746 1046 OFFCURVE",
"708 1030 CURVE",
"720 1016 OFFCURVE",
"726 996 OFFCURVE",
"726 964 CURVE SMOOTH",
"726 932 OFFCURVE",
"720 904 OFFCURVE",
"714 872 CURVE SMOOTH",
"524 82 LINE",
"554 78 LINE",
"334 952 LINE SMOOTH",
"318 1024 OFFCURVE",
"256 1060 OFFCURVE",
"172 1060 CURVE SMOOTH",
"86 1060 OFFCURVE",
"40 1026 OFFCURVE",
"16 998 CURVE",
"50 962 OFFCURVE",
"68 900 OFFCURVE",
"80 868 CURVE SMOOTH",
"346 60 LINE SMOOTH",
"368 -8 OFFCURVE",
"426 -30 OFFCURVE",
"490 -30 CURVE SMOOTH"
);
}
);
width = 1028;
}
);
unicode = 0076;
},
{
glyphname = w;
layers = (
{
anchors = (
{
name = bottom;
position = "{730, 0}";
},
{
name = top;
position = "{730, 1000}";
}
);
layerId = "60CFBDE8-BC08-4808-BF41-F011F3E03A54";
paths = (
{
closed = 1;
nodes = (
"432 -16 OFFCURVE",
"450 -12 OFFCURVE",
"466 0 CURVE",
"740 922 LINE",
"1006 18 LINE SMOOTH",
"1012 -4 OFFCURVE",
"1036 -16 OFFCURVE",
"1060 -16 CURVE SMOOTH",
"1074 -16 OFFCURVE",
"1086 -12 OFFCURVE",
"1102 0 CURVE",
"1406 916 LINE",
"1412 930 OFFCURVE",
"1418 950 OFFCURVE",
"1418 964 CURVE",
"1420 986 OFFCURVE",
"1402 1000 OFFCURVE",
"1376 1000 CURVE SMOOTH",
"1366 1000 OFFCURVE",
"1358 1000 OFFCURVE",
"1348 996 CURVE",
"1352 988 OFFCURVE",
"1352 976 OFFCURVE",
"1352 968 CURVE SMOOTH",
"1352 956 OFFCURVE",
"1346 936 OFFCURVE",
"1342 926 CURVE",
"1056 38 LINE",
"770 1000 LINE",
"760 1006 OFFCURVE",
"752 1008 OFFCURVE",
"740 1008 CURVE SMOOTH",
"722 1008 OFFCURVE",
"702 1002 OFFCURVE",
"692 996 CURVE",
"696 988 OFFCURVE",
"696 976 OFFCURVE",
"696 968 CURVE SMOOTH",
"696 956 OFFCURVE",
"690 934 OFFCURVE",
"688 926 CURVE SMOOTH",
"422 38 LINE",
"120 972 LINE SMOOTH",
"114 990 OFFCURVE",
"98 1000 OFFCURVE",
"80 1000 CURVE SMOOTH",
"66 1000 OFFCURVE",
"54 996 OFFCURVE",
"40 982 CURVE",
"50 970 OFFCURVE",
"66 938 OFFCURVE",
"72 922 CURVE",
"370 18 LINE SMOOTH",
"378 -4 OFFCURVE",
"394 -16 OFFCURVE",
"418 -16 CURVE SMOOTH"
);
}
);
width = 1466;
},
{
anchors = (
{
name = bottom;
position = "{836, 0}";
},
{
name = top;
position = "{836, 1032}";
}
);
layerId = "EBFFFCD3-BAE4-48A5-9442-B72A90AD34A8";
paths = (
{
closed = 1;
nodes = (
"538 -30 OFFCURVE",
"604 -16 OFFCURVE",
"670 10 CURVE",
"838 790 LINE",
"1008 60 LINE SMOOTH",
"1024 -8 OFFCURVE",
"1090 -30 OFFCURVE",
"1152 -30 CURVE SMOOTH",
"1214 -30 OFFCURVE",
"1274 -16 OFFCURVE",
"1338 10 CURVE",
"1608 802 LINE",
"1628 854 OFFCURVE",
"1636 908 OFFCURVE",
"1636 944 CURVE",
"1636 1026 OFFCURVE",
"1592 1060 OFFCURVE",
"1486 1060 CURVE SMOOTH",
"1420 1060 OFFCURVE",
"1382 1046 OFFCURVE",
"1344 1030 CURVE",
"1354 1016 OFFCURVE",
"1362 996 OFFCURVE",
"1362 964 CURVE SMOOTH",
"1362 932 OFFCURVE",
"1356 904 OFFCURVE",
"1350 872 CURVE",
"1200 156 LINE",
"1024 958 LINE",
"1004 1038 OFFCURVE",
"918 1060 OFFCURVE",
"838 1060 CURVE SMOOTH",
"790 1058 OFFCURVE",
"718 1054 OFFCURVE",
"660 1030 CURVE",
"672 1016 OFFCURVE",
"678 996 OFFCURVE",
"678 964 CURVE SMOOTH",
"678 932 OFFCURVE",
"674 902 OFFCURVE",
"668 872 CURVE SMOOTH",
"520 156 LINE",
"342 952 LINE SMOOTH",
"326 1024 OFFCURVE",
"264 1060 OFFCURVE",
"180 1060 CURVE SMOOTH",
"94 1060 OFFCURVE",
"48 1026 OFFCURVE",
"24 998 CURVE",
"58 962 OFFCURVE",
"76 900 OFFCURVE",
"88 868 CURVE",
"328 60 LINE SMOOTH",
"350 -8 OFFCURVE",
"408 -30 OFFCURVE",
"472 -30 CURVE SMOOTH"
);
}
);
width = 1672;
}
);
leftKerningGroup = w;
rightKerningGroup = w;
unicode = 0077;
},
{
glyphname = x;
layers = (
{
anchors = (
{
name = bottom;
position = "{482, 0}";
},
{
name = top;
position = "{482, 1000}";
}
);
layerId = "60CFBDE8-BC08-4808-BF41-F011F3E03A54";
paths = (
{
closed = 1;
nodes = (
"904 -26 OFFCURVE",
"940 12 OFFCURVE",
"940 48 CURVE SMOOTH",
"940 74 OFFCURVE",
"924 94 OFFCURVE",
"894 96 CURVE",
"902 70 OFFCURVE",
"888 32 OFFCURVE",
"842 32 CURVE SMOOTH",
"796 32 OFFCURVE",
"770 68 OFFCURVE",
"742 116 CURVE SMOOTH",
"500 534 LINE",
"286 910 LINE SMOOTH",
"254 966 OFFCURVE",
"208 1024 OFFCURVE",
"132 1024 CURVE SMOOTH",
"72 1024 OFFCURVE",
"34 986 OFFCURVE",
"34 948 CURVE SMOOTH",
"34 924 OFFCURVE",
"50 904 OFFCURVE",
"80 902 CURVE",
"74 934 OFFCURVE",
"88 966 OFFCURVE",
"134 966 CURVE SMOOTH",
"174 966 OFFCURVE",
"198 940 OFFCURVE",
"232 882 CURVE SMOOTH",
"448 506 LINE",
"688 88 LINE SMOOTH",
"722 28 OFFCURVE",
"766 -26 OFFCURVE",
"842 -26 CURVE SMOOTH"
);
},
{
closed = 1;
nodes = (
"116 -24 OFFCURVE",
"128 -16 OFFCURVE",
"138 -2 CURVE SMOOTH",
"500 512 LINE",
"466 560 LINE",
"168 146 LINE SMOOTH",
"112 68 OFFCURVE",
"82 30 OFFCURVE",
"66 16 CURVE",
"70 -14 OFFCURVE",
"86 -24 OFFCURVE",
"102 -24 CURVE SMOOTH"
);
},
{
closed = 1;
nodes = (
"768 852 LINE SMOOTH",
"814 914 OFFCURVE",
"846 962 OFFCURVE",
"872 984 CURVE",
"866 1012 OFFCURVE",
"854 1024 OFFCURVE",
"836 1024 CURVE SMOOTH",
"822 1024 OFFCURVE",
"810 1016 OFFCURVE",
"800 1002 CURVE SMOOTH",
"470 546 LINE",
"504 502 LINE"
);
}
);
width = 966;
},
{
anchors = (
{
name = bottom;
position = "{522, 0}";
},
{
name = top;
position = "{522, 1032}";
}
);
layerId = "EBFFFCD3-BAE4-48A5-9442-B72A90AD34A8";
paths = (
{
closed = 1;
nodes = (
"958 -30 OFFCURVE",
"1032 56 OFFCURVE",
"1032 140 CURVE SMOOTH",
"1032 204 OFFCURVE",
"988 248 OFFCURVE",
"946 268 CURVE",
"938 240 OFFCURVE",
"908 214 OFFCURVE",
"888 214 CURVE SMOOTH",
"866 214 OFFCURVE",
"832 236 OFFCURVE",
"806 282 CURVE SMOOTH",
"620 602 LINE",
"506 818 LINE SMOOTH",
"412 998 OFFCURVE",
"374 1062 OFFCURVE",
"248 1062 CURVE SMOOTH",
"102 1062 OFFCURVE",
"38 974 OFFCURVE",
"38 892 CURVE SMOOTH",
"38 828 OFFCURVE",
"76 786 OFFCURVE",
"122 764 CURVE",
"130 792 OFFCURVE",
"158 818 OFFCURVE",
"186 818 CURVE SMOOTH",
"210 818 OFFCURVE",
"234 796 OFFCURVE",
"262 748 CURVE SMOOTH",
"428 464 LINE",
"564 214 LINE SMOOTH",
"646 58 OFFCURVE",
"698 -30 OFFCURVE",
"828 -30 CURVE SMOOTH"
);
},
{
closed = 1;
nodes = (
"266 -28 OFFCURVE",
"308 8 OFFCURVE",
"332 52 CURVE SMOOTH",
"540 422 LINE",
"438 562 LINE",
"262 302 LINE SMOOTH",
"212 224 OFFCURVE",
"150 164 OFFCURVE",
"42 138 CURVE",
"52 14 OFFCURVE",
"120 -28 OFFCURVE",
"196 -28 CURVE SMOOTH"
);
},
{
closed = 1;
nodes = (
"792 726 LINE SMOOTH",
"844 800 OFFCURVE",
"902 866 OFFCURVE",
"1012 894 CURVE",
"1000 1012 OFFCURVE",
"948 1062 OFFCURVE",
"854 1062 CURVE SMOOTH",
"776 1062 OFFCURVE",
"736 1024 OFFCURVE",
"712 978 CURVE SMOOTH",
"512 620 LINE",
"618 484 LINE"
);
}
);
width = 1044;
}
);
unicode = 0078;
},
{
glyphname = y;
layers = (
{
anchors = (
{
name = bottom;
position = "{512, -424}";
},
{
name = top;
position = "{552, 1000}";
}
);
layerId = "60CFBDE8-BC08-4808-BF41-F011F3E03A54";
paths = (
{
closed = 1;
nodes = (
"716 -480 OFFCURVE",
"898 -340 OFFCURVE",
"898 92 CURVE",
"894 980 LINE SMOOTH",
"894 1008 OFFCURVE",
"882 1024 OFFCURVE",
"860 1024 CURVE SMOOTH",
"842 1024 OFFCURVE",
"832 1016 OFFCURVE",
"824 1008 CURVE",
"836 962 OFFCURVE",
"836 894 OFFCURVE",
"836 534 CURVE SMOOTH",
"836 142 OFFCURVE",
"638 36 OFFCURVE",
"474 36 CURVE SMOOTH",
"310 36 OFFCURVE",
"238 140 OFFCURVE",
"238 412 CURVE SMOOTH",
"236 980 LINE SMOOTH",
"236 1008 OFFCURVE",
"224 1024 OFFCURVE",
"202 1024 CURVE SMOOTH",
"184 1024 OFFCURVE",
"174 1016 OFFCURVE",
"166 1008 CURVE",
"174 976 OFFCURVE",
"178 920 OFFCURVE",
"178 834 CURVE SMOOTH",
"180 414 LINE SMOOTH",
"182 92 OFFCURVE",
"286 -20 OFFCURVE",
"472 -20 CURVE SMOOTH",
"692 -20 OFFCURVE",
"844 142 OFFCURVE",
"862 390 CURVE",
"836 374 LINE",
"836 290 OFFCURVE",
"836 208 OFFCURVE",
"836 124 CURVE",
"836 -258 OFFCURVE",
"730 -424 OFFCURVE",
"466 -424 CURVE SMOOTH",
"366 -424 OFFCURVE",
"224 -390 OFFCURVE",
"224 -246 CURVE SMOOTH",
"224 -228 OFFCURVE",
"226 -180 OFFCURVE",
"264 -160 CURVE",
"256 -148 OFFCURVE",
"242 -142 OFFCURVE",
"228 -142 CURVE SMOOTH",
"188 -142 OFFCURVE",
"166 -198 OFFCURVE",
"166 -260 CURVE SMOOTH",
"166 -418 OFFCURVE",
"326 -480 OFFCURVE",
"470 -480 CURVE SMOOTH"
);
}
);
width = 1072;
},
{
anchors = (
{
name = bottom;
position = "{538, -428}";
},
{
name = top;
position = "{562, 1032}";
}
);
layerId = "EBFFFCD3-BAE4-48A5-9442-B72A90AD34A8";
paths = (
{
closed = 1;
nodes = (
"792 -448 OFFCURVE",
"1012 -306 OFFCURVE",
"1012 106 CURVE",
"1010 906 LINE SMOOTH",
"1010 1004 OFFCURVE",
"940 1062 OFFCURVE",
"852 1062 CURVE SMOOTH",
"774 1062 OFFCURVE",
"718 1024 OFFCURVE",
"694 1004 CURVE",
"740 894 OFFCURVE",
"740 824 OFFCURVE",
"740 566 CURVE SMOOTH",
"740 268 OFFCURVE",
"660 114 OFFCURVE",
"536 114 CURVE SMOOTH",
"430 114 OFFCURVE",
"406 226 OFFCURVE",
"406 432 CURVE SMOOTH",
"406 920 LINE SMOOTH",
"406 1010 OFFCURVE",
"338 1062 OFFCURVE",
"248 1062 CURVE SMOOTH",
"176 1062 OFFCURVE",
"126 1032 OFFCURVE",
"90 1002 CURVE",
"124 912 OFFCURVE",
"130 802 OFFCURVE",
"130 740 CURVE SMOOTH",
"130 388 LINE SMOOTH",
"130 96 OFFCURVE",
"234 -14 OFFCURVE",
"444 -14 CURVE SMOOTH",
"668 -14 OFFCURVE",
"772 132 OFFCURVE",
"806 372 CURVE",
"790 320 LINE",
"776 252 OFFCURVE",
"756 116 OFFCURVE",
"756 64 CURVE",
"756 -192 OFFCURVE",
"666 -366 OFFCURVE",
"496 -366 CURVE SMOOTH",
"404 -366 OFFCURVE",
"360 -310 OFFCURVE",
"360 -238 CURVE SMOOTH",
"360 -204 OFFCURVE",
"378 -164 OFFCURVE",
"418 -136 CURVE",
"394 -106 OFFCURVE",
"350 -90 OFFCURVE",
"294 -90 CURVE SMOOTH",
"182 -90 OFFCURVE",
"106 -150 OFFCURVE",
"106 -238 CURVE SMOOTH",
"106 -404 OFFCURVE",
"290 -448 OFFCURVE",
"490 -448 CURVE SMOOTH"
);
}
);
width = 1116;
}
);
leftKerningGroup = u;
rightKerningGroup = g;
rightMetricsKey = g;
unicode = 0079;
},
{
glyphname = z;
layers = (
{
anchors = (
{
name = bottom;
position = "{478, 0}";
},
{
name = top;
position = "{478, 1000}";
}
);
layerId = "60CFBDE8-BC08-4808-BF41-F011F3E03A54";
paths = (
{
closed = 1;
nodes = (
"158 0 OFFCURVE",
"232 0 OFFCURVE",
"292 0 CURVE SMOOTH",
"666 0 LINE SMOOTH",
"794 0 OFFCURVE",
"878 76 OFFCURVE",
"878 188 CURVE SMOOTH",
"878 240 OFFCURVE",
"860 328 OFFCURVE",
"790 328 CURVE SMOOTH",
"780 328 OFFCURVE",
"768 324 OFFCURVE",
"754 316 CURVE",
"790 296 OFFCURVE",
"818 248 OFFCURVE",
"818 194 CURVE SMOOTH",
"818 124 OFFCURVE",
"776 54 OFFCURVE",
"644 54 CURVE SMOOTH",
"130 54 LINE",
"140 34 LINE",
"796 896 LINE SMOOTH",
"822 932 OFFCURVE",
"826 962 OFFCURVE",
"826 994 CURVE",
"806 1008 LINE",
"774 1000 OFFCURVE",
"718 1000 OFFCURVE",
"616 1000 CURVE SMOOTH",
"288 1000 LINE SMOOTH",
"160 1000 OFFCURVE",
"88 926 OFFCURVE",
"88 840 CURVE SMOOTH",
"88 782 OFFCURVE",
"120 716 OFFCURVE",
"180 716 CURVE SMOOTH",
"192 716 OFFCURVE",
"204 722 OFFCURVE",
"210 732 CURVE",
"176 756 OFFCURVE",
"148 788 OFFCURVE",
"148 836 CURVE SMOOTH",
"148 890 OFFCURVE",
"186 944 OFFCURVE",
"292 944 CURVE SMOOTH",
"790 944 LINE",
"780 964 LINE",
"110 80 LINE SMOOTH",
"94 58 OFFCURVE",
"82 32 OFFCURVE",
"82 14 CURVE",
"98 -8 LINE"
);
}
);
width = 952;
},
{
anchors = (
{
name = bottom;
position = "{506, 0}";
},
{
name = top;
position = "{506, 1036}";
}
);
layerId = "EBFFFCD3-BAE4-48A5-9442-B72A90AD34A8";
paths = (
{
closed = 1;
nodes = (
"148 0 OFFCURVE",
"220 2 OFFCURVE",
"276 0 CURVE SMOOTH",
"706 -12 LINE SMOOTH",
"892 -16 OFFCURVE",
"992 68 OFFCURVE",
"992 174 CURVE SMOOTH",
"992 226 OFFCURVE",
"958 310 OFFCURVE",
"872 352 CURVE SMOOTH",
"852 360 OFFCURVE",
"832 366 OFFCURVE",
"806 372 CURVE",
"808 346 OFFCURVE",
"802 316 OFFCURVE",
"780 292 CURVE SMOOTH",
"754 260 OFFCURVE",
"710 236 OFFCURVE",
"648 232 CURVE SMOOTH",
"260 212 LINE",
"306 158 LINE",
"874 808 LINE SMOOTH",
"926 868 OFFCURVE",
"932 912 OFFCURVE",
"932 986 CURVE",
"906 1056 LINE",
"852 1036 OFFCURVE",
"782 1034 OFFCURVE",
"724 1036 CURVE SMOOTH",
"352 1050 LINE SMOOTH",
"132 1058 OFFCURVE",
"46 972 OFFCURVE",
"46 864 CURVE SMOOTH",
"46 818 OFFCURVE",
"82 740 OFFCURVE",
"164 700 CURVE SMOOTH",
"184 688 OFFCURVE",
"208 682 OFFCURVE",
"232 678 CURVE",
"228 708 OFFCURVE",
"242 740 OFFCURVE",
"270 766 CURVE SMOOTH",
"296 790 OFFCURVE",
"338 812 OFFCURVE",
"388 818 CURVE SMOOTH",
"766 856 LINE",
"722 884 LINE",
"120 214 LINE SMOOTH",
"68 160 OFFCURVE",
"60 114 OFFCURVE",
"60 36 CURVE",
"92 -22 LINE"
);
}
);
width = 1012;
}
);
leftKerningGroup = z;
rightKerningGroup = z;
unicode = 007A;
},
{
glyphname = a.ss01;
layers = (
{
anchors = (
{
name = bottom;
position = "{548, 0}";
},
{
name = top;
position = "{548, 1000}";
}
);
layerId = "60CFBDE8-BC08-4808-BF41-F011F3E03A54";
paths = (
{
closed = 1;
nodes = (
"710 -24 OFFCURVE",
"834 224 OFFCURVE",
"868 458 CURVE",
"822 400 LINE",
"822 146 LINE SMOOTH",
"822 40 OFFCURVE",
"860 -14 OFFCURVE",
"936 -14 CURVE SMOOTH",
"984 -14 OFFCURVE",
"1016 4 OFFCURVE",
"1016 34 CURVE SMOOTH",
"1016 48 OFFCURVE",
"1010 62 OFFCURVE",
"996 78 CURVE",
"982 46 OFFCURVE",
"958 42 OFFCURVE",
"942 42 CURVE SMOOTH",
"906 42 OFFCURVE",
"882 68 OFFCURVE",
"882 142 CURVE SMOOTH",
"884 976 LINE SMOOTH",
"884 998 OFFCURVE",
"876 1020 OFFCURVE",
"844 1020 CURVE SMOOTH",
"830 1020 OFFCURVE",
"826 1016 OFFCURVE",
"818 1008 CURVE",
"824 988 OFFCURVE",
"826 894 OFFCURVE",
"822 836 CURVE",
"778 956 OFFCURVE",
"668 1018 OFFCURVE",
"522 1018 CURVE SMOOTH",
"246 1018 OFFCURVE",
"106 796 OFFCURVE",
"106 444 CURVE SMOOTH",
"106 288 OFFCURVE",
"134 -24 OFFCURVE",
"438 -24 CURVE SMOOTH"
);
},
{
closed = 1;
nodes = (
"194 32 OFFCURVE",
"170 300 OFFCURVE",
"170 450 CURVE SMOOTH",
"170 802 OFFCURVE",
"302 962 OFFCURVE",
"518 962 CURVE SMOOTH",
"774 962 OFFCURVE",
"822 736 OFFCURVE",
"822 564 CURVE SMOOTH",
"822 262 OFFCURVE",
"672 32 OFFCURVE",
"442 32 CURVE SMOOTH"
);
}
);
width = 1088;
},
{
anchors = (
{
name = bottom;
position = "{588, 0}";
},
{
name = top;
position = "{588, 1032}";
}
);
layerId = "EBFFFCD3-BAE4-48A5-9442-B72A90AD34A8";
paths = (
{
closed = 1;
nodes = (
"630 -28 OFFCURVE",
"758 114 OFFCURVE",
"794 418 CURVE",
"752 440 LINE",
"752 348 LINE SMOOTH",
"752 124 OFFCURVE",
"818 -18 OFFCURVE",
"974 -18 CURVE SMOOTH",
"1074 -18 OFFCURVE",
"1152 40 OFFCURVE",
"1152 122 CURVE SMOOTH",
"1152 146 OFFCURVE",
"1144 180 OFFCURVE",
"1126 208 CURVE",
"1114 190 OFFCURVE",
"1088 186 OFFCURVE",
"1074 186 CURVE SMOOTH",
"1030 186 OFFCURVE",
"1006 220 OFFCURVE",
"1006 290 CURVE SMOOTH",
"1008 920 LINE SMOOTH",
"1008 1008 OFFCURVE",
"942 1062 OFFCURVE",
"844 1062 CURVE SMOOTH",
"812 1062 OFFCURVE",
"780 1056 OFFCURVE",
"756 1034 CURVE",
"752 1002 OFFCURVE",
"746 974 OFFCURVE",
"738 946 CURVE",
"700 1020 OFFCURVE",
"618 1060 OFFCURVE",
"498 1060 CURVE SMOOTH",
"222 1060 OFFCURVE",
"68 852 OFFCURVE",
"68 480 CURVE SMOOTH",
"68 184 OFFCURVE",
"170 -28 OFFCURVE",
"424 -28 CURVE SMOOTH"
);
},
{
closed = 1;
nodes = (
"398 120 OFFCURVE",
"362 240 OFFCURVE",
"362 486 CURVE SMOOTH",
"362 762 OFFCURVE",
"414 924 OFFCURVE",
"568 924 CURVE SMOOTH",
"712 924 OFFCURVE",
"732 788 OFFCURVE",
"732 646 CURVE SMOOTH",
"732 386 OFFCURVE",
"666 120 OFFCURVE",
"508 120 CURVE SMOOTH"
);
}
);
width = 1184;
}
);
leftKerningGroup = o;
leftMetricsKey = d;
rightKerningGroup = d;
rightMetricsKey = d;
},
{
glyphname = fi;
layers = (
{
anchors = (
{
name = caret_1;
position = "{628, 0}";
}
);
layerId = "60CFBDE8-BC08-4808-BF41-F011F3E03A54";
paths = (
{
closed = 1;
nodes = (
"288 -16 OFFCURVE",
"298 -8 OFFCURVE",
"306 0 CURVE",
"298 32 OFFCURVE",
"294 96 OFFCURVE",
"294 174 CURVE SMOOTH",
"296 1068 LINE SMOOTH",
"296 1282 OFFCURVE",
"352 1424 OFFCURVE",
"616 1424 CURVE SMOOTH",
"750 1424 OFFCURVE",
"886 1388 OFFCURVE",
"886 1272 CURVE SMOOTH",
"886 1252 OFFCURVE",
"882 1210 OFFCURVE",
"846 1166 CURVE",
"850 1164 OFFCURVE",
"854 1164 OFFCURVE",
"858 1164 CURVE SMOOTH",
"888 1164 OFFCURVE",
"944 1210 OFFCURVE",
"944 1286 CURVE SMOOTH",
"944 1416 OFFCURVE",
"786 1480 OFFCURVE",
"612 1480 CURVE SMOOTH",
"272 1480 OFFCURVE",
"234 1238 OFFCURVE",
"234 1074 CURVE SMOOTH",
"236 28 LINE SMOOTH",
"236 0 OFFCURVE",
"248 -16 OFFCURVE",
"270 -16 CURVE SMOOTH"
);
},
{
closed = 1;
nodes = (
"98 946 OFFCURVE",
"166 948 OFFCURVE",
"192 948 CURVE SMOOTH",
"586 948 LINE SMOOTH",
"598 948 OFFCURVE",
"606 960 OFFCURVE",
"608 976 CURVE SMOOTH",
"610 1004 LINE",
"590 1002 OFFCURVE",
"526 1000 OFFCURVE",
"506 1000 CURVE SMOOTH",
"96 1000 LINE SMOOTH",
"84 1000 OFFCURVE",
"76 988 OFFCURVE",
"74 972 CURVE SMOOTH",
"72 944 LINE"
);
},
{
closed = 1;
nodes = (
"938 980 LINE SMOOTH",
"938 1008 OFFCURVE",
"926 1024 OFFCURVE",
"904 1024 CURVE SMOOTH",
"886 1024 OFFCURVE",
"876 1016 OFFCURVE",
"868 1008 CURVE",
"876 976 OFFCURVE",
"880 920 OFFCURVE",
"880 834 CURVE SMOOTH",
"884 28 LINE SMOOTH",
"884 0 OFFCURVE",
"896 -16 OFFCURVE",
"918 -16 CURVE SMOOTH",
"936 -16 OFFCURVE",
"946 -8 OFFCURVE",
"954 0 CURVE",
"946 32 OFFCURVE",
"942 88 OFFCURVE",
"942 174 CURVE SMOOTH"
);
}
);
width = 1142;
},
{
anchors = (
{
name = caret_1;
position = "{648, 0}";
}
);
layerId = "EBFFFCD3-BAE4-48A5-9442-B72A90AD34A8";
paths = (
{
closed = 1;
nodes = (
"386 -30 OFFCURVE",
"436 0 OFFCURVE",
"472 32 CURVE",
"438 120 OFFCURVE",
"432 232 OFFCURVE",
"432 292 CURVE SMOOTH",
"432 998 LINE SMOOTH",
"432 1222 OFFCURVE",
"420 1402 OFFCURVE",
"630 1402 CURVE SMOOTH",
"708 1402 OFFCURVE",
"786 1378 OFFCURVE",
"786 1318 CURVE SMOOTH",
"786 1284 OFFCURVE",
"782 1250 OFFCURVE",
"750 1218 CURVE",
"776 1188 OFFCURVE",
"820 1174 OFFCURVE",
"876 1174 CURVE SMOOTH",
"970 1174 OFFCURVE",
"1044 1230 OFFCURVE",
"1044 1306 CURVE SMOOTH",
"1044 1420 OFFCURVE",
"894 1486 OFFCURVE",
"632 1486 CURVE SMOOTH",
"266 1486 OFFCURVE",
"158 1294 OFFCURVE",
"158 1050 CURVE SMOOTH",
"158 112 LINE SMOOTH",
"158 24 OFFCURVE",
"226 -30 OFFCURVE",
"316 -30 CURVE SMOOTH"
);
},
{
closed = 1;
nodes = (
"48 906 OFFCURVE",
"116 910 OFFCURVE",
"142 910 CURVE SMOOTH",
"564 910 LINE SMOOTH",
"602 910 OFFCURVE",
"634 932 OFFCURVE",
"636 976 CURVE SMOOTH",
"638 1040 LINE",
"618 1036 OFFCURVE",
"472 1032 OFFCURVE",
"456 1032 CURVE SMOOTH",
"96 1032 LINE SMOOTH",
"58 1032 OFFCURVE",
"26 1012 OFFCURVE",
"24 968 CURVE SMOOTH",
"22 902 LINE"
);
},
{
closed = 1;
nodes = (
"1050 922 LINE SMOOTH",
"1050 1012 OFFCURVE",
"984 1064 OFFCURVE",
"894 1064 CURVE SMOOTH",
"818 1064 OFFCURVE",
"764 1024 OFFCURVE",
"740 1004 CURVE",
"774 914 OFFCURVE",
"780 820 OFFCURVE",
"780 742 CURVE SMOOTH",
"780 112 LINE SMOOTH",
"780 24 OFFCURVE",
"848 -30 OFFCURVE",
"934 -30 CURVE SMOOTH",
"1012 -30 OFFCURVE",
"1068 10 OFFCURVE",
"1092 32 CURVE",
"1056 120 OFFCURVE",
"1052 214 OFFCURVE",
"1052 292 CURVE SMOOTH"
);
}
);
width = 1182;
}
);
leftKerningGroup = f;
leftMetricsKey = f;
rightKerningGroup = i;
rightMetricsKey = i;
unicode = FB01;
},
{
glyphname = fl;
layers = (
{
anchors = (
{
name = caret_1;
position = "{660, 0}";
}
);
layerId = "60CFBDE8-BC08-4808-BF41-F011F3E03A54";
paths = (
{
closed = 1;
nodes = (
"288 -16 OFFCURVE",
"298 -8 OFFCURVE",
"306 0 CURVE",
"298 32 OFFCURVE",
"294 96 OFFCURVE",
"294 174 CURVE SMOOTH",
"296 1148 LINE SMOOTH",
"296 1300 OFFCURVE",
"340 1424 OFFCURVE",
"584 1424 CURVE SMOOTH",
"756 1424 OFFCURVE",
"884 1362 OFFCURVE",
"884 1156 CURVE SMOOTH",
"884 146 LINE SMOOTH",
"884 38 OFFCURVE",
"940 -20 OFFCURVE",
"1024 -20 CURVE SMOOTH",
"1080 -20 OFFCURVE",
"1132 4 OFFCURVE",
"1132 48 CURVE SMOOTH",
"1132 60 OFFCURVE",
"1128 74 OFFCURVE",
"1114 90 CURVE",
"1098 56 OFFCURVE",
"1064 36 OFFCURVE",
"1026 36 CURVE SMOOTH",
"972 36 OFFCURVE",
"944 76 OFFCURVE",
"944 142 CURVE SMOOTH",
"944 1172 LINE SMOOTH",
"944 1356 OFFCURVE",
"820 1480 OFFCURVE",
"578 1480 CURVE SMOOTH",
"292 1480 OFFCURVE",
"234 1306 OFFCURVE",
"234 1154 CURVE SMOOTH",
"236 28 LINE SMOOTH",
"236 0 OFFCURVE",
"248 -16 OFFCURVE",
"270 -16 CURVE SMOOTH"
);
},
{
closed = 1;
nodes = (
"98 946 OFFCURVE",
"166 948 OFFCURVE",
"192 948 CURVE SMOOTH",
"586 948 LINE SMOOTH",
"598 948 OFFCURVE",
"606 960 OFFCURVE",
"608 976 CURVE SMOOTH",
"610 1004 LINE",
"590 1002 OFFCURVE",
"526 1000 OFFCURVE",
"506 1000 CURVE SMOOTH",
"96 1000 LINE SMOOTH",
"84 1000 OFFCURVE",
"76 988 OFFCURVE",
"74 972 CURVE SMOOTH",
"72 944 LINE"
);
}
);
width = 1196;
},
{
anchors = (
{
name = caret_1;
position = "{688, 0}";
}
);
layerId = "EBFFFCD3-BAE4-48A5-9442-B72A90AD34A8";
paths = (
{
closed = 1;
nodes = (
"386 -30 OFFCURVE",
"436 0 OFFCURVE",
"472 32 CURVE",
"438 120 OFFCURVE",
"432 232 OFFCURVE",
"432 292 CURVE SMOOTH",
"432 1014 LINE SMOOTH",
"432 1224 OFFCURVE",
"420 1402 OFFCURVE",
"618 1402 CURVE SMOOTH",
"740 1402 OFFCURVE",
"808 1340 OFFCURVE",
"808 1180 CURVE SMOOTH",
"808 266 LINE SMOOTH",
"808 90 OFFCURVE",
"894 -20 OFFCURVE",
"1054 -20 CURVE SMOOTH",
"1154 -20 OFFCURVE",
"1238 40 OFFCURVE",
"1238 124 CURVE SMOOTH",
"1238 148 OFFCURVE",
"1230 182 OFFCURVE",
"1210 210 CURVE",
"1198 190 OFFCURVE",
"1170 184 OFFCURVE",
"1152 184 CURVE SMOOTH",
"1106 184 OFFCURVE",
"1082 220 OFFCURVE",
"1082 290 CURVE SMOOTH",
"1082 1192 LINE SMOOTH",
"1082 1376 OFFCURVE",
"922 1486 OFFCURVE",
"618 1486 CURVE SMOOTH",
"268 1486 OFFCURVE",
"158 1306 OFFCURVE",
"158 1064 CURVE SMOOTH",
"158 112 LINE SMOOTH",
"158 24 OFFCURVE",
"226 -30 OFFCURVE",
"316 -30 CURVE SMOOTH"
);
},
{
closed = 1;
nodes = (
"48 906 OFFCURVE",
"116 910 OFFCURVE",
"142 910 CURVE SMOOTH",
"548 910 LINE SMOOTH",
"586 910 OFFCURVE",
"616 932 OFFCURVE",
"618 976 CURVE SMOOTH",
"620 1040 LINE",
"600 1036 OFFCURVE",
"472 1032 OFFCURVE",
"456 1032 CURVE SMOOTH",
"96 1032 LINE SMOOTH",
"58 1032 OFFCURVE",
"26 1012 OFFCURVE",
"24 968 CURVE SMOOTH",
"22 902 LINE"
);
}
);
width = 1266;
}
);
leftKerningGroup = f;
leftMetricsKey = f;
rightKerningGroup = l;
rightMetricsKey = l;
unicode = FB02;
},
{
glyphname = ordfeminine;
layers = (
{
layerId = "60CFBDE8-BC08-4808-BF41-F011F3E03A54";
paths = (
{
closed = 1;
nodes = (
"664 696 OFFCURVE",
"698 712 OFFCURVE",
"698 742 CURVE SMOOTH",
"698 750 OFFCURVE",
"696 760 OFFCURVE",
"686 770 CURVE",
"676 750 OFFCURVE",
"652 738 OFFCURVE",
"636 738 CURVE SMOOTH",
"606 738 OFFCURVE",
"588 758 OFFCURVE",
"588 806 CURVE SMOOTH",
"588 1110 LINE SMOOTH",
"588 1296 OFFCURVE",
"506 1396 OFFCURVE",
"330 1396 CURVE SMOOTH",
"192 1396 OFFCURVE",
"102 1346 OFFCURVE",
"102 1240 CURVE SMOOTH",
"102 1188 OFFCURVE",
"132 1128 OFFCURVE",
"172 1128 CURVE SMOOTH",
"180 1128 OFFCURVE",
"196 1132 OFFCURVE",
"208 1150 CURVE",
"164 1160 OFFCURVE",
"144 1208 OFFCURVE",
"144 1242 CURVE SMOOTH",
"144 1334 OFFCURVE",
"246 1354 OFFCURVE",
"322 1354 CURVE SMOOTH",
"478 1354 OFFCURVE",
"544 1274 OFFCURVE",
"544 1110 CURVE SMOOTH",
"544 1078 LINE",
"460 1084 OFFCURVE",
"362 1078 OFFCURVE",
"284 1058 CURVE SMOOTH",
"142 1022 OFFCURVE",
"74 942 OFFCURVE",
"74 846 CURVE SMOOTH",
"74 762 OFFCURVE",
"124 694 OFFCURVE",
"232 694 CURVE SMOOTH",
"364 694 OFFCURVE",
"500 794 OFFCURVE",
"562 970 CURVE",
"544 986 LINE",
"544 808 LINE SMOOTH",
"544 742 OFFCURVE",
"570 696 OFFCURVE",
"634 696 CURVE SMOOTH"
);
},
{
closed = 1;
nodes = (
"152 734 OFFCURVE",
"120 790 OFFCURVE",
"120 850 CURVE SMOOTH",
"120 932 OFFCURVE",
"180 990 OFFCURVE",
"286 1022 CURVE SMOOTH",
"354 1042 OFFCURVE",
"472 1050 OFFCURVE",
"544 1046 CURVE",
"540 894 OFFCURVE",
"376 734 OFFCURVE",
"240 734 CURVE SMOOTH"
);
}
);
width = 716;
},
{
layerId = "EBFFFCD3-BAE4-48A5-9442-B72A90AD34A8";
paths = (
{
closed = 1;
nodes = (
"760 710 OFFCURVE",
"810 758 OFFCURVE",
"810 818 CURVE SMOOTH",
"810 836 OFFCURVE",
"806 862 OFFCURVE",
"790 882 CURVE",
"784 874 OFFCURVE",
"764 872 OFFCURVE",
"756 872 CURVE SMOOTH",
"724 872 OFFCURVE",
"708 894 OFFCURVE",
"708 940 CURVE SMOOTH",
"708 1136 LINE SMOOTH",
"708 1346 OFFCURVE",
"614 1420 OFFCURVE",
"396 1420 CURVE SMOOTH",
"206 1420 OFFCURVE",
"84 1360 OFFCURVE",
"84 1254 CURVE SMOOTH",
"84 1182 OFFCURVE",
"140 1130 OFFCURVE",
"236 1130 CURVE SMOOTH",
"278 1130 OFFCURVE",
"320 1142 OFFCURVE",
"344 1164 CURVE",
"306 1188 OFFCURVE",
"298 1228 OFFCURVE",
"298 1262 CURVE SMOOTH",
"298 1324 OFFCURVE",
"332 1352 OFFCURVE",
"384 1352 CURVE SMOOTH",
"468 1352 OFFCURVE",
"496 1284 OFFCURVE",
"496 1152 CURVE SMOOTH",
"496 1118 LINE",
"442 1114 OFFCURVE",
"378 1108 OFFCURVE",
"302 1090 CURVE SMOOTH",
"188 1062 OFFCURVE",
"50 1000 OFFCURVE",
"50 862 CURVE SMOOTH",
"50 758 OFFCURVE",
"132 708 OFFCURVE",
"240 708 CURVE SMOOTH",
"414 708 OFFCURVE",
"518 838 OFFCURVE",
"542 974 CURVE",
"540 1016 LINE",
"526 962 LINE SMOOTH",
"438 810 OFFCURVE",
"570 710 OFFCURVE",
"670 710 CURVE SMOOTH"
);
},
{
closed = 1;
nodes = (
"296 844 OFFCURVE",
"276 882 OFFCURVE",
"276 920 CURVE SMOOTH",
"276 964 OFFCURVE",
"306 1002 OFFCURVE",
"348 1024 CURVE SMOOTH",
"392 1048 OFFCURVE",
"446 1050 OFFCURVE",
"500 1052 CURVE",
"502 932 OFFCURVE",
"416 860 OFFCURVE",
"348 850 CURVE SMOOTH"
);
}
);
width = 818;
}
);
unicode = 00AA;
},
{
glyphname = ordmasculine;
layers = (
{
layerId = "60CFBDE8-BC08-4808-BF41-F011F3E03A54";
paths = (
{
closed = 1;
nodes = (
"538 694 OFFCURVE",
"644 824 OFFCURVE",
"644 1046 CURVE SMOOTH",
"644 1266 OFFCURVE",
"538 1396 OFFCURVE",
"358 1396 CURVE SMOOTH",
"176 1396 OFFCURVE",
"72 1266 OFFCURVE",
"72 1046 CURVE SMOOTH",
"72 824 OFFCURVE",
"176 694 OFFCURVE",
"358 694 CURVE SMOOTH"
);
},
{
closed = 1;
nodes = (
"208 736 OFFCURVE",
"118 850 OFFCURVE",
"118 1046 CURVE SMOOTH",
"118 1240 OFFCURVE",
"208 1354 OFFCURVE",
"358 1354 CURVE SMOOTH",
"508 1354 OFFCURVE",
"598 1240 OFFCURVE",
"598 1046 CURVE SMOOTH",
"598 850 OFFCURVE",
"508 736 OFFCURVE",
"358 736 CURVE SMOOTH"
);
}
);
width = 716;
},
{
layerId = "EBFFFCD3-BAE4-48A5-9442-B72A90AD34A8";
paths = (
{
closed = 1;
nodes = (
"628 700 OFFCURVE",
"760 834 OFFCURVE",
"760 1060 CURVE SMOOTH",
"760 1286 OFFCURVE",
"628 1420 OFFCURVE",
"404 1420 CURVE SMOOTH",
"178 1420 OFFCURVE",
"48 1286 OFFCURVE",
"48 1060 CURVE SMOOTH",
"48 834 OFFCURVE",
"178 700 OFFCURVE",
"404 700 CURVE SMOOTH"
);
},
{
closed = 1;
nodes = (
"310 768 OFFCURVE",
"272 864 OFFCURVE",
"272 1060 CURVE SMOOTH",
"272 1256 OFFCURVE",
"310 1350 OFFCURVE",
"406 1350 CURVE SMOOTH",
"496 1350 OFFCURVE",
"538 1256 OFFCURVE",
"538 1060 CURVE SMOOTH",
"538 864 OFFCURVE",
"496 768 OFFCURVE",
"406 768 CURVE SMOOTH"
);
}
);
width = 810;
}
);
unicode = 00BA;
},
